<?xml version="1.0" encoding="utf-8"?>
<!-- Generator: Adobe Illustrator 18.1.1, SVG Export Plug-In . SVG Version: 6.00 Build 0)  -->
<svg version="1.1" id="Layer_1" xmlns="http://www.w3.org/2000/svg" xmlns:xlink="http://www.w3.org/1999/xlink" x="0px" y="0px"
	 viewBox="0 0 18.5 18.5" enable-background="new 0 0 18.5 18.5" xml:space="preserve">
<g>
	<path fill="#FFFFFF" d="M9.2,18.5C4.1,18.5,0,14.3,0,9.2C0,4.1,4.1,0,9.2,0c5.1,0,9.2,4.1,9.2,9.2C18.5,14.3,14.3,18.5,9.2,18.5z
		 M9.2,0.9c-4.6,0-8.3,3.7-8.3,8.3c0,4.6,3.7,8.3,8.3,8.3c4.6,0,8.3-3.7,8.3-8.3C17.5,4.6,13.8,0.9,9.2,0.9z"/>
	<path fill="#FFFFFF" d="M8.3,10.5h5.1c0.1,0,0.2-0.1,0.2-0.2V9c0-0.1-0.1-0.2-0.2-0.2H9.8V4.9c0-0.1-0.1-0.2-0.2-0.2H8.3
		c-0.1,0-0.2,0.1-0.2,0.2v5.4C8.1,10.4,8.2,10.5,8.3,10.5z"/>
</g>
</svg>
