<?xml version="1.0" encoding="utf-8"?>
<!-- Generator: Adobe Illustrator 17.1.0, SVG Export Plug-In . SVG Version: 6.00 Build 0)  -->
<!DOCTYPE svg PUBLIC "-//W3C//DTD SVG 1.1//EN" "http://www.w3.org/Graphics/SVG/1.1/DTD/svg11.dtd">
<svg version="1.1" id="Layer_1" xmlns="http://www.w3.org/2000/svg" xmlns:xlink="http://www.w3.org/1999/xlink" x="0px" y="0px"
	 viewBox="0 0 50 50" enable-background="new 0 0 50 50" xml:space="preserve">
<g>
	<path fill="#FFFFFF" d="M7.9,22.3c0.5-2,1.1-4.1,2.3-5.9C13,12.3,17,10,21.8,9.2c6.5-1,12.4,0.6,16.9,5.7
		c5.1,5.8,4.4,14.1-1.4,19.2c-1.3,1.1-1.3,1.4-0.4,2.9c0.5,0.7,1.1,1.3,1.8,1.8c0.5,0.3,1.1,0.6,0.8,1.4c-0.3,0.8-0.9,0.9-1.7,0.8
		c-2.7-0.2-5.3-0.9-7.7-2.2c-0.8-0.4-1.5-0.6-2.4-0.5c-6.5,0.7-12.1-0.9-16.6-5.9c-1.6-1.8-2.6-4-3-6.4c0-0.3-0.2-0.5-0.3-0.8
		C7.9,24.2,7.9,23.3,7.9,22.3z M34.7,38c-0.4-0.7-0.7-1.2-0.9-1.7c-1-2.1-1-2.3,0.9-3.7c5.6-4.2,6.2-11.6,1.3-16.4
		c-5.7-5.6-16-5.6-21.8-0.1c-4.6,4.5-4.6,11.2,0.1,15.5c3.7,3.4,8.2,4.5,13,3.9c1.2-0.2,2.2-0.1,3.2,0.7C31.7,37,33,37.8,34.7,38z"
		/>
	<path fill="#FFFFFF" d="M25.1,32.1c-3.2-0.1-6-1-8.2-3.2c-0.4-0.4-0.8-0.9-1.1-1.4c-0.1-0.3-0.1-0.6,0.1-0.9c0.3-0.3,0.6-0.1,0.9,0
		c0.2,0.1,0.3,0.2,0.5,0.4c4.8,3.4,10.8,3.4,15.6-0.1c0.4-0.3,0.7-0.8,1.2-0.2c0.4,0.5,0.1,0.9-0.2,1.3
		C31.7,30.9,28.5,31.9,25.1,32.1z"/>
</g>
</svg>
