<?xml version="1.0" encoding="utf-8"?>
<!-- Generator: Adobe Illustrator 17.1.0, SVG Export Plug-In . SVG Version: 6.00 Build 0)  -->
<!DOCTYPE svg PUBLIC "-//W3C//DTD SVG 1.1//EN" "http://www.w3.org/Graphics/SVG/1.1/DTD/svg11.dtd">
<svg version="1.1" id="Layer_1" xmlns="http://www.w3.org/2000/svg" xmlns:xlink="http://www.w3.org/1999/xlink" x="0px" y="0px"
	 viewBox="0 0 23.5 23.5" enable-background="new 0 0 23.5 23.5" xml:space="preserve">
<g>
	<path fill="#FFFFFF" d="M11.7,0C5.3,0,0,5.3,0,11.7c0,6.5,5.3,11.7,11.7,11.7c6.5,0,11.7-5.3,11.7-11.7C23.4,5.3,18.2,0,11.7,0z
		 M11.7,22.3c-5.8,0-10.6-4.7-10.6-10.6c0-5.8,4.7-10.6,10.6-10.6c5.8,0,10.6,4.7,10.6,10.6C22.3,17.6,17.6,22.3,11.7,22.3z"/>
	<path fill="#FFFFFF" d="M18.2,7.6h-3.3V7c0-0.7-0.6-1.3-1.3-1.3H7.8c-0.4,0-0.8,0.2-1,0.5v0C7.1,6,7.2,5.6,7.2,5.3V5.1
		c0-0.7-0.5-1.2-1.2-1.2H5.9c-0.7,0-1.2,0.5-1.2,1.2v0.1c0,0.4,0.2,0.7,0.5,0.9v12.1c0,0.4,0.4,0.8,0.8,0.8s0.8-0.4,0.8-0.8v-4.7
		c0.2,0.3,0.6,0.5,1,0.5H11v0.5c0,0.7,0.6,1.3,1.3,1.3h5.9c0.7,0,1.3-0.6,1.3-1.3V8.8C19.4,8.1,18.9,7.6,18.2,7.6z M17.8,9.3v5
		c0,0.1,0,0.1-0.1,0.1h-4.1l0.5-0.5l0.1-0.1c0.2-0.3,0.3-0.5,0.3-0.8V9.2L17.8,9.3C17.8,9.2,17.8,9.2,17.8,9.3z M13.2,12.5h-5
		c-0.1,0-0.1,0-0.1-0.1v-5c0-0.1,0-0.1,0.1-0.1h5c0.1,0,0.1,0,0.1,0.1L13.2,12.5C13.3,12.5,13.3,12.5,13.2,12.5z"/>
</g>
</svg>
