<?xml version="1.0" encoding="utf-8"?>
<!-- Generator: Adobe Illustrator 18.1.1, SVG Export Plug-In . SVG Version: 6.00 Build 0)  -->
<svg version="1.1" id="Layer_1" xmlns="http://www.w3.org/2000/svg" xmlns:xlink="http://www.w3.org/1999/xlink" x="0px" y="0px"
	 viewBox="0 0 13.9 18.2" enable-background="new 0 0 13.9 18.2" xml:space="preserve">
<g>
	<path fill="#FFFFFF" d="M9.3,0H1.9C0.9,0,0,0.9,0,1.9v14.4c0,1.1,0.9,1.9,1.9,1.9h10c1.1,0,1.9-0.9,1.9-1.9V4.6L9.3,0z M11.9,17
		h-10c-0.4,0-0.8-0.3-0.8-0.8V1.9c0-0.4,0.3-0.8,0.8-0.8l6.9,0v2.5c0,0.7,0.6,1.3,1.3,1.3l2.5,0l0,11.2C12.7,16.7,12.3,17,11.9,17z"
		/>
	<path fill="#FFFFFF" d="M2.9,7.2c0,0.2,0.2,0.4,0.5,0.4h6.8c0.3,0,0.5-0.2,0.5-0.4l0,0c0-0.2-0.2-0.4-0.5-0.4H3.4
		C3.1,6.8,2.9,7,2.9,7.2L2.9,7.2z"/>
	<path fill="#FFFFFF" d="M2.9,9.4c0,0.2,0.2,0.4,0.5,0.4h6.8c0.3,0,0.5-0.2,0.5-0.4l0,0c0-0.2-0.2-0.4-0.5-0.4H3.4
		C3.1,9,2.9,9.2,2.9,9.4L2.9,9.4z"/>
	<path fill="#FFFFFF" d="M2.9,11.5c0,0.2,0.2,0.4,0.5,0.4h6.8c0.3,0,0.5-0.2,0.5-0.4l0,0c0-0.2-0.2-0.4-0.5-0.4H3.4
		C3.1,11.1,2.9,11.2,2.9,11.5L2.9,11.5z"/>
	<path fill="#FFFFFF" d="M2.8,13.6c0,0.2,0.2,0.4,0.5,0.4h6.8c0.3,0,0.5-0.2,0.5-0.4l0,0c0-0.2-0.2-0.4-0.5-0.4H3.3
		C3.1,13.2,2.8,13.4,2.8,13.6L2.8,13.6z"/>
</g>
</svg>
