<?xml version="1.0" encoding="utf-8"?>
<!-- Generator: Adobe Illustrator 17.1.0, SVG Export Plug-In . SVG Version: 6.00 Build 0)  -->
<!DOCTYPE svg PUBLIC "-//W3C//DTD SVG 1.1//EN" "http://www.w3.org/Graphics/SVG/1.1/DTD/svg11.dtd">
<svg version="1.1" id="Layer_1" xmlns="http://www.w3.org/2000/svg" xmlns:xlink="http://www.w3.org/1999/xlink" x="0px" y="0px"
	 viewBox="0 0 122.5 15.3" enable-background="new 0 0 122.5 15.3" xml:space="preserve">
<polygon opacity="0.8" fill="#000924" points="112.6,0 11,0 0,15.3 122.5,15.3 "/>
<g>
	<g>
		<path fill="#FFFFFF" d="M23.2,3.9h1.6v7.5h-1.6V3.9z"/>
		<path fill="#FFFFFF" d="M26.7,3.9h1.5l3.5,4.6V3.9h1.6v7.5H32l-3.6-4.8v4.8h-1.6V3.9z"/>
		<path fill="#FFFFFF" d="M35.2,3.9h5.7v1.5h-4V7h3.6v1.5h-3.6v2.9h-1.6V3.9z"/>
		<path fill="#FFFFFF" d="M41.9,7.6c0-2.1,1.7-3.9,4-3.9c2.3,0,4,1.7,4,3.9c0,2.1-1.7,3.9-4,3.9C43.5,11.5,41.9,9.8,41.9,7.6z
			 M48.1,7.6c0-1.3-0.9-2.3-2.3-2.3c-1.3,0-2.2,1-2.2,2.3c0,1.3,0.9,2.3,2.3,2.3C47.2,10,48.1,8.9,48.1,7.6z"/>
		<path fill="#FFFFFF" d="M51.3,3.9h3.4c1,0,1.7,0.3,2.2,0.8c0.4,0.4,0.6,1,0.6,1.7c0,1.2-0.7,2-1.6,2.3l1.8,2.7h-1.9L54.2,9h-1.3
			v2.4h-1.6V3.9z M54.6,7.5c0.8,0,1.3-0.4,1.3-1.1c0-0.7-0.5-1.1-1.3-1.1h-1.6v2.1H54.6z"/>
		<path fill="#FFFFFF" d="M59,3.9h1.8l2,3.2l2-3.2h1.8v7.5h-1.6V6.5l-2.1,3.2h0l-2.1-3.2v4.8H59V3.9z"/>
		<path fill="#FFFFFF" d="M70.8,3.8h1.5l3.2,7.5h-1.7l-0.7-1.7H70l-0.7,1.7h-1.7L70.8,3.8z M72.5,8.2l-1-2.4l-1,2.4H72.5z"/>
		<path fill="#FFFFFF" d="M77.5,5.4h-2.3V3.9h6.2v1.5h-2.3v6h-1.6V5.4z"/>
		<path fill="#FFFFFF" d="M82.7,3.9h1.6v7.5h-1.6V3.9z"/>
		<path fill="#FFFFFF" d="M85.9,7.6c0-2.1,1.7-3.9,4-3.9c2.3,0,4,1.7,4,3.9c0,2.1-1.7,3.9-4,3.9C87.6,11.5,85.9,9.8,85.9,7.6z
			 M92.1,7.6c0-1.3-0.9-2.3-2.3-2.3c-1.3,0-2.2,1-2.2,2.3c0,1.3,0.9,2.3,2.3,2.3C91.2,10,92.1,8.9,92.1,7.6z"/>
		<path fill="#FFFFFF" d="M95.3,3.9h1.5l3.5,4.6V3.9h1.6v7.5h-1.4l-3.6-4.8v4.8h-1.6V3.9z"/>
	</g>
</g>
</svg>
