<?xml version="1.0" encoding="utf-8"?>
<!-- Generator: Adobe Illustrator 17.1.0, SVG Export Plug-In . SVG Version: 6.00 Build 0)  -->
<!DOCTYPE svg PUBLIC "-//W3C//DTD SVG 1.1//EN" "http://www.w3.org/Graphics/SVG/1.1/DTD/svg11.dtd">
<svg version="1.1" id="Layer_1" xmlns="http://www.w3.org/2000/svg" xmlns:xlink="http://www.w3.org/1999/xlink" x="0px" y="0px"
	 viewBox="0 0 230.5 246" enable-background="new 0 0 230.5 246" xml:space="preserve">
<g>
	<g>
		<g>
			<path fill="#001937" d="M117.2,29.6c0,0.5-0.4,1-1,1h-2c-0.6,0-1-0.5-1-1V16.5c0-0.5,0.4-1,1-1h2c0.6,0,1,0.5,1,1V29.6z"/>
		</g>
		<g>
			<path fill="#001937" d="M111.4,29.6c0,0.5-0.4,1-0.9,1.1l-2,0.1c-0.5,0-1-0.4-1.1-0.9l-0.8-13.1c0-0.5,0.4-1,0.9-1.1l2-0.1
				c0.5,0,1,0.4,1.1,0.9L111.4,29.6z"/>
		</g>
		<g>
			<path fill="#001937" d="M105.5,30.1c0.1,0.5-0.3,1-0.9,1.1l-2,0.3c-0.5,0.1-1-0.3-1.1-0.9l-1.6-13c-0.1-0.5,0.3-1,0.9-1.1l2-0.3
				c0.5-0.1,1,0.3,1.1,0.9L105.5,30.1z"/>
		</g>
		<g>
			<path fill="#001937" d="M99.7,30.9c0.1,0.5-0.3,1.1-0.8,1.2l-2,0.4c-0.5,0.1-1.1-0.3-1.2-0.8l-2.5-12.9c-0.1-0.5,0.3-1.1,0.8-1.2
				l2-0.4c0.5-0.1,1.1,0.3,1.2,0.8L99.7,30.9z"/>
		</g>
		<g>
			<path fill="#001937" d="M93.9,32c0.1,0.5-0.2,1.1-0.7,1.2l-2,0.5c-0.5,0.1-1.1-0.2-1.2-0.7l-3.3-12.7c-0.1-0.5,0.2-1.1,0.7-1.2
				l2-0.5c0.5-0.1,1.1,0.2,1.2,0.7L93.9,32z"/>
		</g>
		<g>
			<path fill="#001937" d="M88.3,33.5c0.2,0.5-0.1,1.1-0.6,1.3l-1.9,0.6c-0.5,0.2-1.1-0.1-1.3-0.6l-4-12.4c-0.2-0.5,0.1-1.1,0.6-1.3
				l1.9-0.6c0.5-0.2,1.1,0.1,1.3,0.6L88.3,33.5z"/>
		</g>
		<g>
			<path fill="#001937" d="M82.7,35.4c0.2,0.5-0.1,1.1-0.6,1.3l-1.9,0.7c-0.5,0.2-1.1-0.1-1.3-0.6l-4.8-12.2
				c-0.2-0.5,0.1-1.1,0.6-1.3l1.9-0.7c0.5-0.2,1.1,0.1,1.3,0.6L82.7,35.4z"/>
		</g>
		<g>
			<path fill="#001937" d="M77.3,37.6c0.2,0.5,0,1.1-0.5,1.3L75,39.8c-0.5,0.2-1.1,0-1.3-0.5l-5.6-11.8c-0.2-0.5,0-1.1,0.5-1.3
				l1.8-0.9c0.5-0.2,1.1,0,1.3,0.5L77.3,37.6z"/>
		</g>
		<g>
			<path fill="#001937" d="M72,40.2c0.3,0.5,0.1,1.1-0.4,1.4l-1.8,1c-0.5,0.3-1.1,0.1-1.4-0.4l-6.3-11.5c-0.3-0.5-0.1-1.1,0.4-1.4
				l1.8-1c0.5-0.3,1.1-0.1,1.4,0.4L72,40.2z"/>
		</g>
		<g>
			<path fill="#001937" d="M66.9,43.1c0.3,0.5,0.2,1.1-0.3,1.4l-1.7,1.1c-0.5,0.3-1.1,0.2-1.4-0.3l-7-11.1c-0.3-0.5-0.2-1.1,0.3-1.4
				l1.7-1.1c0.5-0.3,1.1-0.2,1.4,0.3L66.9,43.1z"/>
		</g>
		<g>
			<path fill="#001937" d="M62,46.2c0.3,0.4,0.2,1.1-0.2,1.4l-1.6,1.2c-0.4,0.3-1.1,0.2-1.4-0.2L51,38c-0.3-0.4-0.2-1.1,0.2-1.4
				l1.6-1.2c0.4-0.3,1.1-0.2,1.4,0.2L62,46.2z"/>
		</g>
		<g>
			<path fill="#001937" d="M57.2,49.7c0.4,0.4,0.3,1.1-0.1,1.4l-1.6,1.3c-0.4,0.4-1.1,0.3-1.4-0.1l-8.3-10.1
				c-0.4-0.4-0.3-1.1,0.1-1.4l1.6-1.3c0.4-0.4,1.1-0.3,1.4,0.1L57.2,49.7z"/>
		</g>
		<g>
			<path fill="#001937" d="M52.8,53.5c0.4,0.4,0.4,1,0,1.4l-1.5,1.4c-0.4,0.4-1,0.4-1.4,0l-9-9.5c-0.4-0.4-0.4-1,0-1.4l1.5-1.4
				c0.4-0.4,1-0.4,1.4,0L52.8,53.5z"/>
		</g>
		<g>
			<path fill="#001937" d="M48.5,57.6c0.4,0.4,0.4,1,0,1.4l-1.4,1.5c-0.4,0.4-1,0.4-1.4,0l-9.5-9c-0.4-0.4-0.4-1,0-1.4l1.4-1.5
				c0.4-0.4,1-0.4,1.4,0L48.5,57.6z"/>
		</g>
		<g>
			<path fill="#001937" d="M44.5,61.9c0.4,0.4,0.5,1,0.1,1.4l-1.3,1.6c-0.4,0.4-1,0.5-1.4,0.1l-10.1-8.3c-0.4-0.4-0.5-1-0.1-1.4
				l1.3-1.6c0.4-0.4,1-0.5,1.4-0.1L44.5,61.9z"/>
		</g>
		<g>
			<path fill="#001937" d="M40.8,66.5c0.4,0.3,0.5,1,0.2,1.4l-1.2,1.6c-0.3,0.4-1,0.5-1.4,0.2L27.9,62c-0.4-0.3-0.5-1-0.2-1.4
				l1.2-1.6c0.3-0.4,1-0.5,1.4-0.2L40.8,66.5z"/>
		</g>
		<g>
			<path fill="#001937" d="M37.4,71.2c0.5,0.3,0.6,0.9,0.3,1.4l-1.1,1.7c-0.3,0.5-0.9,0.6-1.4,0.3l-11.1-7c-0.5-0.3-0.6-0.9-0.3-1.4
				l1.1-1.7c0.3-0.5,0.9-0.6,1.4-0.3L37.4,71.2z"/>
		</g>
		<g>
			<path fill="#001937" d="M34.3,76.2c0.5,0.3,0.7,0.9,0.4,1.4l-1,1.8c-0.3,0.5-0.9,0.7-1.4,0.4l-11.5-6.3c-0.5-0.3-0.7-0.9-0.4-1.4
				l1-1.8c0.3-0.5,0.9-0.7,1.4-0.4L34.3,76.2z"/>
		</g>
		<g>
			<path fill="#001937" d="M31.6,81.4c0.5,0.2,0.7,0.8,0.5,1.3l-0.9,1.8c-0.2,0.5-0.8,0.7-1.3,0.5L18,79.5c-0.5-0.2-0.7-0.8-0.5-1.3
				l0.9-1.8c0.2-0.5,0.8-0.7,1.3-0.5L31.6,81.4z"/>
		</g>
		<g>
			<path fill="#001937" d="M29.1,86.7c0.5,0.2,0.8,0.8,0.6,1.3l-0.7,1.9c-0.2,0.5-0.8,0.8-1.3,0.6l-12.2-4.8
				c-0.5-0.2-0.8-0.8-0.6-1.3l0.7-1.9c0.2-0.5,0.8-0.8,1.3-0.6L29.1,86.7z"/>
		</g>
		<g>
			<path fill="#001937" d="M27,92.2c0.5,0.2,0.8,0.7,0.6,1.3L27,95.4c-0.2,0.5-0.7,0.8-1.3,0.6l-12.4-4c-0.5-0.2-0.8-0.7-0.6-1.3
				l0.6-1.9c0.2-0.5,0.7-0.8,1.3-0.6L27,92.2z"/>
		</g>
		<g>
			<path fill="#001937" d="M25.3,97.8c0.5,0.1,0.9,0.7,0.7,1.2l-0.5,2c-0.1,0.5-0.7,0.9-1.2,0.7l-12.7-3.3c-0.5-0.1-0.9-0.7-0.7-1.2
				l0.5-2c0.1-0.5,0.7-0.9,1.2-0.7L25.3,97.8z"/>
		</g>
		<g>
			<path fill="#001937" d="M23.8,103.5c0.5,0.1,0.9,0.6,0.8,1.2l-0.4,2c-0.1,0.5-0.6,0.9-1.2,0.8L10.2,105c-0.5-0.1-0.9-0.6-0.8-1.2
				l0.4-2c0.1-0.5,0.6-0.9,1.2-0.8L23.8,103.5z"/>
		</g>
		<g>
			<path fill="#001937" d="M22.8,109.3c0.5,0.1,0.9,0.6,0.9,1.1l-0.3,2c-0.1,0.5-0.6,0.9-1.1,0.9l-13-1.6c-0.5-0.1-0.9-0.6-0.9-1.1
				l0.3-2c0.1-0.5,0.6-0.9,1.1-0.9L22.8,109.3z"/>
		</g>
		<g>
			<path fill="#001937" d="M22.1,115.1c0.5,0,1,0.5,0.9,1.1l-0.1,2c0,0.5-0.5,1-1.1,0.9l-13.1-0.8c-0.5,0-1-0.5-0.9-1.1l0.1-2
				c0-0.5,0.5-1,1.1-0.9L22.1,115.1z"/>
		</g>
		<g>
			<path fill="#001937" d="M21.8,121c0.6,0,1,0.4,1,1v2c0,0.6-0.5,1-1,1H8.7c-0.6,0-1-0.4-1-1v-2c0-0.6,0.5-1,1-1H21.8z"/>
		</g>
		<g>
			<path fill="#001937" d="M21.9,126.9c0.5,0,1,0.4,1.1,0.9l0.1,2c0,0.5-0.4,1-0.9,1.1l-13.1,0.8c-0.5,0-1-0.4-1.1-0.9l-0.1-2
				c0-0.5,0.4-1,0.9-1.1L21.9,126.9z"/>
		</g>
		<g>
			<path fill="#001937" d="M22.3,132.7c0.5-0.1,1,0.3,1.1,0.9l0.3,2c0.1,0.5-0.3,1-0.9,1.1l-13,1.6c-0.5,0.1-1-0.3-1.1-0.9l-0.3-2
				c-0.1-0.5,0.3-1,0.9-1.1L22.3,132.7z"/>
		</g>
		<g>
			<path fill="#001937" d="M23.1,138.5c0.5-0.1,1.1,0.3,1.2,0.8l0.4,2c0.1,0.5-0.3,1.1-0.8,1.2L11,144.9c-0.5,0.1-1.1-0.3-1.2-0.8
				l-0.4-2c-0.1-0.5,0.3-1.1,0.8-1.2L23.1,138.5z"/>
		</g>
		<g>
			<path fill="#001937" d="M24.3,144.3c0.5-0.1,1.1,0.2,1.2,0.7l0.5,2c0.1,0.5-0.2,1.1-0.7,1.2l-12.7,3.3c-0.5,0.1-1.1-0.2-1.2-0.7
				l-0.5-2c-0.1-0.5,0.2-1.1,0.7-1.2L24.3,144.3z"/>
		</g>
		<g>
			<path fill="#001937" d="M25.8,150c0.5-0.2,1.1,0.1,1.3,0.6l0.6,1.9c0.2,0.5-0.1,1.1-0.6,1.3l-12.4,4c-0.5,0.2-1.1-0.1-1.3-0.6
				l-0.6-1.9c-0.2-0.5,0.1-1.1,0.6-1.3L25.8,150z"/>
		</g>
		<g>
			<path fill="#001937" d="M27.6,155.5c0.5-0.2,1.1,0.1,1.3,0.6l0.7,1.9c0.2,0.5-0.1,1.1-0.6,1.3l-12.2,4.8
				c-0.5,0.2-1.1-0.1-1.3-0.6l-0.7-1.9c-0.2-0.5,0.1-1.1,0.6-1.3L27.6,155.5z"/>
		</g>
		<g>
			<path fill="#001937" d="M29.9,161c0.5-0.2,1.1,0,1.3,0.5l0.9,1.8c0.2,0.5,0,1.1-0.5,1.3l-11.8,5.6c-0.5,0.2-1.1,0-1.3-0.5
				l-0.9-1.8c-0.2-0.5,0-1.1,0.5-1.3L29.9,161z"/>
		</g>
		<g>
			<path fill="#001937" d="M32.4,166.2c0.5-0.3,1.1-0.1,1.4,0.4l1,1.8c0.3,0.5,0.1,1.1-0.4,1.4l-11.5,6.3c-0.5,0.3-1.1,0.1-1.4-0.4
				l-1-1.8c-0.3-0.5-0.1-1.1,0.4-1.4L32.4,166.2z"/>
		</g>
		<g>
			<path fill="#001937" d="M35.3,171.4c0.5-0.3,1.1-0.2,1.4,0.3l1.1,1.7c0.3,0.5,0.2,1.1-0.3,1.4l-11.1,7c-0.5,0.3-1.1,0.2-1.4-0.3
				l-1.1-1.7c-0.3-0.5-0.2-1.1,0.3-1.4L35.3,171.4z"/>
		</g>
		<g>
			<path fill="#001937" d="M38.5,176.3c0.4-0.3,1.1-0.2,1.4,0.2l1.2,1.6c0.3,0.4,0.2,1.1-0.2,1.4l-10.6,7.7
				c-0.4,0.3-1.1,0.2-1.4-0.2l-1.2-1.6c-0.3-0.4-0.2-1.1,0.2-1.4L38.5,176.3z"/>
		</g>
		<g>
			<path fill="#001937" d="M42,181c0.4-0.4,1.1-0.3,1.4,0.1l1.3,1.6c0.4,0.4,0.3,1.1-0.1,1.4l-10.1,8.3c-0.4,0.4-1.1,0.3-1.4-0.1
				l-1.3-1.6c-0.4-0.4-0.3-1.1,0.1-1.4L42,181z"/>
		</g>
		<g>
			<path fill="#001937" d="M45.8,185.5c0.4-0.4,1-0.4,1.4,0l1.4,1.5c0.4,0.4,0.4,1,0,1.4l-9.5,9c-0.4,0.4-1,0.4-1.4,0l-1.4-1.5
				c-0.4-0.4-0.4-1,0-1.4L45.8,185.5z"/>
		</g>
		<g>
			<path fill="#001937" d="M49.8,189.7c0.4-0.4,1-0.4,1.4,0l1.5,1.4c0.4,0.4,0.4,1,0,1.4l-9,9.5c-0.4,0.4-1,0.4-1.4,0l-1.5-1.4
				c-0.4-0.4-0.4-1,0-1.4L49.8,189.7z"/>
		</g>
		<g>
			<path fill="#001937" d="M54.1,193.7c0.4-0.4,1-0.5,1.4-0.1l1.6,1.3c0.4,0.4,0.5,1,0.1,1.4l-8.3,10.1c-0.4,0.4-1,0.5-1.4,0.1
				l-1.6-1.3c-0.4-0.4-0.5-1-0.1-1.4L54.1,193.7z"/>
		</g>
		<g>
			<path fill="#001937" d="M58.7,197.4c0.3-0.4,1-0.5,1.4-0.2l1.6,1.2c0.4,0.3,0.5,1,0.2,1.4l-7.7,10.6c-0.3,0.4-1,0.5-1.4,0.2
				l-1.6-1.2c-0.4-0.3-0.5-1-0.2-1.4L58.7,197.4z"/>
		</g>
		<g>
			<path fill="#001937" d="M63.5,200.8c0.3-0.5,0.9-0.6,1.4-0.3l1.7,1.1c0.5,0.3,0.6,0.9,0.3,1.4l-7,11.1c-0.3,0.5-0.9,0.6-1.4,0.3
				l-1.7-1.1c-0.5-0.3-0.6-0.9-0.3-1.4L63.5,200.8z"/>
		</g>
		<g>
			<path fill="#001937" d="M68.5,203.9c0.3-0.5,0.9-0.7,1.4-0.4l1.8,1c0.5,0.3,0.7,0.9,0.4,1.4l-6.3,11.5c-0.3,0.5-0.9,0.7-1.4,0.4
				l-1.8-1c-0.5-0.3-0.7-0.9-0.4-1.4L68.5,203.9z"/>
		</g>
		<g>
			<path fill="#001937" d="M73.6,206.7c0.2-0.5,0.8-0.7,1.3-0.5l1.8,0.9c0.5,0.2,0.7,0.8,0.5,1.3l-5.6,11.8
				c-0.2,0.5-0.8,0.7-1.3,0.5l-1.8-0.9c-0.5-0.2-0.7-0.8-0.5-1.3L73.6,206.7z"/>
		</g>
		<g>
			<path fill="#001937" d="M79,209.1c0.2-0.5,0.8-0.8,1.3-0.6l1.9,0.7c0.5,0.2,0.8,0.8,0.6,1.3l-4.8,12.2c-0.2,0.5-0.8,0.8-1.3,0.6
				l-1.9-0.7c-0.5-0.2-0.8-0.8-0.6-1.3L79,209.1z"/>
		</g>
		<g>
			<path fill="#001937" d="M84.5,211.2c0.2-0.5,0.7-0.8,1.3-0.6l1.9,0.6c0.5,0.2,0.8,0.7,0.6,1.3l-4,12.4c-0.2,0.5-0.7,0.8-1.3,0.6
				l-1.9-0.6c-0.5-0.2-0.8-0.7-0.6-1.3L84.5,211.2z"/>
		</g>
		<g>
			<path fill="#001937" d="M90.1,213c0.1-0.5,0.7-0.9,1.2-0.7l2,0.5c0.5,0.1,0.9,0.7,0.7,1.2l-3.3,12.7c-0.1,0.5-0.7,0.9-1.2,0.7
				l-2-0.5c-0.5-0.1-0.9-0.7-0.7-1.2L90.1,213z"/>
		</g>
		<g>
			<path fill="#001937" d="M95.7,214.4c0.1-0.5,0.6-0.9,1.2-0.8l2,0.4c0.5,0.1,0.9,0.6,0.8,1.2L97.2,228c-0.1,0.5-0.6,0.9-1.2,0.8
				l-2-0.4c-0.5-0.1-0.9-0.6-0.8-1.2L95.7,214.4z"/>
		</g>
		<g>
			<path fill="#001937" d="M101.5,215.4c0.1-0.5,0.6-0.9,1.1-0.9l2,0.3c0.5,0.1,0.9,0.6,0.9,1.1l-1.6,13c-0.1,0.5-0.6,0.9-1.1,0.9
				l-2-0.3c-0.5-0.1-0.9-0.6-0.9-1.1L101.5,215.4z"/>
		</g>
		<g>
			<path fill="#001937" d="M107.4,216.1c0-0.5,0.5-1,1.1-0.9l2,0.1c0.5,0,1,0.5,0.9,1.1l-0.8,13.1c0,0.5-0.5,1-1.1,0.9l-2-0.1
				c-0.5,0-1-0.5-0.9-1.1L107.4,216.1z"/>
		</g>
		<g>
			<path fill="#001937" d="M113.2,216.4c0-0.6,0.4-1,1-1h2c0.6,0,1,0.4,1,1v13.1c0,0.6-0.4,1-1,1h-2c-0.6,0-1-0.4-1-1V216.4z"/>
		</g>
		<g>
			<path fill="#001937" d="M119.1,216.4c0-0.5,0.4-1,0.9-1.1l2-0.1c0.5,0,1,0.4,1.1,0.9l0.8,13.1c0,0.5-0.4,1-0.9,1.1l-2,0.1
				c-0.5,0-1-0.4-1.1-0.9L119.1,216.4z"/>
		</g>
		<g>
			<path fill="#001937" d="M124.9,215.9c-0.1-0.5,0.3-1,0.9-1.1l2-0.3c0.5-0.1,1,0.3,1.1,0.9l1.6,13c0.1,0.5-0.3,1-0.9,1.1l-2,0.3
				c-0.5,0.1-1-0.3-1.1-0.9L124.9,215.9z"/>
		</g>
		<g>
			<path fill="#001937" d="M130.8,215.1c-0.1-0.5,0.3-1.1,0.8-1.2l2-0.4c0.5-0.1,1.1,0.3,1.2,0.8l2.5,12.9c0.1,0.5-0.3,1.1-0.8,1.2
				l-2,0.4c-0.5,0.1-1.1-0.3-1.2-0.8L130.8,215.1z"/>
		</g>
		<g>
			<path fill="#001937" d="M136.5,214c-0.1-0.5,0.2-1.1,0.7-1.2l2-0.5c0.5-0.1,1.1,0.2,1.2,0.7l3.3,12.7c0.1,0.5-0.2,1.1-0.7,1.2
				l-2,0.5c-0.5,0.1-1.1-0.2-1.2-0.7L136.5,214z"/>
		</g>
		<g>
			<path fill="#001937" d="M142.2,212.5c-0.2-0.5,0.1-1.1,0.6-1.3l1.9-0.6c0.5-0.2,1.1,0.1,1.3,0.6l4,12.4c0.2,0.5-0.1,1.1-0.6,1.3
				l-1.9,0.6c-0.5,0.2-1.1-0.1-1.3-0.6L142.2,212.5z"/>
		</g>
		<g>
			<path fill="#001937" d="M147.7,210.6c-0.2-0.5,0.1-1.1,0.6-1.3l1.9-0.7c0.5-0.2,1.1,0.1,1.3,0.6l4.8,12.2
				c0.2,0.5-0.1,1.1-0.6,1.3l-1.9,0.7c-0.5,0.2-1.1-0.1-1.3-0.6L147.7,210.6z"/>
		</g>
		<g>
			<path fill="#001937" d="M153.2,208.4c-0.2-0.5,0-1.1,0.5-1.3l1.8-0.9c0.5-0.2,1.1,0,1.3,0.5l5.6,11.8c0.2,0.5,0,1.1-0.5,1.3
				l-1.8,0.9c-0.5,0.2-1.1,0-1.3-0.5L153.2,208.4z"/>
		</g>
		<g>
			<path fill="#001937" d="M158.5,205.8c-0.3-0.5-0.1-1.1,0.4-1.4l1.8-1c0.5-0.3,1.1-0.1,1.4,0.4l6.3,11.5c0.3,0.5,0.1,1.1-0.4,1.4
				l-1.8,1c-0.5,0.3-1.1,0.1-1.4-0.4L158.5,205.8z"/>
		</g>
		<g>
			<path fill="#001937" d="M163.6,202.9c-0.3-0.5-0.2-1.1,0.3-1.4l1.7-1.1c0.5-0.3,1.1-0.2,1.4,0.3l7,11.1c0.3,0.5,0.2,1.1-0.3,1.4
				l-1.7,1.1c-0.5,0.3-1.1,0.2-1.4-0.3L163.6,202.9z"/>
		</g>
		<g>
			<path fill="#001937" d="M168.5,199.8c-0.3-0.4-0.2-1.1,0.2-1.4l1.6-1.2c0.4-0.3,1.1-0.2,1.4,0.2l7.7,10.6
				c0.3,0.4,0.2,1.1-0.2,1.4l-1.6,1.2c-0.4,0.3-1.1,0.2-1.4-0.2L168.5,199.8z"/>
		</g>
		<g>
			<path fill="#001937" d="M173.2,196.3c-0.4-0.4-0.3-1.1,0.1-1.4l1.6-1.3c0.4-0.4,1.1-0.3,1.4,0.1l8.3,10.1
				c0.4,0.4,0.3,1.1-0.1,1.4l-1.6,1.3c-0.4,0.4-1.1,0.3-1.4-0.1L173.2,196.3z"/>
		</g>
		<g>
			<path fill="#001937" d="M177.7,192.5c-0.4-0.4-0.4-1,0-1.4l1.5-1.4c0.4-0.4,1-0.4,1.4,0l9,9.5c0.4,0.4,0.4,1,0,1.4l-1.5,1.4
				c-0.4,0.4-1,0.4-1.4,0L177.7,192.5z"/>
		</g>
		<g>
			<path fill="#001937" d="M181.9,188.4c-0.4-0.4-0.4-1,0-1.4l1.4-1.5c0.4-0.4,1-0.4,1.4,0l9.5,9c0.4,0.4,0.4,1,0,1.4l-1.4,1.5
				c-0.4,0.4-1,0.4-1.4,0L181.9,188.4z"/>
		</g>
		<g>
			<path fill="#001937" d="M185.9,184.1c-0.4-0.4-0.5-1-0.1-1.4l1.3-1.6c0.4-0.4,1-0.5,1.4-0.1l10.1,8.3c0.4,0.4,0.5,1,0.1,1.4
				l-1.3,1.6c-0.4,0.4-1,0.5-1.4,0.1L185.9,184.1z"/>
		</g>
		<g>
			<path fill="#001937" d="M189.6,179.5c-0.4-0.3-0.5-1-0.2-1.4l1.2-1.6c0.3-0.4,1-0.5,1.4-0.2l10.6,7.7c0.4,0.3,0.5,1,0.2,1.4
				l-1.2,1.6c-0.3,0.4-1,0.5-1.4,0.2L189.6,179.5z"/>
		</g>
		<g>
			<path fill="#001937" d="M193,174.8c-0.5-0.3-0.6-0.9-0.3-1.4l1.1-1.7c0.3-0.5,0.9-0.6,1.4-0.3l11.1,7c0.5,0.3,0.6,0.9,0.3,1.4
				l-1.1,1.7c-0.3,0.5-0.9,0.6-1.4,0.3L193,174.8z"/>
		</g>
		<g>
			<path fill="#001937" d="M196.1,169.8c-0.5-0.3-0.7-0.9-0.4-1.4l1-1.8c0.3-0.5,0.9-0.7,1.4-0.4l11.5,6.3c0.5,0.3,0.7,0.9,0.4,1.4
				l-1,1.8c-0.3,0.5-0.9,0.7-1.4,0.4L196.1,169.8z"/>
		</g>
		<g>
			<path fill="#001937" d="M198.9,164.6c-0.5-0.2-0.7-0.8-0.5-1.3l0.9-1.8c0.2-0.5,0.8-0.7,1.3-0.5l11.8,5.6
				c0.5,0.2,0.7,0.8,0.5,1.3l-0.9,1.8c-0.2,0.5-0.8,0.7-1.3,0.5L198.9,164.6z"/>
		</g>
		<g>
			<path fill="#001937" d="M201.3,159.3c-0.5-0.2-0.8-0.8-0.6-1.3l0.7-1.9c0.2-0.5,0.8-0.8,1.3-0.6l12.2,4.8
				c0.5,0.2,0.8,0.8,0.6,1.3l-0.7,1.9c-0.2,0.5-0.8,0.8-1.3,0.6L201.3,159.3z"/>
		</g>
		<g>
			<path fill="#001937" d="M203.4,153.8c-0.5-0.2-0.8-0.7-0.6-1.3l0.6-1.9c0.2-0.5,0.7-0.8,1.3-0.6l12.4,4c0.5,0.2,0.8,0.7,0.6,1.3
				l-0.6,1.9c-0.2,0.5-0.7,0.8-1.3,0.6L203.4,153.8z"/>
		</g>
		<g>
			<path fill="#001937" d="M205.2,148.2c-0.5-0.1-0.9-0.7-0.7-1.2l0.5-2c0.1-0.5,0.7-0.9,1.2-0.7l12.7,3.3c0.5,0.1,0.9,0.7,0.7,1.2
				l-0.5,2c-0.1,0.5-0.7,0.9-1.2,0.7L205.2,148.2z"/>
		</g>
		<g>
			<path fill="#001937" d="M206.6,142.5c-0.5-0.1-0.9-0.6-0.8-1.2l0.4-2c0.1-0.5,0.6-0.9,1.2-0.8l12.9,2.5c0.5,0.1,0.9,0.6,0.8,1.2
				l-0.4,2c-0.1,0.5-0.6,0.9-1.2,0.8L206.6,142.5z"/>
		</g>
		<g>
			<path fill="#001937" d="M207.7,136.7c-0.5-0.1-0.9-0.6-0.9-1.1l0.3-2c0.1-0.5,0.6-0.9,1.1-0.9l13,1.6c0.5,0.1,0.9,0.6,0.9,1.1
				l-0.3,2c-0.1,0.5-0.6,0.9-1.1,0.9L207.7,136.7z"/>
		</g>
		<g>
			<path fill="#001937" d="M208.3,130.9c-0.5,0-1-0.5-0.9-1.1l0.1-2c0-0.5,0.5-1,1.1-0.9l13.1,0.8c0.5,0,1,0.5,0.9,1.1l-0.1,2
				c0,0.5-0.5,1-1.1,0.9L208.3,130.9z"/>
		</g>
		<g>
			<path fill="#001937" d="M208.6,125c-0.6,0-1-0.4-1-1v-2c0-0.6,0.4-1,1-1h13.1c0.6,0,1,0.4,1,1v2c0,0.6-0.4,1-1,1H208.6z"/>
		</g>
		<g>
			<path fill="#001937" d="M208.6,119.1c-0.5,0-1-0.4-1.1-0.9l-0.1-2c0-0.5,0.4-1,0.9-1.1l13.1-0.8c0.5,0,1,0.4,1.1,0.9l0.1,2
				c0,0.5-0.4,1-0.9,1.1L208.6,119.1z"/>
		</g>
		<g>
			<path fill="#001937" d="M208.2,113.3c-0.5,0.1-1-0.3-1.1-0.9l-0.3-2c-0.1-0.5,0.3-1,0.9-1.1l13-1.6c0.5-0.1,1,0.3,1.1,0.9l0.3,2
				c0.1,0.5-0.3,1-0.9,1.1L208.2,113.3z"/>
		</g>
		<g>
			<path fill="#001937" d="M207.4,107.5c-0.5,0.1-1.1-0.3-1.2-0.8l-0.4-2c-0.1-0.5,0.3-1.1,0.8-1.2l12.9-2.5
				c0.5-0.1,1.1,0.3,1.2,0.8l0.4,2c0.1,0.5-0.3,1.1-0.8,1.2L207.4,107.5z"/>
		</g>
		<g>
			<path fill="#001937" d="M206.2,101.7c-0.5,0.1-1.1-0.2-1.2-0.7l-0.5-2c-0.1-0.5,0.2-1.1,0.7-1.2l12.7-3.3
				c0.5-0.1,1.1,0.2,1.2,0.7l0.5,2c0.1,0.5-0.2,1.1-0.7,1.2L206.2,101.7z"/>
		</g>
		<g>
			<path fill="#001937" d="M204.7,96c-0.5,0.2-1.1-0.1-1.3-0.6l-0.6-1.9c-0.2-0.5,0.1-1.1,0.6-1.3l12.4-4c0.5-0.2,1.1,0.1,1.3,0.6
				l0.6,1.9c0.2,0.5-0.1,1.1-0.6,1.3L204.7,96z"/>
		</g>
		<g>
			<path fill="#001937" d="M202.8,90.5c-0.5,0.2-1.1-0.1-1.3-0.6l-0.7-1.9c-0.2-0.5,0.1-1.1,0.6-1.3l12.2-4.8
				c0.5-0.2,1.1,0.1,1.3,0.6l0.7,1.9c0.2,0.5-0.1,1.1-0.6,1.3L202.8,90.5z"/>
		</g>
		<g>
			<path fill="#001937" d="M200.6,85c-0.5,0.2-1.1,0-1.3-0.5l-0.9-1.8c-0.2-0.5,0-1.1,0.5-1.3l11.8-5.6c0.5-0.2,1.1,0,1.3,0.5
				l0.9,1.8c0.2,0.5,0,1.1-0.5,1.3L200.6,85z"/>
		</g>
		<g>
			<path fill="#001937" d="M198.1,79.8c-0.5,0.3-1.1,0.1-1.4-0.4l-1-1.8c-0.3-0.5-0.1-1.1,0.4-1.4l11.5-6.3c0.5-0.3,1.1-0.1,1.4,0.4
				l1,1.8c0.3,0.5,0.1,1.1-0.4,1.4L198.1,79.8z"/>
		</g>
		<g>
			<path fill="#001937" d="M195.2,74.6c-0.5,0.3-1.1,0.2-1.4-0.3l-1.1-1.7c-0.3-0.5-0.2-1.1,0.3-1.4l11.1-7c0.5-0.3,1.1-0.2,1.4,0.3
				l1.1,1.7c0.3,0.5,0.2,1.1-0.3,1.4L195.2,74.6z"/>
		</g>
		<g>
			<path fill="#001937" d="M192,69.7c-0.4,0.3-1.1,0.2-1.4-0.2l-1.2-1.6c-0.3-0.4-0.2-1.1,0.2-1.4l10.6-7.7c0.4-0.3,1.1-0.2,1.4,0.2
				l1.2,1.6c0.3,0.4,0.2,1.1-0.2,1.4L192,69.7z"/>
		</g>
		<g>
			<path fill="#001937" d="M188.5,65c-0.4,0.4-1.1,0.3-1.4-0.1l-1.3-1.6c-0.4-0.4-0.3-1.1,0.1-1.4l10.1-8.3c0.4-0.4,1.1-0.3,1.4,0.1
				l1.3,1.6c0.4,0.4,0.3,1.1-0.1,1.4L188.5,65z"/>
		</g>
		<g>
			<path fill="#001937" d="M184.7,60.5c-0.4,0.4-1,0.4-1.4,0l-1.4-1.5c-0.4-0.4-0.4-1,0-1.4l9.5-9c0.4-0.4,1-0.4,1.4,0l1.4,1.5
				c0.4,0.4,0.4,1,0,1.4L184.7,60.5z"/>
		</g>
		<g>
			<path fill="#001937" d="M180.6,56.3c-0.4,0.4-1,0.4-1.4,0l-1.5-1.4c-0.4-0.4-0.4-1,0-1.4l9-9.5c0.4-0.4,1-0.4,1.4,0l1.5,1.4
				c0.4,0.4,0.4,1,0,1.4L180.6,56.3z"/>
		</g>
		<g>
			<path fill="#001937" d="M176.3,52.3c-0.4,0.4-1,0.5-1.4,0.1l-1.6-1.3c-0.4-0.4-0.5-1-0.1-1.4l8.3-10.1c0.4-0.4,1-0.5,1.4-0.1
				l1.6,1.3c0.4,0.4,0.5,1,0.1,1.4L176.3,52.3z"/>
		</g>
		<g>
			<path fill="#001937" d="M171.8,48.6c-0.3,0.4-1,0.5-1.4,0.2l-1.6-1.2c-0.4-0.3-0.5-1-0.2-1.4l7.7-10.6c0.3-0.4,1-0.5,1.4-0.2
				l1.6,1.2c0.4,0.3,0.5,1,0.2,1.4L171.8,48.6z"/>
		</g>
		<g>
			<path fill="#001937" d="M167,45.2c-0.3,0.5-0.9,0.6-1.4,0.3l-1.7-1.1c-0.5-0.3-0.6-0.9-0.3-1.4l7-11.1c0.3-0.5,0.9-0.6,1.4-0.3
				l1.7,1.1c0.5,0.3,0.6,0.9,0.3,1.4L167,45.2z"/>
		</g>
		<g>
			<path fill="#001937" d="M162,42.1c-0.3,0.5-0.9,0.7-1.4,0.4l-1.8-1c-0.5-0.3-0.7-0.9-0.4-1.4l6.3-11.5c0.3-0.5,0.9-0.7,1.4-0.4
				l1.8,1c0.5,0.3,0.7,0.9,0.4,1.4L162,42.1z"/>
		</g>
		<g>
			<path fill="#001937" d="M156.8,39.3c-0.2,0.5-0.8,0.7-1.3,0.5l-1.8-0.9c-0.5-0.2-0.7-0.8-0.5-1.3l5.6-11.8
				c0.2-0.5,0.8-0.7,1.3-0.5l1.8,0.9c0.5,0.2,0.7,0.8,0.5,1.3L156.8,39.3z"/>
		</g>
		<g>
			<path fill="#001937" d="M151.5,36.9c-0.2,0.5-0.8,0.8-1.3,0.6l-1.9-0.7c-0.5-0.2-0.8-0.8-0.6-1.3l4.8-12.2
				c0.2-0.5,0.8-0.8,1.3-0.6l1.9,0.7c0.5,0.2,0.8,0.8,0.6,1.3L151.5,36.9z"/>
		</g>
		<g>
			<path fill="#001937" d="M146,34.8c-0.2,0.5-0.7,0.8-1.3,0.6l-1.9-0.6c-0.5-0.2-0.8-0.7-0.6-1.3l4-12.4c0.2-0.5,0.7-0.8,1.3-0.6
				l1.9,0.6c0.5,0.2,0.8,0.7,0.6,1.3L146,34.8z"/>
		</g>
		<g>
			<path fill="#001937" d="M140.4,33c-0.1,0.5-0.7,0.9-1.2,0.7l-2-0.5c-0.5-0.1-0.9-0.7-0.7-1.2l3.3-12.7c0.1-0.5,0.7-0.9,1.2-0.7
				l2,0.5c0.5,0.1,0.9,0.7,0.7,1.2L140.4,33z"/>
		</g>
		<g>
			<path fill="#001937" d="M134.7,31.6c-0.1,0.5-0.6,0.9-1.2,0.8l-2-0.4c-0.5-0.1-0.9-0.6-0.8-1.2l2.5-12.9c0.1-0.5,0.6-0.9,1.2-0.8
				l2,0.4c0.5,0.1,0.9,0.6,0.8,1.2L134.7,31.6z"/>
		</g>
		<g>
			<path fill="#001937" d="M128.9,30.6c-0.1,0.5-0.6,0.9-1.1,0.9l-2-0.3c-0.5-0.1-0.9-0.6-0.9-1.1l1.6-13c0.1-0.5,0.6-0.9,1.1-0.9
				l2,0.3c0.5,0.1,0.9,0.6,0.9,1.1L128.9,30.6z"/>
		</g>
		<g>
			<path fill="#001937" d="M123.1,29.9c0,0.5-0.5,1-1.1,0.9l-2-0.1c-0.5,0-1-0.5-0.9-1.1l0.8-13.1c0-0.5,0.5-1,1.1-0.9l2,0.1
				c0.5,0,1,0.5,0.9,1.1L123.1,29.9z"/>
		</g>
	</g>
	<g>
		
			<image overflow="visible" opacity="0.75" width="144" height="144" xlink:href="F134020D.png"  transform="matrix(1 0 0 1 43.4594 51)">
		</image>
		<g>
			<circle fill="none" stroke="#FFFF00" cx="115.2" cy="123" r="55.8"/>
		</g>
	</g>
	<g>
		<g>
			<path fill="#001937" d="M117.2,29.6c0,0.5-0.4,1-1,1h-2c-0.6,0-1-0.5-1-1V16.5c0-0.5,0.4-1,1-1h2c0.6,0,1,0.5,1,1V29.6z"/>
		</g>
		<g>
			<path fill="#001937" d="M111.4,29.6c0,0.5-0.4,1-0.9,1.1l-2,0.1c-0.5,0-1-0.4-1.1-0.9l-0.8-13.1c0-0.5,0.4-1,0.9-1.1l2-0.1
				c0.5,0,1,0.4,1.1,0.9L111.4,29.6z"/>
		</g>
		<g>
			<path fill="#001937" d="M105.5,30.1c0.1,0.5-0.3,1-0.9,1.1l-2,0.3c-0.5,0.1-1-0.3-1.1-0.9l-1.6-13c-0.1-0.5,0.3-1,0.9-1.1l2-0.3
				c0.5-0.1,1,0.3,1.1,0.9L105.5,30.1z"/>
		</g>
		<g>
			<path fill="#001937" d="M99.7,30.9c0.1,0.5-0.3,1.1-0.8,1.2l-2,0.4c-0.5,0.1-1.1-0.3-1.2-0.8l-2.5-12.9c-0.1-0.5,0.3-1.1,0.8-1.2
				l2-0.4c0.5-0.1,1.1,0.3,1.2,0.8L99.7,30.9z"/>
		</g>
		<g>
			<path fill="#001937" d="M93.9,32c0.1,0.5-0.2,1.1-0.7,1.2l-2,0.5c-0.5,0.1-1.1-0.2-1.2-0.7l-3.3-12.7c-0.1-0.5,0.2-1.1,0.7-1.2
				l2-0.5c0.5-0.1,1.1,0.2,1.2,0.7L93.9,32z"/>
		</g>
		<g>
			<path fill="#001937" d="M88.3,33.5c0.2,0.5-0.1,1.1-0.6,1.3l-1.9,0.6c-0.5,0.2-1.1-0.1-1.3-0.6l-4-12.4c-0.2-0.5,0.1-1.1,0.6-1.3
				l1.9-0.6c0.5-0.2,1.1,0.1,1.3,0.6L88.3,33.5z"/>
		</g>
		<g>
			<path fill="#001937" d="M82.7,35.4c0.2,0.5-0.1,1.1-0.6,1.3l-1.9,0.7c-0.5,0.2-1.1-0.1-1.3-0.6l-4.8-12.2
				c-0.2-0.5,0.1-1.1,0.6-1.3l1.9-0.7c0.5-0.2,1.1,0.1,1.3,0.6L82.7,35.4z"/>
		</g>
		<g>
			<path fill="#001937" d="M77.3,37.6c0.2,0.5,0,1.1-0.5,1.3L75,39.8c-0.5,0.2-1.1,0-1.3-0.5l-5.6-11.8c-0.2-0.5,0-1.1,0.5-1.3
				l1.8-0.9c0.5-0.2,1.1,0,1.3,0.5L77.3,37.6z"/>
		</g>
		<g>
			<path fill="#001937" d="M72,40.2c0.3,0.5,0.1,1.1-0.4,1.4l-1.8,1c-0.5,0.3-1.1,0.1-1.4-0.4l-6.3-11.5c-0.3-0.5-0.1-1.1,0.4-1.4
				l1.8-1c0.5-0.3,1.1-0.1,1.4,0.4L72,40.2z"/>
		</g>
		<g>
			<path fill="#001937" d="M66.9,43.1c0.3,0.5,0.2,1.1-0.3,1.4l-1.7,1.1c-0.5,0.3-1.1,0.2-1.4-0.3l-7-11.1c-0.3-0.5-0.2-1.1,0.3-1.4
				l1.7-1.1c0.5-0.3,1.1-0.2,1.4,0.3L66.9,43.1z"/>
		</g>
		<g>
			<path fill="#001937" d="M62,46.2c0.3,0.4,0.2,1.1-0.2,1.4l-1.6,1.2c-0.4,0.3-1.1,0.2-1.4-0.2L51,38c-0.3-0.4-0.2-1.1,0.2-1.4
				l1.6-1.2c0.4-0.3,1.1-0.2,1.4,0.2L62,46.2z"/>
		</g>
		<g>
			<path fill="#001937" d="M57.2,49.7c0.4,0.4,0.3,1.1-0.1,1.4l-1.6,1.3c-0.4,0.4-1.1,0.3-1.4-0.1l-8.3-10.1
				c-0.4-0.4-0.3-1.1,0.1-1.4l1.6-1.3c0.4-0.4,1.1-0.3,1.4,0.1L57.2,49.7z"/>
		</g>
		<g>
			<path fill="#001937" d="M52.8,53.5c0.4,0.4,0.4,1,0,1.4l-1.5,1.4c-0.4,0.4-1,0.4-1.4,0l-9-9.5c-0.4-0.4-0.4-1,0-1.4l1.5-1.4
				c0.4-0.4,1-0.4,1.4,0L52.8,53.5z"/>
		</g>
		<g>
			<path fill="#001937" d="M48.5,57.6c0.4,0.4,0.4,1,0,1.4l-1.4,1.5c-0.4,0.4-1,0.4-1.4,0l-9.5-9c-0.4-0.4-0.4-1,0-1.4l1.4-1.5
				c0.4-0.4,1-0.4,1.4,0L48.5,57.6z"/>
		</g>
		<g>
			<path fill="#001937" d="M44.5,61.9c0.4,0.4,0.5,1,0.1,1.4l-1.3,1.6c-0.4,0.4-1,0.5-1.4,0.1l-10.1-8.3c-0.4-0.4-0.5-1-0.1-1.4
				l1.3-1.6c0.4-0.4,1-0.5,1.4-0.1L44.5,61.9z"/>
		</g>
		<g>
			<path fill="#001937" d="M40.8,66.5c0.4,0.3,0.5,1,0.2,1.4l-1.2,1.6c-0.3,0.4-1,0.5-1.4,0.2L27.9,62c-0.4-0.3-0.5-1-0.2-1.4
				l1.2-1.6c0.3-0.4,1-0.5,1.4-0.2L40.8,66.5z"/>
		</g>
		<g>
			<path fill="#001937" d="M37.4,71.2c0.5,0.3,0.6,0.9,0.3,1.4l-1.1,1.7c-0.3,0.5-0.9,0.6-1.4,0.3l-11.1-7c-0.5-0.3-0.6-0.9-0.3-1.4
				l1.1-1.7c0.3-0.5,0.9-0.6,1.4-0.3L37.4,71.2z"/>
		</g>
		<g>
			<path fill="#001937" d="M34.3,76.2c0.5,0.3,0.7,0.9,0.4,1.4l-1,1.8c-0.3,0.5-0.9,0.7-1.4,0.4l-11.5-6.3c-0.5-0.3-0.7-0.9-0.4-1.4
				l1-1.8c0.3-0.5,0.9-0.7,1.4-0.4L34.3,76.2z"/>
		</g>
		<g>
			<path fill="#001937" d="M31.6,81.4c0.5,0.2,0.7,0.8,0.5,1.3l-0.9,1.8c-0.2,0.5-0.8,0.7-1.3,0.5L18,79.5c-0.5-0.2-0.7-0.8-0.5-1.3
				l0.9-1.8c0.2-0.5,0.8-0.7,1.3-0.5L31.6,81.4z"/>
		</g>
		<g>
			<path fill="#001937" d="M29.1,86.7c0.5,0.2,0.8,0.8,0.6,1.3l-0.7,1.9c-0.2,0.5-0.8,0.8-1.3,0.6l-12.2-4.8
				c-0.5-0.2-0.8-0.8-0.6-1.3l0.7-1.9c0.2-0.5,0.8-0.8,1.3-0.6L29.1,86.7z"/>
		</g>
		<g>
			<path fill="#001937" d="M27,92.2c0.5,0.2,0.8,0.7,0.6,1.3L27,95.4c-0.2,0.5-0.7,0.8-1.3,0.6l-12.4-4c-0.5-0.2-0.8-0.7-0.6-1.3
				l0.6-1.9c0.2-0.5,0.7-0.8,1.3-0.6L27,92.2z"/>
		</g>
		<g>
			<path fill="#001937" d="M25.3,97.8c0.5,0.1,0.9,0.7,0.7,1.2l-0.5,2c-0.1,0.5-0.7,0.9-1.2,0.7l-12.7-3.3c-0.5-0.1-0.9-0.7-0.7-1.2
				l0.5-2c0.1-0.5,0.7-0.9,1.2-0.7L25.3,97.8z"/>
		</g>
		<g>
			<path fill="#001937" d="M23.8,103.5c0.5,0.1,0.9,0.6,0.8,1.2l-0.4,2c-0.1,0.5-0.6,0.9-1.2,0.8L10.2,105c-0.5-0.1-0.9-0.6-0.8-1.2
				l0.4-2c0.1-0.5,0.6-0.9,1.2-0.8L23.8,103.5z"/>
		</g>
		<g>
			<path fill="#001937" d="M22.8,109.3c0.5,0.1,0.9,0.6,0.9,1.1l-0.3,2c-0.1,0.5-0.6,0.9-1.1,0.9l-13-1.6c-0.5-0.1-0.9-0.6-0.9-1.1
				l0.3-2c0.1-0.5,0.6-0.9,1.1-0.9L22.8,109.3z"/>
		</g>
		<g>
			<path fill="#001937" d="M22.1,115.1c0.5,0,1,0.5,0.9,1.1l-0.1,2c0,0.5-0.5,1-1.1,0.9l-13.1-0.8c-0.5,0-1-0.5-0.9-1.1l0.1-2
				c0-0.5,0.5-1,1.1-0.9L22.1,115.1z"/>
		</g>
		<g>
			<path fill="#001937" d="M21.8,121c0.5,0,1,0.4,1,1v2c0,0.6-0.5,1-1,1H8.7c-0.6,0-1-0.4-1-1v-2c0-0.6,0.4-1,1-1H21.8z"/>
		</g>
		<g>
			<path fill="#001937" d="M21.9,126.9c0.5,0,1,0.4,1.1,0.9l0.1,2c0,0.5-0.4,1-0.9,1.1l-13.1,0.8c-0.5,0-1-0.4-1.1-0.9l-0.1-2
				c0-0.5,0.4-1,0.9-1.1L21.9,126.9z"/>
		</g>
		<g>
			<path fill="#001937" d="M22.3,132.7c0.5-0.1,1,0.3,1.1,0.9l0.3,2c0.1,0.5-0.3,1-0.9,1.1l-13,1.6c-0.5,0.1-1-0.3-1.1-0.9l-0.3-2
				c-0.1-0.5,0.3-1,0.9-1.1L22.3,132.7z"/>
		</g>
		<g>
			<path fill="#001937" d="M23.1,138.5c0.5-0.1,1.1,0.3,1.2,0.8l0.4,2c0.1,0.5-0.3,1.1-0.8,1.2L11,144.9c-0.5,0.1-1.1-0.3-1.2-0.8
				l-0.4-2c-0.1-0.5,0.3-1.1,0.8-1.2L23.1,138.5z"/>
		</g>
		<g>
			<path fill="#001937" d="M24.3,144.3c0.5-0.1,1.1,0.2,1.2,0.7l0.5,2c0.1,0.5-0.2,1.1-0.7,1.2l-12.7,3.3c-0.5,0.1-1.1-0.2-1.2-0.7
				l-0.5-2c-0.1-0.5,0.2-1.1,0.7-1.2L24.3,144.3z"/>
		</g>
		<g>
			<path fill="#001937" d="M25.8,150c0.5-0.2,1.1,0.1,1.3,0.6l0.6,1.9c0.2,0.5-0.1,1.1-0.6,1.3l-12.4,4c-0.5,0.2-1.1-0.1-1.3-0.6
				l-0.6-1.9c-0.2-0.5,0.1-1.1,0.6-1.3L25.8,150z"/>
		</g>
		<g>
			<path fill="#001937" d="M27.6,155.5c0.5-0.2,1.1,0.1,1.3,0.6l0.7,1.9c0.2,0.5-0.1,1.1-0.6,1.3l-12.2,4.8
				c-0.5,0.2-1.1-0.1-1.3-0.6l-0.7-1.9c-0.2-0.5,0.1-1.1,0.6-1.3L27.6,155.5z"/>
		</g>
		<g>
			<path fill="#001937" d="M29.9,161c0.5-0.2,1.1,0,1.3,0.5l0.9,1.8c0.2,0.5,0,1.1-0.5,1.3l-11.8,5.6c-0.5,0.2-1.1,0-1.3-0.5
				l-0.9-1.8c-0.2-0.5,0-1.1,0.5-1.3L29.9,161z"/>
		</g>
		<g>
			<path fill="#001937" d="M32.4,166.2c0.5-0.3,1.1-0.1,1.4,0.4l1,1.8c0.3,0.5,0.1,1.1-0.4,1.4l-11.5,6.3c-0.5,0.3-1.1,0.1-1.4-0.4
				l-1-1.8c-0.3-0.5-0.1-1.1,0.4-1.4L32.4,166.2z"/>
		</g>
		<g>
			<path fill="#001937" d="M35.3,171.4c0.5-0.3,1.1-0.2,1.4,0.3l1.1,1.7c0.3,0.5,0.2,1.1-0.3,1.4l-11.1,7c-0.5,0.3-1.1,0.2-1.4-0.3
				l-1.1-1.7c-0.3-0.5-0.2-1.1,0.3-1.4L35.3,171.4z"/>
		</g>
		<g>
			<path fill="#001937" d="M38.5,176.3c0.4-0.3,1.1-0.2,1.4,0.2l1.2,1.6c0.3,0.4,0.2,1.1-0.2,1.4l-10.6,7.7
				c-0.4,0.3-1.1,0.2-1.4-0.2l-1.2-1.6c-0.3-0.4-0.2-1.1,0.2-1.4L38.5,176.3z"/>
		</g>
		<g>
			<path fill="#001937" d="M42,181c0.4-0.4,1.1-0.3,1.4,0.1l1.3,1.6c0.4,0.4,0.3,1.1-0.1,1.4l-10.1,8.3c-0.4,0.4-1.1,0.3-1.4-0.1
				l-1.3-1.6c-0.4-0.4-0.3-1.1,0.1-1.4L42,181z"/>
		</g>
		<g>
			<path fill="#001937" d="M45.8,185.5c0.4-0.4,1-0.4,1.4,0l1.4,1.5c0.4,0.4,0.4,1,0,1.4l-9.5,9c-0.4,0.4-1,0.4-1.4,0l-1.4-1.5
				c-0.4-0.4-0.4-1,0-1.4L45.8,185.5z"/>
		</g>
		<g>
			<path fill="#001937" d="M49.8,189.7c0.4-0.4,1-0.4,1.4,0l1.5,1.4c0.4,0.4,0.4,1,0,1.4l-9,9.5c-0.4,0.4-1,0.4-1.4,0l-1.5-1.4
				c-0.4-0.4-0.4-1,0-1.4L49.8,189.7z"/>
		</g>
		<g>
			<path fill="#001937" d="M54.1,193.7c0.4-0.4,1-0.5,1.4-0.1l1.6,1.3c0.4,0.4,0.5,1,0.1,1.4l-8.3,10.1c-0.4,0.4-1,0.5-1.4,0.1
				l-1.6-1.3c-0.4-0.4-0.5-1-0.1-1.4L54.1,193.7z"/>
		</g>
		<g>
			<path fill="#001937" d="M58.7,197.4c0.3-0.4,1-0.5,1.4-0.2l1.6,1.2c0.4,0.3,0.5,1,0.2,1.4l-7.7,10.6c-0.3,0.4-1,0.5-1.4,0.2
				l-1.6-1.2c-0.4-0.3-0.5-1-0.2-1.4L58.7,197.4z"/>
		</g>
		<g>
			<path fill="#001937" d="M63.5,200.8c0.3-0.5,0.9-0.6,1.4-0.3l1.7,1.1c0.5,0.3,0.6,0.9,0.3,1.4l-7,11.1c-0.3,0.5-0.9,0.6-1.4,0.3
				l-1.7-1.1c-0.5-0.3-0.6-0.9-0.3-1.4L63.5,200.8z"/>
		</g>
		<g>
			<path fill="#001937" d="M68.5,203.9c0.3-0.5,0.9-0.7,1.4-0.4l1.8,1c0.5,0.3,0.7,0.9,0.4,1.4l-6.3,11.5c-0.3,0.5-0.9,0.7-1.4,0.4
				l-1.8-1c-0.5-0.3-0.7-0.9-0.4-1.4L68.5,203.9z"/>
		</g>
		<g>
			<path fill="#001937" d="M73.6,206.7c0.2-0.5,0.8-0.7,1.3-0.5l1.8,0.9c0.5,0.2,0.7,0.8,0.5,1.3l-5.6,11.8
				c-0.2,0.5-0.8,0.7-1.3,0.5l-1.8-0.9c-0.5-0.2-0.7-0.8-0.5-1.3L73.6,206.7z"/>
		</g>
		<g>
			<path fill="#001937" d="M79,209.1c0.2-0.5,0.8-0.8,1.3-0.6l1.9,0.7c0.5,0.2,0.8,0.8,0.6,1.3l-4.8,12.2c-0.2,0.5-0.8,0.8-1.3,0.6
				l-1.9-0.7c-0.5-0.2-0.8-0.8-0.6-1.3L79,209.1z"/>
		</g>
		<g>
			<path fill="#001937" d="M84.5,211.2c0.2-0.5,0.7-0.8,1.3-0.6l1.9,0.6c0.5,0.2,0.8,0.7,0.6,1.3l-4,12.4c-0.2,0.5-0.7,0.8-1.3,0.6
				l-1.9-0.6c-0.5-0.2-0.8-0.7-0.6-1.3L84.5,211.2z"/>
		</g>
		<g>
			<path fill="#001937" d="M90.1,213c0.1-0.5,0.7-0.9,1.2-0.7l2,0.5c0.5,0.1,0.9,0.7,0.7,1.2l-3.3,12.7c-0.1,0.5-0.7,0.9-1.2,0.7
				l-2-0.5c-0.5-0.1-0.9-0.7-0.7-1.2L90.1,213z"/>
		</g>
		<g>
			<path fill="#001937" d="M95.7,214.4c0.1-0.5,0.6-0.9,1.2-0.8l2,0.4c0.5,0.1,0.9,0.6,0.8,1.2L97.2,228c-0.1,0.5-0.6,0.9-1.2,0.8
				l-2-0.4c-0.5-0.1-0.9-0.6-0.8-1.2L95.7,214.4z"/>
		</g>
		<g>
			<path fill="#001937" d="M101.5,215.4c0.1-0.5,0.6-0.9,1.1-0.9l2,0.3c0.5,0.1,0.9,0.6,0.9,1.1l-1.6,13c-0.1,0.5-0.6,0.9-1.1,0.9
				l-2-0.3c-0.5-0.1-0.9-0.6-0.9-1.1L101.5,215.4z"/>
		</g>
		<g>
			<path fill="#001937" d="M107.4,216.1c0-0.5,0.5-1,1.1-0.9l2,0.1c0.5,0,1,0.5,0.9,1.1l-0.8,13.1c0,0.5-0.5,1-1.1,0.9l-2-0.1
				c-0.5,0-1-0.5-0.9-1.1L107.4,216.1z"/>
		</g>
		<g>
			<path fill="#001937" d="M113.2,216.4c0-0.6,0.4-1,1-1h2c0.6,0,1,0.4,1,1v13.1c0,0.6-0.4,1-1,1h-2c-0.6,0-1-0.4-1-1V216.4z"/>
		</g>
		<g>
			<path fill="#001937" d="M119.1,216.4c0-0.5,0.4-1,0.9-1.1l2-0.1c0.5,0,1,0.4,1.1,0.9l0.8,13.1c0,0.5-0.4,1-0.9,1.1l-2,0.1
				c-0.5,0-1-0.4-1.1-0.9L119.1,216.4z"/>
		</g>
		<g>
			<path fill="#001937" d="M124.9,215.9c-0.1-0.5,0.3-1,0.9-1.1l2-0.3c0.5-0.1,1,0.3,1.1,0.9l1.6,13c0.1,0.5-0.3,1-0.9,1.1l-2,0.3
				c-0.5,0.1-1-0.3-1.1-0.9L124.9,215.9z"/>
		</g>
		<g>
			<path fill="#001937" d="M130.8,215.1c-0.1-0.5,0.3-1.1,0.8-1.2l2-0.4c0.5-0.1,1.1,0.3,1.2,0.8l2.5,12.9c0.1,0.5-0.3,1.1-0.8,1.2
				l-2,0.4c-0.5,0.1-1.1-0.3-1.2-0.8L130.8,215.1z"/>
		</g>
		<g>
			<path fill="#001937" d="M136.5,214c-0.1-0.5,0.2-1.1,0.7-1.2l2-0.5c0.5-0.1,1.1,0.2,1.2,0.7l3.3,12.7c0.1,0.5-0.2,1.1-0.7,1.2
				l-2,0.5c-0.5,0.1-1.1-0.2-1.2-0.7L136.5,214z"/>
		</g>
		<g>
			<path fill="#001937" d="M142.2,212.5c-0.2-0.5,0.1-1.1,0.6-1.3l1.9-0.6c0.5-0.2,1.1,0.1,1.3,0.6l4,12.4c0.2,0.5-0.1,1.1-0.6,1.3
				l-1.9,0.6c-0.5,0.2-1.1-0.1-1.3-0.6L142.2,212.5z"/>
		</g>
		<g>
			<path fill="#001937" d="M147.7,210.6c-0.2-0.5,0.1-1.1,0.6-1.3l1.9-0.7c0.5-0.2,1.1,0.1,1.3,0.6l4.8,12.2
				c0.2,0.5-0.1,1.1-0.6,1.3l-1.9,0.7c-0.5,0.2-1.1-0.1-1.3-0.6L147.7,210.6z"/>
		</g>
		<g>
			<path fill="#001937" d="M153.2,208.4c-0.2-0.5,0-1.1,0.5-1.3l1.8-0.9c0.5-0.2,1.1,0,1.3,0.5l5.6,11.8c0.2,0.5,0,1.1-0.5,1.3
				l-1.8,0.9c-0.5,0.2-1.1,0-1.3-0.5L153.2,208.4z"/>
		</g>
		<g>
			<path fill="#001937" d="M158.5,205.8c-0.3-0.5-0.1-1.1,0.4-1.4l1.8-1c0.5-0.3,1.1-0.1,1.4,0.4l6.3,11.5c0.3,0.5,0.1,1.1-0.4,1.4
				l-1.8,1c-0.5,0.3-1.1,0.1-1.4-0.4L158.5,205.8z"/>
		</g>
		<g>
			<path fill="#001937" d="M163.6,202.9c-0.3-0.5-0.2-1.1,0.3-1.4l1.7-1.1c0.5-0.3,1.1-0.2,1.4,0.3l7,11.1c0.3,0.5,0.2,1.1-0.3,1.4
				l-1.7,1.1c-0.5,0.3-1.1,0.2-1.4-0.3L163.6,202.9z"/>
		</g>
		<g>
			<path fill="#001937" d="M168.5,199.8c-0.3-0.4-0.2-1.1,0.2-1.4l1.6-1.2c0.4-0.3,1.1-0.2,1.4,0.2l7.7,10.6
				c0.3,0.4,0.2,1.1-0.2,1.4l-1.6,1.2c-0.4,0.3-1.1,0.2-1.4-0.2L168.5,199.8z"/>
		</g>
		<g>
			<path fill="#001937" d="M173.2,196.3c-0.4-0.4-0.3-1.1,0.1-1.4l1.6-1.3c0.4-0.4,1.1-0.3,1.4,0.1l8.3,10.1
				c0.4,0.4,0.3,1.1-0.1,1.4l-1.6,1.3c-0.4,0.4-1.1,0.3-1.4-0.1L173.2,196.3z"/>
		</g>
		<g>
			<path fill="#001937" d="M177.7,192.5c-0.4-0.4-0.4-1,0-1.4l1.5-1.4c0.4-0.4,1-0.4,1.4,0l9,9.5c0.4,0.4,0.4,1,0,1.4l-1.5,1.4
				c-0.4,0.4-1,0.4-1.4,0L177.7,192.5z"/>
		</g>
		<g>
			<path fill="#001937" d="M181.9,188.4c-0.4-0.4-0.4-1,0-1.4l1.4-1.5c0.4-0.4,1-0.4,1.4,0l9.5,9c0.4,0.4,0.4,1,0,1.4l-1.4,1.5
				c-0.4,0.4-1,0.4-1.4,0L181.9,188.4z"/>
		</g>
		<g>
			<path fill="#001937" d="M185.9,184.1c-0.4-0.4-0.5-1-0.1-1.4l1.3-1.6c0.4-0.4,1-0.5,1.4-0.1l10.1,8.3c0.4,0.4,0.5,1,0.1,1.4
				l-1.3,1.6c-0.4,0.4-1,0.5-1.4,0.1L185.9,184.1z"/>
		</g>
		<g>
			<path fill="#001937" d="M189.6,179.5c-0.4-0.3-0.5-1-0.2-1.4l1.2-1.6c0.3-0.4,1-0.5,1.4-0.2l10.6,7.7c0.4,0.3,0.5,1,0.2,1.4
				l-1.2,1.6c-0.3,0.4-1,0.5-1.4,0.2L189.6,179.5z"/>
		</g>
		<g>
			<path fill="#001937" d="M193,174.8c-0.5-0.3-0.6-0.9-0.3-1.4l1.1-1.7c0.3-0.5,0.9-0.6,1.4-0.3l11.1,7c0.5,0.3,0.6,0.9,0.3,1.4
				l-1.1,1.7c-0.3,0.5-0.9,0.6-1.4,0.3L193,174.8z"/>
		</g>
		<g>
			<path fill="#001937" d="M196.1,169.8c-0.5-0.3-0.7-0.9-0.4-1.4l1-1.8c0.3-0.5,0.9-0.7,1.4-0.4l11.5,6.3c0.5,0.3,0.7,0.9,0.4,1.4
				l-1,1.8c-0.3,0.5-0.9,0.7-1.4,0.4L196.1,169.8z"/>
		</g>
		<g>
			<path fill="#001937" d="M198.9,164.6c-0.5-0.2-0.7-0.8-0.5-1.3l0.9-1.8c0.2-0.5,0.8-0.7,1.3-0.5l11.8,5.6
				c0.5,0.2,0.7,0.8,0.5,1.3l-0.9,1.8c-0.2,0.5-0.8,0.7-1.3,0.5L198.9,164.6z"/>
		</g>
		<g>
			<path fill="#001937" d="M201.3,159.3c-0.5-0.2-0.8-0.8-0.6-1.3l0.7-1.9c0.2-0.5,0.8-0.8,1.3-0.6l12.2,4.8
				c0.5,0.2,0.8,0.8,0.6,1.3l-0.7,1.9c-0.2,0.5-0.8,0.8-1.3,0.6L201.3,159.3z"/>
		</g>
		<g>
			<path fill="#001937" d="M203.4,153.8c-0.5-0.2-0.8-0.7-0.6-1.3l0.6-1.9c0.2-0.5,0.7-0.8,1.3-0.6l12.4,4c0.5,0.2,0.8,0.7,0.6,1.3
				l-0.6,1.9c-0.2,0.5-0.7,0.8-1.3,0.6L203.4,153.8z"/>
		</g>
		<g>
			<path fill="#001937" d="M205.2,148.2c-0.5-0.1-0.9-0.7-0.7-1.2l0.5-2c0.1-0.5,0.7-0.9,1.2-0.7l12.7,3.3c0.5,0.1,0.9,0.7,0.7,1.2
				l-0.5,2c-0.1,0.5-0.7,0.9-1.2,0.7L205.2,148.2z"/>
		</g>
		<g>
			<path fill="#001937" d="M206.6,142.5c-0.5-0.1-0.9-0.6-0.8-1.2l0.4-2c0.1-0.5,0.6-0.9,1.2-0.8l12.9,2.5c0.5,0.1,0.9,0.6,0.8,1.2
				l-0.4,2c-0.1,0.5-0.6,0.9-1.2,0.8L206.6,142.5z"/>
		</g>
		<g>
			<path fill="#001937" d="M207.7,136.7c-0.5-0.1-0.9-0.6-0.9-1.1l0.3-2c0.1-0.5,0.6-0.9,1.1-0.9l13,1.6c0.5,0.1,0.9,0.6,0.9,1.1
				l-0.3,2c-0.1,0.5-0.6,0.9-1.1,0.9L207.7,136.7z"/>
		</g>
		<g>
			<path fill="#001937" d="M208.3,130.9c-0.5,0-1-0.5-0.9-1.1l0.1-2c0-0.5,0.5-1,1.1-0.9l13.1,0.8c0.5,0,1,0.5,0.9,1.1l-0.1,2
				c0,0.5-0.5,1-1.1,0.9L208.3,130.9z"/>
		</g>
		<g>
			<path fill="#001937" d="M208.6,125c-0.6,0-1-0.4-1-1v-2c0-0.6,0.4-1,1-1h13.1c0.6,0,1,0.4,1,1v2c0,0.6-0.4,1-1,1H208.6z"/>
		</g>
		<g>
			<path fill="#001937" d="M208.6,119.1c-0.5,0-1-0.4-1.1-0.9l-0.1-2c0-0.5,0.4-1,0.9-1.1l13.1-0.8c0.5,0,1,0.4,1.1,0.9l0.1,2
				c0,0.5-0.4,1-0.9,1.1L208.6,119.1z"/>
		</g>
		<g>
			<path fill="#001937" d="M208.2,113.3c-0.5,0.1-1-0.3-1.1-0.9l-0.3-2c-0.1-0.5,0.3-1,0.9-1.1l13-1.6c0.5-0.1,1,0.3,1.1,0.9l0.3,2
				c0.1,0.5-0.3,1-0.9,1.1L208.2,113.3z"/>
		</g>
		<g>
			<path fill="#001937" d="M207.4,107.5c-0.5,0.1-1.1-0.3-1.2-0.8l-0.4-2c-0.1-0.5,0.3-1.1,0.8-1.2l12.9-2.5
				c0.5-0.1,1.1,0.3,1.2,0.8l0.4,2c0.1,0.5-0.3,1.1-0.8,1.2L207.4,107.5z"/>
		</g>
		<g>
			<path fill="#001937" d="M206.2,101.7c-0.5,0.1-1.1-0.2-1.2-0.7l-0.5-2c-0.1-0.5,0.2-1.1,0.7-1.2l12.7-3.3
				c0.5-0.1,1.1,0.2,1.2,0.7l0.5,2c0.1,0.5-0.2,1.1-0.7,1.2L206.2,101.7z"/>
		</g>
		<g>
			<path fill="#001937" d="M204.7,96c-0.5,0.2-1.1-0.1-1.3-0.6l-0.6-1.9c-0.2-0.5,0.1-1.1,0.6-1.3l12.4-4c0.5-0.2,1.1,0.1,1.3,0.6
				l0.6,1.9c0.2,0.5-0.1,1.1-0.6,1.3L204.7,96z"/>
		</g>
		<g>
			<path fill="#001937" d="M202.8,90.5c-0.5,0.2-1.1-0.1-1.3-0.6l-0.7-1.9c-0.2-0.5,0.1-1.1,0.6-1.3l12.2-4.8
				c0.5-0.2,1.1,0.1,1.3,0.6l0.7,1.9c0.2,0.5-0.1,1.1-0.6,1.3L202.8,90.5z"/>
		</g>
		<g>
			<path fill="#001937" d="M200.6,85c-0.5,0.2-1.1,0-1.3-0.5l-0.9-1.8c-0.2-0.5,0-1.1,0.5-1.3l11.8-5.6c0.5-0.2,1.1,0,1.3,0.5
				l0.9,1.8c0.2,0.5,0,1.1-0.5,1.3L200.6,85z"/>
		</g>
		<g>
			<path fill="#001937" d="M198.1,79.8c-0.5,0.3-1.1,0.1-1.4-0.4l-1-1.8c-0.3-0.5-0.1-1.1,0.4-1.4l11.5-6.3c0.5-0.3,1.1-0.1,1.4,0.4
				l1,1.8c0.3,0.5,0.1,1.1-0.4,1.4L198.1,79.8z"/>
		</g>
		<g>
			<path fill="#001937" d="M195.2,74.6c-0.5,0.3-1.1,0.2-1.4-0.3l-1.1-1.7c-0.3-0.5-0.2-1.1,0.3-1.4l11.1-7c0.5-0.3,1.1-0.2,1.4,0.3
				l1.1,1.7c0.3,0.5,0.2,1.1-0.3,1.4L195.2,74.6z"/>
		</g>
		<g>
			<path fill="#001937" d="M192,69.7c-0.4,0.3-1.1,0.2-1.4-0.2l-1.2-1.6c-0.3-0.4-0.2-1.1,0.2-1.4l10.6-7.7c0.4-0.3,1.1-0.2,1.4,0.2
				l1.2,1.6c0.3,0.4,0.2,1.1-0.2,1.4L192,69.7z"/>
		</g>
		<g>
			<path fill="#001937" d="M188.5,65c-0.4,0.4-1.1,0.3-1.4-0.1l-1.3-1.6c-0.4-0.4-0.3-1.1,0.1-1.4l10.1-8.3c0.4-0.4,1.1-0.3,1.4,0.1
				l1.3,1.6c0.4,0.4,0.3,1.1-0.1,1.4L188.5,65z"/>
		</g>
		<g>
			<path fill="#001937" d="M184.7,60.5c-0.4,0.4-1,0.4-1.4,0l-1.4-1.5c-0.4-0.4-0.4-1,0-1.4l9.5-9c0.4-0.4,1-0.4,1.4,0l1.4,1.5
				c0.4,0.4,0.4,1,0,1.4L184.7,60.5z"/>
		</g>
		<g>
			<path fill="#001937" d="M180.6,56.3c-0.4,0.4-1,0.4-1.4,0l-1.5-1.4c-0.4-0.4-0.4-1,0-1.4l9-9.5c0.4-0.4,1-0.4,1.4,0l1.5,1.4
				c0.4,0.4,0.4,1,0,1.4L180.6,56.3z"/>
		</g>
		<g>
			<path fill="#001937" d="M176.3,52.3c-0.4,0.4-1,0.5-1.4,0.1l-1.6-1.3c-0.4-0.4-0.5-1-0.1-1.4l8.3-10.1c0.4-0.4,1-0.5,1.4-0.1
				l1.6,1.3c0.4,0.4,0.5,1,0.1,1.4L176.3,52.3z"/>
		</g>
		<g>
			<path fill="#001937" d="M171.8,48.6c-0.3,0.4-1,0.5-1.4,0.2l-1.6-1.2c-0.4-0.3-0.5-1-0.2-1.4l7.7-10.6c0.3-0.4,1-0.5,1.4-0.2
				l1.6,1.2c0.4,0.3,0.5,1,0.2,1.4L171.8,48.6z"/>
		</g>
		<g>
			<path fill="#001937" d="M167,45.2c-0.3,0.5-0.9,0.6-1.4,0.3l-1.7-1.1c-0.5-0.3-0.6-0.9-0.3-1.4l7-11.1c0.3-0.5,0.9-0.6,1.4-0.3
				l1.7,1.1c0.5,0.3,0.6,0.9,0.3,1.4L167,45.2z"/>
		</g>
		<g>
			<path fill="#001937" d="M162,42.1c-0.3,0.5-0.9,0.7-1.4,0.4l-1.8-1c-0.5-0.3-0.7-0.9-0.4-1.4l6.3-11.5c0.3-0.5,0.9-0.7,1.4-0.4
				l1.8,1c0.5,0.3,0.7,0.9,0.4,1.4L162,42.1z"/>
		</g>
		<g>
			<path fill="#001937" d="M156.8,39.3c-0.2,0.5-0.8,0.7-1.3,0.5l-1.8-0.9c-0.5-0.2-0.7-0.8-0.5-1.3l5.6-11.8
				c0.2-0.5,0.8-0.7,1.3-0.5l1.8,0.9c0.5,0.2,0.7,0.8,0.5,1.3L156.8,39.3z"/>
		</g>
		<g>
			<path fill="#001937" d="M151.5,36.9c-0.2,0.5-0.8,0.8-1.3,0.6l-1.9-0.7c-0.5-0.2-0.8-0.8-0.6-1.3l4.8-12.2
				c0.2-0.5,0.8-0.8,1.3-0.6l1.9,0.7c0.5,0.2,0.8,0.8,0.6,1.3L151.5,36.9z"/>
		</g>
		<g>
			<path fill="#001937" d="M146,34.8c-0.2,0.5-0.7,0.8-1.3,0.6l-1.9-0.6c-0.5-0.2-0.8-0.7-0.6-1.3l4-12.4c0.2-0.5,0.7-0.8,1.3-0.6
				l1.9,0.6c0.5,0.2,0.8,0.7,0.6,1.3L146,34.8z"/>
		</g>
		<g>
			<path fill="#001937" d="M140.4,33c-0.1,0.5-0.7,0.9-1.2,0.7l-2-0.5c-0.5-0.1-0.9-0.7-0.7-1.2l3.3-12.7c0.1-0.5,0.7-0.9,1.2-0.7
				l2,0.5c0.5,0.1,0.9,0.7,0.7,1.2L140.4,33z"/>
		</g>
		<g>
			<path fill="#001937" d="M134.7,31.6c-0.1,0.5-0.6,0.9-1.2,0.8l-2-0.4c-0.5-0.1-0.9-0.6-0.8-1.2l2.5-12.9c0.1-0.5,0.6-0.9,1.2-0.8
				l2,0.4c0.5,0.1,0.9,0.6,0.8,1.2L134.7,31.6z"/>
		</g>
		<g>
			<path fill="#001937" d="M128.9,30.6c-0.1,0.5-0.6,0.9-1.1,0.9l-2-0.3c-0.5-0.1-0.9-0.6-0.9-1.1l1.6-13c0.1-0.5,0.6-0.9,1.1-0.9
				l2,0.3c0.5,0.1,0.9,0.6,0.9,1.1L128.9,30.6z"/>
		</g>
		<g>
			<path fill="#001937" d="M123.1,29.9c0,0.5-0.5,1-1.1,0.9l-2-0.1c-0.5,0-1-0.5-0.9-1.1l0.8-13.1c0-0.5,0.5-1,1.1-0.9l2,0.1
				c0.5,0,1,0.5,0.9,1.1L123.1,29.9z"/>
		</g>
	</g>
	<g>
		<g>
			<g>
				<path fill="#001937" d="M117.2,29.6c0,0.5-0.4,1-1,1h-2c-0.6,0-1-0.5-1-1V16.5c0-0.5,0.4-1,1-1h2c0.6,0,1,0.5,1,1V29.6z"/>
			</g>
			<g>
				<path fill="#001937" d="M111.4,29.6c0,0.5-0.4,1-0.9,1.1l-2,0.1c-0.5,0-1-0.4-1.1-0.9l-0.8-13.1c0-0.5,0.4-1,0.9-1.1l2-0.1
					c0.5,0,1,0.4,1.1,0.9L111.4,29.6z"/>
			</g>
			<g>
				<path fill="#001937" d="M105.5,30.1c0.1,0.5-0.3,1-0.9,1.1l-2,0.3c-0.5,0.1-1-0.3-1.1-0.9l-1.6-13c-0.1-0.5,0.3-1,0.9-1.1l2-0.3
					c0.5-0.1,1,0.3,1.1,0.9L105.5,30.1z"/>
			</g>
			<g>
				<path fill="#001937" d="M99.7,30.9c0.1,0.5-0.3,1.1-0.8,1.2l-2,0.4c-0.5,0.1-1.1-0.3-1.2-0.8l-2.5-12.9
					c-0.1-0.5,0.3-1.1,0.8-1.2l2-0.4c0.5-0.1,1.1,0.3,1.2,0.8L99.7,30.9z"/>
			</g>
			<g>
				<path fill="#001937" d="M93.9,32c0.1,0.5-0.2,1.1-0.7,1.2l-2,0.5c-0.5,0.1-1.1-0.2-1.2-0.7l-3.3-12.7c-0.1-0.5,0.2-1.1,0.7-1.2
					l2-0.5c0.5-0.1,1.1,0.2,1.2,0.7L93.9,32z"/>
			</g>
			<g>
				<path fill="#001937" d="M88.3,33.5c0.2,0.5-0.1,1.1-0.6,1.3l-1.9,0.6c-0.5,0.2-1.1-0.1-1.3-0.6l-4-12.4
					c-0.2-0.5,0.1-1.1,0.6-1.3l1.9-0.6c0.5-0.2,1.1,0.1,1.3,0.6L88.3,33.5z"/>
			</g>
			<g>
				<path fill="#001937" d="M82.7,35.4c0.2,0.5-0.1,1.1-0.6,1.3l-1.9,0.7c-0.5,0.2-1.1-0.1-1.3-0.6l-4.8-12.2
					c-0.2-0.5,0.1-1.1,0.6-1.3l1.9-0.7c0.5-0.2,1.1,0.1,1.3,0.6L82.7,35.4z"/>
			</g>
			<g>
				<path fill="#001937" d="M77.3,37.6c0.2,0.5,0,1.1-0.5,1.3L75,39.8c-0.5,0.2-1.1,0-1.3-0.5l-5.6-11.8c-0.2-0.5,0-1.1,0.5-1.3
					l1.8-0.9c0.5-0.2,1.1,0,1.3,0.5L77.3,37.6z"/>
			</g>
			<g>
				<path fill="#001937" d="M72,40.2c0.3,0.5,0.1,1.1-0.4,1.4l-1.8,1c-0.5,0.3-1.1,0.1-1.4-0.4l-6.3-11.5c-0.3-0.5-0.1-1.1,0.4-1.4
					l1.8-1c0.5-0.3,1.1-0.1,1.4,0.4L72,40.2z"/>
			</g>
			<g>
				<path fill="#001937" d="M66.9,43.1c0.3,0.5,0.2,1.1-0.3,1.4l-1.7,1.1c-0.5,0.3-1.1,0.2-1.4-0.3l-7-11.1
					c-0.3-0.5-0.2-1.1,0.3-1.4l1.7-1.1c0.5-0.3,1.1-0.2,1.4,0.3L66.9,43.1z"/>
			</g>
			<g>
				<path fill="#001937" d="M62,46.2c0.3,0.4,0.2,1.1-0.2,1.4l-1.6,1.2c-0.4,0.3-1.1,0.2-1.4-0.2L51,38c-0.3-0.4-0.2-1.1,0.2-1.4
					l1.6-1.2c0.4-0.3,1.1-0.2,1.4,0.2L62,46.2z"/>
			</g>
			<g>
				<path fill="#001937" d="M57.2,49.7c0.4,0.4,0.3,1.1-0.1,1.4l-1.6,1.3c-0.4,0.4-1.1,0.3-1.4-0.1l-8.3-10.1
					c-0.4-0.4-0.3-1.1,0.1-1.4l1.6-1.3c0.4-0.4,1.1-0.3,1.4,0.1L57.2,49.7z"/>
			</g>
			<g>
				<path fill="#001937" d="M52.8,53.5c0.4,0.4,0.4,1,0,1.4l-1.5,1.4c-0.4,0.4-1,0.4-1.4,0l-9-9.5c-0.4-0.4-0.4-1,0-1.4l1.5-1.4
					c0.4-0.4,1-0.4,1.4,0L52.8,53.5z"/>
			</g>
			<g>
				<path fill="#001937" d="M48.5,57.6c0.4,0.4,0.4,1,0,1.4l-1.4,1.5c-0.4,0.4-1,0.4-1.4,0l-9.5-9c-0.4-0.4-0.4-1,0-1.4l1.4-1.5
					c0.4-0.4,1-0.4,1.4,0L48.5,57.6z"/>
			</g>
			<g>
				<path fill="#001937" d="M44.5,61.9c0.4,0.4,0.5,1,0.1,1.4l-1.3,1.6c-0.4,0.4-1,0.5-1.4,0.1l-10.1-8.3c-0.4-0.4-0.5-1-0.1-1.4
					l1.3-1.6c0.4-0.4,1-0.5,1.4-0.1L44.5,61.9z"/>
			</g>
			<g>
				<path fill="#001937" d="M40.8,66.5c0.4,0.3,0.5,1,0.2,1.4l-1.2,1.6c-0.3,0.4-1,0.5-1.4,0.2L27.9,62c-0.4-0.3-0.5-1-0.2-1.4
					l1.2-1.6c0.3-0.4,1-0.5,1.4-0.2L40.8,66.5z"/>
			</g>
			<g>
				<path fill="#001937" d="M37.4,71.2c0.5,0.3,0.6,0.9,0.3,1.4l-1.1,1.7c-0.3,0.5-0.9,0.6-1.4,0.3l-11.1-7
					c-0.5-0.3-0.6-0.9-0.3-1.4l1.1-1.7c0.3-0.5,0.9-0.6,1.4-0.3L37.4,71.2z"/>
			</g>
			<g>
				<path fill="#001937" d="M34.3,76.2c0.5,0.3,0.7,0.9,0.4,1.4l-1,1.8c-0.3,0.5-0.9,0.7-1.4,0.4l-11.5-6.3
					c-0.5-0.3-0.7-0.9-0.4-1.4l1-1.8c0.3-0.5,0.9-0.7,1.4-0.4L34.3,76.2z"/>
			</g>
			<g>
				<path fill="#001937" d="M31.6,81.4c0.5,0.2,0.7,0.8,0.5,1.3l-0.9,1.8c-0.2,0.5-0.8,0.7-1.3,0.5L18,79.5
					c-0.5-0.2-0.7-0.8-0.5-1.3l0.9-1.8c0.2-0.5,0.8-0.7,1.3-0.5L31.6,81.4z"/>
			</g>
			<g>
				<path fill="#001937" d="M29.1,86.7c0.5,0.2,0.8,0.8,0.6,1.3l-0.7,1.9c-0.2,0.5-0.8,0.8-1.3,0.6l-12.2-4.8
					c-0.5-0.2-0.8-0.8-0.6-1.3l0.7-1.9c0.2-0.5,0.8-0.8,1.3-0.6L29.1,86.7z"/>
			</g>
			<g>
				<path fill="#001937" d="M27,92.2c0.5,0.2,0.8,0.7,0.6,1.3L27,95.4c-0.2,0.5-0.7,0.8-1.3,0.6l-12.4-4c-0.5-0.2-0.8-0.7-0.6-1.3
					l0.6-1.9c0.2-0.5,0.7-0.8,1.3-0.6L27,92.2z"/>
			</g>
			<g>
				<path fill="#001937" d="M25.3,97.8c0.5,0.1,0.9,0.7,0.7,1.2l-0.5,2c-0.1,0.5-0.7,0.9-1.2,0.7l-12.7-3.3
					c-0.5-0.1-0.9-0.7-0.7-1.2l0.5-2c0.1-0.5,0.7-0.9,1.2-0.7L25.3,97.8z"/>
			</g>
			<g>
				<path fill="#001937" d="M23.8,103.5c0.5,0.1,0.9,0.6,0.8,1.2l-0.4,2c-0.1,0.5-0.6,0.9-1.2,0.8L10.2,105
					c-0.5-0.1-0.9-0.6-0.8-1.2l0.4-2c0.1-0.5,0.6-0.9,1.2-0.8L23.8,103.5z"/>
			</g>
			<g>
				<path fill="#001937" d="M22.8,109.3c0.5,0.1,0.9,0.6,0.9,1.1l-0.3,2c-0.1,0.5-0.6,0.9-1.1,0.9l-13-1.6c-0.5-0.1-0.9-0.6-0.9-1.1
					l0.3-2c0.1-0.5,0.6-0.9,1.1-0.9L22.8,109.3z"/>
			</g>
			<g>
				<path fill="#001937" d="M22.1,115.1c0.5,0,1,0.5,0.9,1.1l-0.1,2c0,0.5-0.5,1-1.1,0.9l-13.1-0.8c-0.5,0-1-0.5-0.9-1.1l0.1-2
					c0-0.5,0.5-1,1.1-0.9L22.1,115.1z"/>
			</g>
			<g>
				<path fill="#001937" d="M21.8,121c0.5,0,1,0.4,1,1v2c0,0.6-0.5,1-1,1H8.7c-0.6,0-1-0.4-1-1v-2c0-0.6,0.4-1,1-1H21.8z"/>
			</g>
			<g>
				<path fill="#001937" d="M21.9,126.9c0.5,0,1,0.4,1.1,0.9l0.1,2c0,0.5-0.4,1-0.9,1.1l-13.1,0.8c-0.5,0-1-0.4-1.1-0.9l-0.1-2
					c0-0.5,0.4-1,0.9-1.1L21.9,126.9z"/>
			</g>
			<g>
				<path fill="#001937" d="M22.3,132.7c0.5-0.1,1,0.3,1.1,0.9l0.3,2c0.1,0.5-0.3,1-0.9,1.1l-13,1.6c-0.5,0.1-1-0.3-1.1-0.9l-0.3-2
					c-0.1-0.5,0.3-1,0.9-1.1L22.3,132.7z"/>
			</g>
			<g>
				<path fill="#001937" d="M23.1,138.5c0.5-0.1,1.1,0.3,1.2,0.8l0.4,2c0.1,0.5-0.3,1.1-0.8,1.2L11,144.9c-0.5,0.1-1.1-0.3-1.2-0.8
					l-0.4-2c-0.1-0.5,0.3-1.1,0.8-1.2L23.1,138.5z"/>
			</g>
			<g>
				<path fill="#001937" d="M24.3,144.3c0.5-0.1,1.1,0.2,1.2,0.7l0.5,2c0.1,0.5-0.2,1.1-0.7,1.2l-12.7,3.3c-0.5,0.1-1.1-0.2-1.2-0.7
					l-0.5-2c-0.1-0.5,0.2-1.1,0.7-1.2L24.3,144.3z"/>
			</g>
			<g>
				<path fill="#001937" d="M25.8,150c0.5-0.2,1.1,0.1,1.3,0.6l0.6,1.9c0.2,0.5-0.1,1.1-0.6,1.3l-12.4,4c-0.5,0.2-1.1-0.1-1.3-0.6
					l-0.6-1.9c-0.2-0.5,0.1-1.1,0.6-1.3L25.8,150z"/>
			</g>
			<g>
				<path fill="#001937" d="M27.6,155.5c0.5-0.2,1.1,0.1,1.3,0.6l0.7,1.9c0.2,0.5-0.1,1.1-0.6,1.3l-12.2,4.8
					c-0.5,0.2-1.1-0.1-1.3-0.6l-0.7-1.9c-0.2-0.5,0.1-1.1,0.6-1.3L27.6,155.5z"/>
			</g>
			<g>
				<path fill="#001937" d="M29.9,161c0.5-0.2,1.1,0,1.3,0.5l0.9,1.8c0.2,0.5,0,1.1-0.5,1.3l-11.8,5.6c-0.5,0.2-1.1,0-1.3-0.5
					l-0.9-1.8c-0.2-0.5,0-1.1,0.5-1.3L29.9,161z"/>
			</g>
			<g>
				<path fill="#001937" d="M32.4,166.2c0.5-0.3,1.1-0.1,1.4,0.4l1,1.8c0.3,0.5,0.1,1.1-0.4,1.4l-11.5,6.3c-0.5,0.3-1.1,0.1-1.4-0.4
					l-1-1.8c-0.3-0.5-0.1-1.1,0.4-1.4L32.4,166.2z"/>
			</g>
			<g>
				
					<image overflow="visible" opacity="0.75" width="45" height="41" xlink:href="F134020F.png"  transform="matrix(1 0 0 1 8.4594 156)">
				</image>
				<g>
					<path fill="#FFFF00" d="M35.3,171.4c0.5-0.3,1.1-0.2,1.4,0.3l1.1,1.7c0.3,0.5,0.2,1.1-0.3,1.4l-11.1,7
						c-0.5,0.3-1.1,0.2-1.4-0.3l-1.1-1.7c-0.3-0.5-0.2-1.1,0.3-1.4L35.3,171.4z"/>
				</g>
			</g>
			<g>
				
					<image overflow="visible" opacity="0.75" width="44" height="42" xlink:href="F134020A.png"  transform="matrix(1 0 0 1 12.4594 161)">
				</image>
				<g>
					<path fill="#FFFF00" d="M38.5,176.3c0.4-0.3,1.1-0.2,1.4,0.2l1.2,1.6c0.3,0.4,0.2,1.1-0.2,1.4l-10.6,7.7
						c-0.4,0.3-1.1,0.2-1.4-0.2l-1.2-1.6c-0.3-0.4-0.2-1.1,0.2-1.4L38.5,176.3z"/>
				</g>
			</g>
			<g>
				
					<image overflow="visible" opacity="0.75" width="44" height="43" xlink:href="F134020B.png"  transform="matrix(1 0 0 1 16.4594 165)">
				</image>
				<g>
					<path fill="#FFFF00" d="M42,181c0.4-0.4,1.1-0.3,1.4,0.1l1.3,1.6c0.4,0.4,0.3,1.1-0.1,1.4l-10.1,8.3c-0.4,0.4-1.1,0.3-1.4-0.1
						l-1.3-1.6c-0.4-0.4-0.3-1.1,0.1-1.4L42,181z"/>
				</g>
			</g>
			<g>
				
					<image overflow="visible" opacity="0.75" width="44" height="43" xlink:href="F1340215.png"  transform="matrix(1 0 0 1 20.4594 170)">
				</image>
				<g>
					<path fill="#FFFF00" d="M45.8,185.5c0.4-0.4,1-0.4,1.4,0l1.4,1.5c0.4,0.4,0.4,1,0,1.4l-9.5,9c-0.4,0.4-1,0.4-1.4,0l-1.4-1.5
						c-0.4-0.4-0.4-1,0-1.4L45.8,185.5z"/>
				</g>
			</g>
			<g>
				
					<image overflow="visible" opacity="0.75" width="43" height="44" xlink:href="F1340217.png"  transform="matrix(1 0 0 1 25.4594 174)">
				</image>
				<g>
					<path fill="#FFFF00" d="M49.8,189.7c0.4-0.4,1-0.4,1.4,0l1.5,1.4c0.4,0.4,0.4,1,0,1.4l-9,9.5c-0.4,0.4-1,0.4-1.4,0l-1.5-1.4
						c-0.4-0.4-0.4-1,0-1.4L49.8,189.7z"/>
				</g>
			</g>
			<g>
				
					<image overflow="visible" opacity="0.75" width="43" height="44" xlink:href="F134021A.png"  transform="matrix(1 0 0 1 30.4594 178)">
				</image>
				<g>
					<path fill="#FFFF00" d="M54.1,193.7c0.4-0.4,1-0.5,1.4-0.1l1.6,1.3c0.4,0.4,0.5,1,0.1,1.4l-8.3,10.1c-0.4,0.4-1,0.5-1.4,0.1
						l-1.6-1.3c-0.4-0.4-0.5-1-0.1-1.4L54.1,193.7z"/>
				</g>
			</g>
			<g>
				
					<image overflow="visible" opacity="0.75" width="42" height="45" xlink:href="F134021B.png"  transform="matrix(1 0 0 1 35.4594 181)">
				</image>
				<g>
					<path fill="#FFFF00" d="M58.7,197.4c0.3-0.4,1-0.5,1.4-0.2l1.6,1.2c0.4,0.3,0.5,1,0.2,1.4l-7.7,10.6c-0.3,0.4-1,0.5-1.4,0.2
						l-1.6-1.2c-0.4-0.3-0.5-1-0.2-1.4L58.7,197.4z"/>
				</g>
			</g>
			<g>
				
					<image overflow="visible" opacity="0.75" width="42" height="45" xlink:href="F134021D.png"  transform="matrix(1 0 0 1 40.4594 185)">
				</image>
				<g>
					<path fill="#FFFF00" d="M63.5,200.8c0.3-0.5,0.9-0.6,1.4-0.3l1.7,1.1c0.5,0.3,0.6,0.9,0.3,1.4l-7,11.1
						c-0.3,0.5-0.9,0.6-1.4,0.3l-1.7-1.1c-0.5-0.3-0.6-0.9-0.3-1.4L63.5,200.8z"/>
				</g>
			</g>
			<g>
				
					<image overflow="visible" opacity="0.75" width="41" height="45" xlink:href="DC844BE6.png"  transform="matrix(1 0 0 1 46.4594 188)">
				</image>
				<g>
					<path fill="#FFFF00" d="M68.5,203.9c0.3-0.5,0.9-0.7,1.4-0.4l1.8,1c0.5,0.3,0.7,0.9,0.4,1.4l-6.3,11.5
						c-0.3,0.5-0.9,0.7-1.4,0.4l-1.8-1c-0.5-0.3-0.7-0.9-0.4-1.4L68.5,203.9z"/>
				</g>
			</g>
			<g>
				
					<image overflow="visible" opacity="0.75" width="40" height="45" xlink:href="DC844BE1.png"  transform="matrix(1 0 0 1 52.4594 191)">
				</image>
				<g>
					<path fill="#FFFF00" d="M73.6,206.7c0.2-0.5,0.8-0.7,1.3-0.5l1.8,0.9c0.5,0.2,0.7,0.8,0.5,1.3l-5.6,11.8
						c-0.2,0.5-0.8,0.7-1.3,0.5l-1.8-0.9c-0.5-0.2-0.7-0.8-0.5-1.3L73.6,206.7z"/>
				</g>
			</g>
			<g>
				
					<image overflow="visible" opacity="0.75" width="40" height="46" xlink:href="DC844BE2.png"  transform="matrix(1 0 0 1 58.4594 193)">
				</image>
				<g>
					<path fill="#FFFF00" d="M79,209.1c0.2-0.5,0.8-0.8,1.3-0.6l1.9,0.7c0.5,0.2,0.8,0.8,0.6,1.3l-4.8,12.2
						c-0.2,0.5-0.8,0.8-1.3,0.6l-1.9-0.7c-0.5-0.2-0.8-0.8-0.6-1.3L79,209.1z"/>
				</g>
			</g>
			<g>
				
					<image overflow="visible" opacity="0.75" width="39" height="46" xlink:href="DC844BE0.png"  transform="matrix(1 0 0 1 64.4594 195)">
				</image>
				<g>
					<path fill="#FFFF00" d="M84.5,211.2c0.2-0.5,0.7-0.8,1.3-0.6l1.9,0.6c0.5,0.2,0.8,0.7,0.6,1.3l-4,12.4
						c-0.2,0.5-0.7,0.8-1.3,0.6l-1.9-0.6c-0.5-0.2-0.8-0.7-0.6-1.3L84.5,211.2z"/>
				</g>
			</g>
			<g>
				
					<image overflow="visible" opacity="0.75" width="38" height="46" xlink:href="DC844BFE.png"  transform="matrix(1 0 0 1 71.4594 197)">
				</image>
				<g>
					<path fill="#FFFF00" d="M90.1,213c0.1-0.5,0.7-0.9,1.2-0.7l2,0.5c0.5,0.1,0.9,0.7,0.7,1.2l-3.3,12.7c-0.1,0.5-0.7,0.9-1.2,0.7
						l-2-0.5c-0.5-0.1-0.9-0.7-0.7-1.2L90.1,213z"/>
				</g>
			</g>
			<g>
				
					<image overflow="visible" opacity="0.75" width="38" height="46" xlink:href="DC844BE3.png"  transform="matrix(1 0 0 1 77.4594 198)">
				</image>
				<g>
					<path fill="#FFFF00" d="M95.7,214.4c0.1-0.5,0.6-0.9,1.2-0.8l2,0.4c0.5,0.1,0.9,0.6,0.8,1.2L97.2,228c-0.1,0.5-0.6,0.9-1.2,0.8
						l-2-0.4c-0.5-0.1-0.9-0.6-0.8-1.2L95.7,214.4z"/>
				</g>
			</g>
			<g>
				
					<image overflow="visible" opacity="0.75" width="37" height="46" xlink:href="DC844BE7.png"  transform="matrix(1 0 0 1 84.4594 199)">
				</image>
				<g>
					<path fill="#FFFF00" d="M101.5,215.4c0.1-0.5,0.6-0.9,1.1-0.9l2,0.3c0.5,0.1,0.9,0.6,0.9,1.1l-1.6,13c-0.1,0.5-0.6,0.9-1.1,0.9
						l-2-0.3c-0.5-0.1-0.9-0.6-0.9-1.1L101.5,215.4z"/>
				</g>
			</g>
			<g>
				
					<image overflow="visible" opacity="0.75" width="35" height="46" xlink:href="DC844BE5.png"  transform="matrix(1 0 0 1 91.4594 200)">
				</image>
				<g>
					<path fill="#FFFF00" d="M107.4,216.1c0-0.5,0.5-1,1.1-0.9l2,0.1c0.5,0,1,0.5,0.9,1.1l-0.8,13.1c0,0.5-0.5,1-1.1,0.9l-2-0.1
						c-0.5,0-1-0.5-0.9-1.1L107.4,216.1z"/>
				</g>
			</g>
			<g>
				
					<image overflow="visible" opacity="0.75" width="35" height="46" xlink:href="DC844BEC.png"  transform="matrix(1 0 0 1 97.4594 200)">
				</image>
				<g>
					<path fill="#FFFF00" d="M113.2,216.4c0-0.6,0.4-1,1-1h2c0.6,0,1,0.4,1,1v13.1c0,0.6-0.4,1-1,1h-2c-0.6,0-1-0.4-1-1V216.4z"/>
				</g>
			</g>
			<g>
				
					<image overflow="visible" opacity="0.75" width="36" height="46" xlink:href="DC844BED.png"  transform="matrix(1 0 0 1 103.4594 200)">
				</image>
				<g>
					<path fill="#FFFF00" d="M119.1,216.4c0-0.5,0.4-1,0.9-1.1l2-0.1c0.5,0,1,0.4,1.1,0.9l0.8,13.1c0,0.5-0.4,1-0.9,1.1l-2,0.1
						c-0.5,0-1-0.4-1.1-0.9L119.1,216.4z"/>
				</g>
			</g>
			<g>
				
					<image overflow="visible" opacity="0.75" width="37" height="46" xlink:href="DC844C05.png"  transform="matrix(1 0 0 1 109.4594 199)">
				</image>
				<g>
					<path fill="#FFFF00" d="M124.9,215.9c-0.1-0.5,0.3-1,0.9-1.1l2-0.3c0.5-0.1,1,0.3,1.1,0.9l1.6,13c0.1,0.5-0.3,1-0.9,1.1l-2,0.3
						c-0.5,0.1-1-0.3-1.1-0.9L124.9,215.9z"/>
				</g>
			</g>
			<g>
				
					<image overflow="visible" opacity="0.75" width="37" height="46" xlink:href="DC844C07.png"  transform="matrix(1 0 0 1 115.4594 198)">
				</image>
				<g>
					<path fill="#FFFF00" d="M130.8,215.1c-0.1-0.5,0.3-1.1,0.8-1.2l2-0.4c0.5-0.1,1.1,0.3,1.2,0.8l2.5,12.9
						c0.1,0.5-0.3,1.1-0.8,1.2l-2,0.4c-0.5,0.1-1.1-0.3-1.2-0.8L130.8,215.1z"/>
				</g>
			</g>
			<g>
				
					<image overflow="visible" opacity="0.75" width="38" height="46" xlink:href="DC844C04.png"  transform="matrix(1 0 0 1 121.4594 197)">
				</image>
				<g>
					<path fill="#FFFF00" d="M136.5,214c-0.1-0.5,0.2-1.1,0.7-1.2l2-0.5c0.5-0.1,1.1,0.2,1.2,0.7l3.3,12.7c0.1,0.5-0.2,1.1-0.7,1.2
						l-2,0.5c-0.5,0.1-1.1-0.2-1.2-0.7L136.5,214z"/>
				</g>
			</g>
			<g>
				
					<image overflow="visible" opacity="0.75" width="39" height="46" xlink:href="DC844C03.png"  transform="matrix(1 0 0 1 126.4594 195)">
				</image>
				<g>
					<path fill="#FFFF00" d="M142.2,212.5c-0.2-0.5,0.1-1.1,0.6-1.3l1.9-0.6c0.5-0.2,1.1,0.1,1.3,0.6l4,12.4
						c0.2,0.5-0.1,1.1-0.6,1.3l-1.9,0.6c-0.5,0.2-1.1-0.1-1.3-0.6L142.2,212.5z"/>
				</g>
			</g>
			<g>
				
					<image overflow="visible" opacity="0.75" width="39" height="46" xlink:href="DC844C0D.png"  transform="matrix(1 0 0 1 132.4594 193)">
				</image>
				<g>
					<path fill="#FFFF00" d="M147.7,210.6c-0.2-0.5,0.1-1.1,0.6-1.3l1.9-0.7c0.5-0.2,1.1,0.1,1.3,0.6l4.8,12.2
						c0.2,0.5-0.1,1.1-0.6,1.3l-1.9,0.7c-0.5,0.2-1.1-0.1-1.3-0.6L147.7,210.6z"/>
				</g>
			</g>
			<g>
				
					<image overflow="visible" opacity="0.75" width="41" height="45" xlink:href="DC844C0F.png"  transform="matrix(1 0 0 1 137.4594 191)">
				</image>
				<g>
					<path fill="#FFFF00" d="M153.2,208.4c-0.2-0.5,0-1.1,0.5-1.3l1.8-0.9c0.5-0.2,1.1,0,1.3,0.5l5.6,11.8c0.2,0.5,0,1.1-0.5,1.3
						l-1.8,0.9c-0.5,0.2-1.1,0-1.3-0.5L153.2,208.4z"/>
				</g>
			</g>
			<g>
				
					<image overflow="visible" opacity="0.75" width="41" height="45" xlink:href="DC844C0C.png"  transform="matrix(1 0 0 1 142.4594 188)">
				</image>
				<g>
					<path fill="#FFFF00" d="M158.5,205.8c-0.3-0.5-0.1-1.1,0.4-1.4l1.8-1c0.5-0.3,1.1-0.1,1.4,0.4l6.3,11.5
						c0.3,0.5,0.1,1.1-0.4,1.4l-1.8,1c-0.5,0.3-1.1,0.1-1.4-0.4L158.5,205.8z"/>
				</g>
			</g>
			<g>
				
					<image overflow="visible" opacity="0.75" width="42" height="45" xlink:href="DC844C06.png"  transform="matrix(1 0 0 1 147.4594 185)">
				</image>
				<g>
					<path fill="#FFFF00" d="M163.6,202.9c-0.3-0.5-0.2-1.1,0.3-1.4l1.7-1.1c0.5-0.3,1.1-0.2,1.4,0.3l7,11.1
						c0.3,0.5,0.2,1.1-0.3,1.4l-1.7,1.1c-0.5,0.3-1.1,0.2-1.4-0.3L163.6,202.9z"/>
				</g>
			</g>
			<g>
				
					<image overflow="visible" opacity="0.75" width="43" height="45" xlink:href="DC844C39.png"  transform="matrix(1 0 0 1 152.4594 181)">
				</image>
				<g>
					<path fill="#FFFF00" d="M168.5,199.8c-0.3-0.4-0.2-1.1,0.2-1.4l1.6-1.2c0.4-0.3,1.1-0.2,1.4,0.2l7.7,10.6
						c0.3,0.4,0.2,1.1-0.2,1.4l-1.6,1.2c-0.4,0.3-1.1,0.2-1.4-0.2L168.5,199.8z"/>
				</g>
			</g>
			<g>
				
					<image overflow="visible" opacity="0.75" width="43" height="44" xlink:href="DC844C3A.png"  transform="matrix(1 0 0 1 157.4594 178)">
				</image>
				<g>
					<path fill="#FFFF00" d="M173.2,196.3c-0.4-0.4-0.3-1.1,0.1-1.4l1.6-1.3c0.4-0.4,1.1-0.3,1.4,0.1l8.3,10.1
						c0.4,0.4,0.3,1.1-0.1,1.4l-1.6,1.3c-0.4,0.4-1.1,0.3-1.4-0.1L173.2,196.3z"/>
				</g>
			</g>
			<g>
				
					<image overflow="visible" opacity="0.75" width="44" height="44" xlink:href="DC844C28.png"  transform="matrix(1 0 0 1 161.4594 174)">
				</image>
				<g>
					<path fill="#FFFF00" d="M177.7,192.5c-0.4-0.4-0.4-1,0-1.4l1.5-1.4c0.4-0.4,1-0.4,1.4,0l9,9.5c0.4,0.4,0.4,1,0,1.4l-1.5,1.4
						c-0.4,0.4-1,0.4-1.4,0L177.7,192.5z"/>
				</g>
			</g>
			<g>
				
					<image overflow="visible" opacity="0.75" width="44" height="43" xlink:href="DC844C17.png"  transform="matrix(1 0 0 1 166.4594 170)">
				</image>
				<g>
					<path fill="#FFFF00" d="M181.9,188.4c-0.4-0.4-0.4-1,0-1.4l1.4-1.5c0.4-0.4,1-0.4,1.4,0l9.5,9c0.4,0.4,0.4,1,0,1.4l-1.4,1.5
						c-0.4,0.4-1,0.4-1.4,0L181.9,188.4z"/>
				</g>
			</g>
			<g>
				
					<image overflow="visible" opacity="0.75" width="44" height="43" xlink:href="DC844C18.png"  transform="matrix(1 0 0 1 170.4594 165)">
				</image>
				<g>
					<path fill="#FFFF00" d="M185.9,184.1c-0.4-0.4-0.5-1-0.1-1.4l1.3-1.6c0.4-0.4,1-0.5,1.4-0.1l10.1,8.3c0.4,0.4,0.5,1,0.1,1.4
						l-1.3,1.6c-0.4,0.4-1,0.5-1.4,0.1L185.9,184.1z"/>
				</g>
			</g>
			<g>
				
					<image overflow="visible" opacity="0.75" width="45" height="42" xlink:href="DC844C1B.png"  transform="matrix(1 0 0 1 173.4594 161)">
				</image>
				<g>
					<path fill="#FFFF00" d="M189.6,179.5c-0.4-0.3-0.5-1-0.2-1.4l1.2-1.6c0.3-0.4,1-0.5,1.4-0.2l10.6,7.7c0.4,0.3,0.5,1,0.2,1.4
						l-1.2,1.6c-0.3,0.4-1,0.5-1.4,0.2L189.6,179.5z"/>
				</g>
			</g>
			<g>
				
					<image overflow="visible" opacity="0.75" width="45" height="41" xlink:href="DC844C19.png"  transform="matrix(1 0 0 1 177.4594 156)">
				</image>
				<g>
					<path fill="#FFFF00" d="M193,174.8c-0.5-0.3-0.6-0.9-0.3-1.4l1.1-1.7c0.3-0.5,0.9-0.6,1.4-0.3l11.1,7c0.5,0.3,0.6,0.9,0.3,1.4
						l-1.1,1.7c-0.3,0.5-0.9,0.6-1.4,0.3L193,174.8z"/>
				</g>
			</g>
			<g>
				
					<image overflow="visible" opacity="0.75" width="45" height="41" xlink:href="DC844C1F.png"  transform="matrix(1 0 0 1 180.4594 151)">
				</image>
				<g>
					<path fill="#FFFF00" d="M196.1,169.8c-0.5-0.3-0.7-0.9-0.4-1.4l1-1.8c0.3-0.5,0.9-0.7,1.4-0.4l11.5,6.3
						c0.5,0.3,0.7,0.9,0.4,1.4l-1,1.8c-0.3,0.5-0.9,0.7-1.4,0.4L196.1,169.8z"/>
				</g>
			</g>
			<g>
				
					<image overflow="visible" opacity="0.75" width="46" height="41" xlink:href="DC844C1A.png"  transform="matrix(1 0 0 1 182.4594 145)">
				</image>
				<g>
					<path fill="#FFFF00" d="M198.9,164.6c-0.5-0.2-0.7-0.8-0.5-1.3l0.9-1.8c0.2-0.5,0.8-0.7,1.3-0.5l11.8,5.6
						c0.5,0.2,0.7,0.8,0.5,1.3l-0.9,1.8c-0.2,0.5-0.8,0.7-1.3,0.5L198.9,164.6z"/>
				</g>
			</g>
			<g>
				
					<image overflow="visible" opacity="0.75" width="46" height="40" xlink:href="DC844C15.png"  transform="matrix(1 0 0 1 185.4594 140)">
				</image>
				<g>
					<path fill="#FFFF00" d="M201.3,159.3c-0.5-0.2-0.8-0.8-0.6-1.3l0.7-1.9c0.2-0.5,0.8-0.8,1.3-0.6l12.2,4.8
						c0.5,0.2,0.8,0.8,0.6,1.3l-0.7,1.9c-0.2,0.5-0.8,0.8-1.3,0.6L201.3,159.3z"/>
				</g>
			</g>
			<g>
				
					<image overflow="visible" opacity="0.75" width="46" height="39" xlink:href="DC844C16.png"  transform="matrix(1 0 0 1 187.4594 134)">
				</image>
				<g>
					<path fill="#FFFF00" d="M203.4,153.8c-0.5-0.2-0.8-0.7-0.6-1.3l0.6-1.9c0.2-0.5,0.7-0.8,1.3-0.6l12.4,4
						c0.5,0.2,0.8,0.7,0.6,1.3l-0.6,1.9c-0.2,0.5-0.7,0.8-1.3,0.6L203.4,153.8z"/>
				</g>
			</g>
			<g>
				
					<image overflow="visible" opacity="0.75" width="47" height="38" xlink:href="DC844C14.png"  transform="matrix(1 0 0 1 188.4594 129)">
				</image>
				<g>
					<path fill="#FFFF00" d="M205.2,148.2c-0.5-0.1-0.9-0.7-0.7-1.2l0.5-2c0.1-0.5,0.7-0.9,1.2-0.7l12.7,3.3
						c0.5,0.1,0.9,0.7,0.7,1.2l-0.5,2c-0.1,0.5-0.7,0.9-1.2,0.7L205.2,148.2z"/>
				</g>
			</g>
			<g>
				
					<image overflow="visible" opacity="0.75" width="46" height="37" xlink:href="DC844C73.png"  transform="matrix(1 0 0 1 190.4594 123)">
				</image>
				<g>
					<path fill="#FFFF00" d="M206.6,142.5c-0.5-0.1-0.9-0.6-0.8-1.2l0.4-2c0.1-0.5,0.6-0.9,1.2-0.8l12.9,2.5
						c0.5,0.1,0.9,0.6,0.8,1.2l-0.4,2c-0.1,0.5-0.6,0.9-1.2,0.8L206.6,142.5z"/>
				</g>
			</g>
			<g>
				
					<image overflow="visible" opacity="0.75" width="46" height="37" xlink:href="DC844C75.png"  transform="matrix(1 0 0 1 191.4594 117)">
				</image>
				<g>
					<path fill="#FFFF00" d="M207.7,136.7c-0.5-0.1-0.9-0.6-0.9-1.1l0.3-2c0.1-0.5,0.6-0.9,1.1-0.9l13,1.6c0.5,0.1,0.9,0.6,0.9,1.1
						l-0.3,2c-0.1,0.5-0.6,0.9-1.1,0.9L207.7,136.7z"/>
				</g>
			</g>
			<g>
				
					<image overflow="visible" opacity="0.75" width="47" height="36" xlink:href="DC844C77.png"  transform="matrix(1 0 0 1 191.4594 111)">
				</image>
				<g>
					<path fill="#FFFF00" d="M208.3,130.9c-0.5,0-1-0.5-0.9-1.1l0.1-2c0-0.5,0.5-1,1.1-0.9l13.1,0.8c0.5,0,1,0.5,0.9,1.1l-0.1,2
						c0,0.5-0.5,1-1.1,0.9L208.3,130.9z"/>
				</g>
			</g>
			<g>
				
					<image overflow="visible" opacity="0.75" width="46" height="36" xlink:href="DC844C72.png"  transform="matrix(1 0 0 1 192.4594 105)">
				</image>
				<g>
					<path fill="#FFFF00" d="M208.6,125c-0.6,0-1-0.4-1-1v-2c0-0.6,0.4-1,1-1h13.1c0.6,0,1,0.4,1,1v2c0,0.6-0.4,1-1,1H208.6z"/>
				</g>
			</g>
			<g>
				
					<image overflow="visible" opacity="0.75" width="47" height="36" xlink:href="DC844C71.png"  transform="matrix(1 0 0 1 191.4594 99)">
				</image>
				<g>
					<path fill="#FFFF00" d="M208.6,119.1c-0.5,0-1-0.4-1.1-0.9l-0.1-2c0-0.5,0.4-1,0.9-1.1l13.1-0.8c0.5,0,1,0.4,1.1,0.9l0.1,2
						c0,0.5-0.4,1-0.9,1.1L208.6,119.1z"/>
				</g>
			</g>
			<g>
				
					<image overflow="visible" opacity="0.75" width="46" height="37" xlink:href="DC844C4D.png"  transform="matrix(1 0 0 1 191.4594 92)">
				</image>
				<g>
					<path fill="#FFFF00" d="M208.2,113.3c-0.5,0.1-1-0.3-1.1-0.9l-0.3-2c-0.1-0.5,0.3-1,0.9-1.1l13-1.6c0.5-0.1,1,0.3,1.1,0.9
						l0.3,2c0.1,0.5-0.3,1-0.9,1.1L208.2,113.3z"/>
				</g>
			</g>
			<g>
				
					<image overflow="visible" opacity="0.75" width="46" height="37" xlink:href="DC844C4F.png"  transform="matrix(1 0 0 1 190.4594 86)">
				</image>
				<g>
					<path fill="#FFFF00" d="M207.4,107.5c-0.5,0.1-1.1-0.3-1.2-0.8l-0.4-2c-0.1-0.5,0.3-1.1,0.8-1.2l12.9-2.5
						c0.5-0.1,1.1,0.3,1.2,0.8l0.4,2c0.1,0.5-0.3,1.1-0.8,1.2L207.4,107.5z"/>
				</g>
			</g>
			<g>
				
					<image overflow="visible" opacity="0.75" width="47" height="38" xlink:href="DC844C52.png"  transform="matrix(1 0 0 1 188.4594 79)">
				</image>
				<g>
					<path fill="#FFFF00" d="M206.2,101.7c-0.5,0.1-1.1-0.2-1.2-0.7l-0.5-2c-0.1-0.5,0.2-1.1,0.7-1.2l12.7-3.3
						c0.5-0.1,1.1,0.2,1.2,0.7l0.5,2c0.1,0.5-0.2,1.1-0.7,1.2L206.2,101.7z"/>
				</g>
			</g>
			<g>
				
					<image overflow="visible" opacity="0.75" width="46" height="39" xlink:href="DC844C53.png"  transform="matrix(1 0 0 1 187.4594 73)">
				</image>
				<g>
					<path fill="#FFFF00" d="M204.7,96c-0.5,0.2-1.1-0.1-1.3-0.6l-0.6-1.9c-0.2-0.5,0.1-1.1,0.6-1.3l12.4-4c0.5-0.2,1.1,0.1,1.3,0.6
						l0.6,1.9c0.2,0.5-0.1,1.1-0.6,1.3L204.7,96z"/>
				</g>
			</g>
			<g>
				
					<image overflow="visible" opacity="0.75" width="46" height="40" xlink:href="DC844C55.png"  transform="matrix(1 0 0 1 185.4594 66)">
				</image>
				<g>
					<path fill="#FFFF00" d="M202.8,90.5c-0.5,0.2-1.1-0.1-1.3-0.6l-0.7-1.9c-0.2-0.5,0.1-1.1,0.6-1.3l12.2-4.8
						c0.5-0.2,1.1,0.1,1.3,0.6l0.7,1.9c0.2,0.5-0.1,1.1-0.6,1.3L202.8,90.5z"/>
				</g>
			</g>
			<g>
				
					<image overflow="visible" opacity="0.75" width="46" height="41" xlink:href="DC844CB2.png"  transform="matrix(1 0 0 1 182.4594 60)">
				</image>
				<g>
					<path fill="#FFFF00" d="M200.6,85c-0.5,0.2-1.1,0-1.3-0.5l-0.9-1.8c-0.2-0.5,0-1.1,0.5-1.3l11.8-5.6c0.5-0.2,1.1,0,1.3,0.5
						l0.9,1.8c0.2,0.5,0,1.1-0.5,1.3L200.6,85z"/>
				</g>
			</g>
			<g>
				
					<image overflow="visible" opacity="0.75" width="45" height="41" xlink:href="DC844CB5.png"  transform="matrix(1 0 0 1 180.4594 54)">
				</image>
				<g>
					<path fill="#FFFF00" d="M198.1,79.8c-0.5,0.3-1.1,0.1-1.4-0.4l-1-1.8c-0.3-0.5-0.1-1.1,0.4-1.4l11.5-6.3
						c0.5-0.3,1.1-0.1,1.4,0.4l1,1.8c0.3,0.5,0.1,1.1-0.4,1.4L198.1,79.8z"/>
				</g>
			</g>
			<g>
				
					<image overflow="visible" opacity="0.75" width="45" height="41" xlink:href="DC844CB6.png"  transform="matrix(1 0 0 1 177.4594 49)">
				</image>
				<g>
					<path fill="#FFFF00" d="M195.2,74.6c-0.5,0.3-1.1,0.2-1.4-0.3l-1.1-1.7c-0.3-0.5-0.2-1.1,0.3-1.4l11.1-7
						c0.5-0.3,1.1-0.2,1.4,0.3l1.1,1.7c0.3,0.5,0.2,1.1-0.3,1.4L195.2,74.6z"/>
				</g>
			</g>
			<g>
				
					<image overflow="visible" opacity="0.75" width="45" height="42" xlink:href="DC844CB4.png"  transform="matrix(1 0 0 1 173.4594 43)">
				</image>
				<g>
					<path fill="#FFFF00" d="M192,69.7c-0.4,0.3-1.1,0.2-1.4-0.2l-1.2-1.6c-0.3-0.4-0.2-1.1,0.2-1.4l10.6-7.7
						c0.4-0.3,1.1-0.2,1.4,0.2l1.2,1.6c0.3,0.4,0.2,1.1-0.2,1.4L192,69.7z"/>
				</g>
			</g>
			<g>
				
					<image overflow="visible" opacity="0.75" width="44" height="43" xlink:href="DC844CB3.png"  transform="matrix(1 0 0 1 170.4594 38)">
				</image>
				<g>
					<path fill="#FFFF00" d="M188.5,65c-0.4,0.4-1.1,0.3-1.4-0.1l-1.3-1.6c-0.4-0.4-0.3-1.1,0.1-1.4l10.1-8.3
						c0.4-0.4,1.1-0.3,1.4,0.1l1.3,1.6c0.4,0.4,0.3,1.1-0.1,1.4L188.5,65z"/>
				</g>
			</g>
			<g>
				
					<image overflow="visible" opacity="0.75" width="44" height="43" xlink:href="DC844CBD.png"  transform="matrix(1 0 0 1 166.4594 33)">
				</image>
				<g>
					<path fill="#FFFF00" d="M184.7,60.5c-0.4,0.4-1,0.4-1.4,0l-1.4-1.5c-0.4-0.4-0.4-1,0-1.4l9.5-9c0.4-0.4,1-0.4,1.4,0l1.4,1.5
						c0.4,0.4,0.4,1,0,1.4L184.7,60.5z"/>
				</g>
			</g>
			<g>
				
					<image overflow="visible" opacity="0.75" width="44" height="44" xlink:href="DC844CBE.png"  transform="matrix(1 0 0 1 161.4594 28)">
				</image>
				<g>
					<path fill="#FFFF00" d="M180.6,56.3c-0.4,0.4-1,0.4-1.4,0l-1.5-1.4c-0.4-0.4-0.4-1,0-1.4l9-9.5c0.4-0.4,1-0.4,1.4,0l1.5,1.4
						c0.4,0.4,0.4,1,0,1.4L180.6,56.3z"/>
				</g>
			</g>
			<g>
				
					<image overflow="visible" opacity="0.75" width="43" height="44" xlink:href="DC844CBC.png"  transform="matrix(1 0 0 1 157.4594 24)">
				</image>
				<g>
					<path fill="#FFFF00" d="M176.3,52.3c-0.4,0.4-1,0.5-1.4,0.1l-1.6-1.3c-0.4-0.4-0.5-1-0.1-1.4l8.3-10.1c0.4-0.4,1-0.5,1.4-0.1
						l1.6,1.3c0.4,0.4,0.5,1,0.1,1.4L176.3,52.3z"/>
				</g>
			</g>
			<g>
				
					<image overflow="visible" opacity="0.75" width="43" height="45" xlink:href="DC844CB7.png"  transform="matrix(1 0 0 1 152.4594 20)">
				</image>
				<g>
					<path fill="#FFFF00" d="M171.8,48.6c-0.3,0.4-1,0.5-1.4,0.2l-1.6-1.2c-0.4-0.3-0.5-1-0.2-1.4l7.7-10.6c0.3-0.4,1-0.5,1.4-0.2
						l1.6,1.2c0.4,0.3,0.5,1,0.2,1.4L171.8,48.6z"/>
				</g>
			</g>
			<g>
				
					<image overflow="visible" opacity="0.75" width="42" height="45" xlink:href="DC844CC9.png"  transform="matrix(1 0 0 1 147.4594 16)">
				</image>
				<g>
					<path fill="#FFFF00" d="M167,45.2c-0.3,0.5-0.9,0.6-1.4,0.3l-1.7-1.1c-0.5-0.3-0.6-0.9-0.3-1.4l7-11.1c0.3-0.5,0.9-0.6,1.4-0.3
						l1.7,1.1c0.5,0.3,0.6,0.9,0.3,1.4L167,45.2z"/>
				</g>
			</g>
			<g>
				
					<image overflow="visible" opacity="0.75" width="41" height="45" xlink:href="DC844C99.png"  transform="matrix(1 0 0 1 142.4594 13)">
				</image>
				<g>
					<path fill="#FFFF00" d="M162,42.1c-0.3,0.5-0.9,0.7-1.4,0.4l-1.8-1c-0.5-0.3-0.7-0.9-0.4-1.4l6.3-11.5c0.3-0.5,0.9-0.7,1.4-0.4
						l1.8,1c0.5,0.3,0.7,0.9,0.4,1.4L162,42.1z"/>
				</g>
			</g>
			<g>
				
					<image overflow="visible" opacity="0.75" width="41" height="45" xlink:href="DC844C9B.png"  transform="matrix(1 0 0 1 137.4594 10)">
				</image>
				<g>
					<path fill="#FFFF00" d="M156.8,39.3c-0.2,0.5-0.8,0.7-1.3,0.5l-1.8-0.9c-0.5-0.2-0.7-0.8-0.5-1.3l5.6-11.8
						c0.2-0.5,0.8-0.7,1.3-0.5l1.8,0.9c0.5,0.2,0.7,0.8,0.5,1.3L156.8,39.3z"/>
				</g>
			</g>
			<g>
				
					<image overflow="visible" opacity="0.75" width="39" height="46" xlink:href="DC844C98.png"  transform="matrix(1 0 0 1 132.4594 7)">
				</image>
				<g>
					<path fill="#FFFF00" d="M151.5,36.9c-0.2,0.5-0.8,0.8-1.3,0.6l-1.9-0.7c-0.5-0.2-0.8-0.8-0.6-1.3l4.8-12.2
						c0.2-0.5,0.8-0.8,1.3-0.6l1.9,0.7c0.5,0.2,0.8,0.8,0.6,1.3L151.5,36.9z"/>
				</g>
			</g>
			<g>
				
					<image overflow="visible" opacity="0.75" width="39" height="46" xlink:href="DC844C97.png"  transform="matrix(1 0 0 1 126.4594 5)">
				</image>
				<g>
					<path fill="#FFFF00" d="M146,34.8c-0.2,0.5-0.7,0.8-1.3,0.6l-1.9-0.6c-0.5-0.2-0.8-0.7-0.6-1.3l4-12.4c0.2-0.5,0.7-0.8,1.3-0.6
						l1.9,0.6c0.5,0.2,0.8,0.7,0.6,1.3L146,34.8z"/>
				</g>
			</g>
			<g>
				
					<image overflow="visible" opacity="0.75" width="38" height="46" xlink:href="DC844CE9.png"  transform="matrix(1 0 0 1 121.4594 3)">
				</image>
				<g>
					<path fill="#FFFF00" d="M140.4,33c-0.1,0.5-0.7,0.9-1.2,0.7l-2-0.5c-0.5-0.1-0.9-0.7-0.7-1.2l3.3-12.7c0.1-0.5,0.7-0.9,1.2-0.7
						l2,0.5c0.5,0.1,0.9,0.7,0.7,1.2L140.4,33z"/>
				</g>
			</g>
			<g>
				
					<image overflow="visible" opacity="0.75" width="37" height="46" xlink:href="DC844CEB.png"  transform="matrix(1 0 0 1 115.4594 2)">
				</image>
				<g>
					<path fill="#FFFF00" d="M134.7,31.6c-0.1,0.5-0.6,0.9-1.2,0.8l-2-0.4c-0.5-0.1-0.9-0.6-0.8-1.2l2.5-12.9
						c0.1-0.5,0.6-0.9,1.2-0.8l2,0.4c0.5,0.1,0.9,0.6,0.8,1.2L134.7,31.6z"/>
				</g>
			</g>
			<g>
				
					<image overflow="visible" opacity="0.75" width="37" height="46" xlink:href="DC844CE8.png"  transform="matrix(1 0 0 1 109.4594 1)">
				</image>
				<g>
					<path fill="#FFFF00" d="M128.9,30.6c-0.1,0.5-0.6,0.9-1.1,0.9l-2-0.3c-0.5-0.1-0.9-0.6-0.9-1.1l1.6-13c0.1-0.5,0.6-0.9,1.1-0.9
						l2,0.3c0.5,0.1,0.9,0.6,0.9,1.1L128.9,30.6z"/>
				</g>
			</g>
		</g>
		<g>
			
				<image overflow="visible" opacity="0.75" width="36" height="46" xlink:href="DC844CEF.png"  transform="matrix(1 0 0 1 103.4594 0)">
			</image>
			<g>
				<path fill="#FFFF00" d="M123.1,29.9c0,0.5-0.5,1-1.1,0.9l-2-0.1c-0.5,0-1-0.5-0.9-1.1l0.8-13.1c0-0.5,0.5-1,1.1-0.9l2,0.1
					c0.5,0,1,0.5,0.9,1.1L123.1,29.9z"/>
			</g>
		</g>
	</g>
	<circle fill="none" stroke="#001937" stroke-width="3" cx="115.8" cy="123" r="64"/>
	<g>
		<g>
			<path fill="#001937" d="M118.8,41.5c0-0.5-0.5-1-1-1h-1.1c-0.6,0-1,0.5-1,1v7.7c0,0.6,0.4,1,1,1h1.1c0.5,0,1-0.5,1-1V41.5z"/>
		</g>
		<g>
			<path fill="#001937" d="M113.6,41.6c0-0.5-0.5-1-1.1-0.9l-1.1,0.1c-0.5,0-1,0.5-0.9,1.1l0.5,7.7c0,0.5,0.5,1,1.1,0.9l1.1-0.1
				c0.5,0,1-0.5,0.9-1.1L113.6,41.6z"/>
		</g>
		<g>
			<path fill="#001937" d="M108.5,41.9c-0.1-0.5-0.6-0.9-1.1-0.9l-1.1,0.1c-0.5,0.1-0.9,0.6-0.9,1.1l1,7.6c0.1,0.5,0.6,0.9,1.1,0.9
				l1.1-0.1c0.5-0.1,0.9-0.6,0.9-1.1L108.5,41.9z"/>
		</g>
		<g>
			<path fill="#001937" d="M103.5,42.7c-0.1-0.5-0.6-0.9-1.2-0.8l-1.1,0.2c-0.5,0.1-0.9,0.6-0.8,1.2l1.4,7.5
				c0.1,0.5,0.6,0.9,1.2,0.8l1.1-0.2c0.5-0.1,0.9-0.6,0.8-1.2L103.5,42.7z"/>
		</g>
		<g>
			<path fill="#001937" d="M98.4,43.7c-0.1-0.5-0.7-0.9-1.2-0.7l-1.1,0.3c-0.5,0.1-0.9,0.7-0.7,1.2l1.9,7.4c0.1,0.5,0.7,0.9,1.2,0.7
				l1.1-0.3c0.5-0.1,0.9-0.7,0.7-1.2L98.4,43.7z"/>
		</g>
		<g>
			<path fill="#001937" d="M93.5,45c-0.2-0.5-0.7-0.8-1.3-0.6l-1.1,0.3c-0.5,0.2-0.8,0.7-0.6,1.3l2.4,7.3c0.2,0.5,0.7,0.8,1.3,0.6
				l1.1-0.3c0.5-0.2,0.8-0.7,0.6-1.3L93.5,45z"/>
		</g>
		<g>
			<path fill="#001937" d="M88.7,46.6c-0.2-0.5-0.8-0.8-1.3-0.6l-1,0.4c-0.5,0.2-0.8,0.8-0.6,1.3l2.8,7.1c0.2,0.5,0.8,0.8,1.3,0.6
				l1-0.4c0.5-0.2,0.8-0.8,0.6-1.3L88.7,46.6z"/>
		</g>
		<g>
			<path fill="#001937" d="M83.9,48.6c-0.2-0.5-0.8-0.7-1.3-0.5l-1,0.5c-0.5,0.2-0.7,0.8-0.5,1.3l3.3,7c0.2,0.5,0.8,0.7,1.3,0.5
				l1-0.5c0.5-0.2,0.7-0.8,0.5-1.3L83.9,48.6z"/>
		</g>
		<g>
			<path fill="#001937" d="M79.3,50.8c-0.3-0.5-0.9-0.7-1.4-0.4L77,51c-0.5,0.3-0.7,0.9-0.4,1.4l3.7,6.7c0.3,0.5,0.9,0.7,1.4,0.4
				l1-0.5c0.5-0.3,0.7-0.9,0.4-1.4L79.3,50.8z"/>
		</g>
		<g>
			<path fill="#001937" d="M74.9,53.3c-0.3-0.5-0.9-0.6-1.4-0.3l-1,0.6c-0.5,0.3-0.6,0.9-0.3,1.4l4.1,6.5c0.3,0.5,0.9,0.6,1.4,0.3
				l1-0.6c0.5-0.3,0.6-0.9,0.3-1.4L74.9,53.3z"/>
		</g>
		<g>
			<path fill="#001937" d="M70.6,56.1c-0.3-0.4-1-0.5-1.4-0.2l-0.9,0.7c-0.4,0.3-0.5,1-0.2,1.4l4.5,6.2c0.3,0.4,1,0.5,1.4,0.2
				l0.9-0.7c0.4-0.3,0.5-1,0.2-1.4L70.6,56.1z"/>
		</g>
		<g>
			<path fill="#001937" d="M66.5,59.2c-0.4-0.4-1-0.5-1.4-0.1l-0.9,0.7c-0.4,0.4-0.5,1-0.1,1.4l4.9,5.9c0.4,0.4,1,0.5,1.4,0.1
				l0.9-0.7c0.4-0.4,0.5-1,0.1-1.4L66.5,59.2z"/>
		</g>
		<g>
			<path fill="#001937" d="M62.6,62.5c-0.4-0.4-1-0.4-1.4,0l-0.8,0.8c-0.4,0.4-0.4,1,0,1.4l5.3,5.6c0.4,0.4,1,0.4,1.4,0l0.8-0.8
				c0.4-0.4,0.4-1,0-1.4L62.6,62.5z"/>
		</g>
		<g>
			<path fill="#001937" d="M58.9,66.1c-0.4-0.4-1-0.4-1.4,0l-0.8,0.8c-0.4,0.4-0.4,1,0,1.4l5.6,5.3c0.4,0.4,1,0.4,1.4,0l0.8-0.8
				c0.4-0.4,0.4-1,0-1.4L58.9,66.1z"/>
		</g>
		<g>
			<path fill="#001937" d="M55.4,69.8C55,69.5,54.3,69.6,54,70l-0.7,0.9c-0.4,0.4-0.3,1.1,0.1,1.4l5.9,4.9c0.4,0.4,1.1,0.3,1.4-0.1
				l0.7-0.9c0.4-0.4,0.3-1.1-0.1-1.4L55.4,69.8z"/>
		</g>
		<g>
			<path fill="#001937" d="M52.2,73.8c-0.4-0.3-1.1-0.2-1.4,0.2L50.1,75c-0.3,0.4-0.2,1.1,0.2,1.4l6.2,4.5c0.4,0.3,1.1,0.2,1.4-0.2
				l0.7-0.9c0.3-0.4,0.2-1.1-0.2-1.4L52.2,73.8z"/>
		</g>
		<g>
			<path fill="#001937" d="M49.2,78c-0.5-0.3-1.1-0.2-1.4,0.3l-0.6,1c-0.3,0.5-0.2,1.1,0.3,1.4l6.5,4.1c0.5,0.3,1.1,0.2,1.4-0.3
				l0.6-1c0.3-0.5,0.2-1.1-0.3-1.4L49.2,78z"/>
		</g>
		<g>
			<path fill="#001937" d="M46.5,82.4c-0.5-0.3-1.1-0.1-1.4,0.4l-0.5,1c-0.3,0.5-0.1,1.1,0.4,1.4l6.7,3.7c0.5,0.3,1.1,0.1,1.4-0.4
				l0.5-1c0.3-0.5,0.1-1.1-0.4-1.4L46.5,82.4z"/>
		</g>
		<g>
			<path fill="#001937" d="M44.1,86.9c-0.5-0.2-1.1,0-1.3,0.5l-0.5,1c-0.2,0.5,0,1.1,0.5,1.3l7,3.3c0.5,0.2,1.1,0,1.3-0.5l0.5-1
				c0.2-0.5,0-1.1-0.5-1.3L44.1,86.9z"/>
		</g>
		<g>
			<path fill="#001937" d="M42,91.5c-0.5-0.2-1.1,0.1-1.3,0.6l-0.4,1c-0.2,0.5,0.1,1.1,0.6,1.3l7.1,2.8c0.5,0.2,1.1-0.1,1.3-0.6
				l0.4-1c0.2-0.5-0.1-1.1-0.6-1.3L42,91.5z"/>
		</g>
		<g>
			<path fill="#001937" d="M40.2,96.3c-0.5-0.2-1.1,0.1-1.3,0.6L38.6,98c-0.2,0.5,0.1,1.1,0.6,1.3l7.3,2.4c0.5,0.2,1.1-0.1,1.3-0.6
				l0.3-1.1c0.2-0.5-0.1-1.1-0.6-1.3L40.2,96.3z"/>
		</g>
		<g>
			<path fill="#001937" d="M38.7,101.2c-0.5-0.1-1.1,0.2-1.2,0.7l-0.3,1.1c-0.1,0.5,0.2,1.1,0.7,1.2l7.4,1.9
				c0.5,0.1,1.1-0.2,1.2-0.7l0.3-1.1c0.1-0.5-0.2-1.1-0.7-1.2L38.7,101.2z"/>
		</g>
		<g>
			<path fill="#001937" d="M37.4,106.2c-0.5-0.1-1.1,0.3-1.2,0.8l-0.2,1.1c-0.1,0.5,0.3,1.1,0.8,1.2l7.5,1.4
				c0.5,0.1,1.1-0.3,1.2-0.8l0.2-1.1c0.1-0.5-0.3-1.1-0.8-1.2L37.4,106.2z"/>
		</g>
		<g>
			<path fill="#001937" d="M36.5,111.2c-0.5-0.1-1,0.3-1.1,0.9l-0.1,1.1c-0.1,0.5,0.3,1,0.9,1.1l7.6,1c0.5,0.1,1-0.3,1.1-0.9
				l0.1-1.1c0.1-0.5-0.3-1-0.9-1.1L36.5,111.2z"/>
		</g>
		<g>
			<path fill="#001937" d="M36,116.3c-0.5,0-1,0.4-1.1,0.9l-0.1,1.1c0,0.5,0.4,1,0.9,1.1l7.7,0.5c0.5,0,1-0.4,1.1-0.9l0.1-1.1
				c0-0.5-0.4-1-0.9-1.1L36,116.3z"/>
		</g>
		<g>
			<path fill="#001937" d="M35.7,121.4c-0.5,0-1,0.4-1,1v1.1c0,0.5,0.5,1,1,1h7.7c0.6,0,1-0.5,1-1v-1.1c0-0.6-0.5-1-1-1H35.7z"/>
		</g>
		<g>
			<path fill="#001937" d="M35.8,126.6c-0.5,0-1,0.5-0.9,1.1l0.1,1.1c0,0.5,0.5,1,1.1,0.9l7.7-0.5c0.5,0,1-0.5,0.9-1.1l-0.1-1.1
				c0-0.5-0.5-1-1.1-0.9L35.8,126.6z"/>
		</g>
		<g>
			<path fill="#001937" d="M36.1,131.7c-0.5,0.1-0.9,0.6-0.9,1.1l0.1,1.1c0.1,0.5,0.6,0.9,1.1,0.9l7.6-1c0.5-0.1,0.9-0.6,0.9-1.1
				l-0.1-1.1c-0.1-0.5-0.6-0.9-1.1-0.9L36.1,131.7z"/>
		</g>
		<g>
			<path fill="#001937" d="M36.9,136.7c-0.5,0.1-0.9,0.6-0.8,1.2l0.2,1.1c0.1,0.5,0.6,0.9,1.2,0.8l7.5-1.4c0.5-0.1,0.9-0.6,0.8-1.2
				l-0.2-1.1c-0.1-0.5-0.6-0.9-1.2-0.8L36.9,136.7z"/>
		</g>
		<g>
			<path fill="#001937" d="M37.9,141.8c-0.5,0.1-0.9,0.7-0.7,1.2l0.3,1.1c0.1,0.5,0.7,0.9,1.2,0.7l7.4-1.9c0.5-0.1,0.9-0.7,0.7-1.2
				l-0.3-1.1c-0.1-0.5-0.7-0.9-1.2-0.7L37.9,141.8z"/>
		</g>
		<g>
			<path fill="#001937" d="M39.2,146.7c-0.5,0.2-0.8,0.7-0.6,1.3l0.3,1.1c0.2,0.5,0.7,0.8,1.3,0.6l7.3-2.4c0.5-0.2,0.8-0.7,0.6-1.3
				l-0.3-1.1c-0.2-0.5-0.7-0.8-1.3-0.6L39.2,146.7z"/>
		</g>
		<g>
			<path fill="#001937" d="M40.8,151.5c-0.5,0.2-0.8,0.8-0.6,1.3l0.4,1c0.2,0.5,0.8,0.8,1.3,0.6l7.1-2.8c0.5-0.2,0.8-0.8,0.6-1.3
				l-0.4-1c-0.2-0.5-0.8-0.8-1.3-0.6L40.8,151.5z"/>
		</g>
		<g>
			<path fill="#001937" d="M42.8,156.3c-0.5,0.2-0.7,0.8-0.5,1.3l0.5,1c0.2,0.5,0.8,0.7,1.3,0.5l7-3.3c0.5-0.2,0.7-0.8,0.5-1.3
				l-0.5-1c-0.2-0.5-0.8-0.7-1.3-0.5L42.8,156.3z"/>
		</g>
		<g>
			<path fill="#001937" d="M45,160.9c-0.5,0.3-0.7,0.9-0.4,1.4l0.5,1c0.3,0.5,0.9,0.7,1.4,0.4l6.7-3.7c0.5-0.3,0.7-0.9,0.4-1.4
				l-0.5-1c-0.3-0.5-0.9-0.7-1.4-0.4L45,160.9z"/>
		</g>
		<g>
			<path fill="#001937" d="M47.6,165.4c-0.5,0.3-0.6,0.9-0.3,1.4l0.6,1c0.3,0.5,0.9,0.6,1.4,0.3l6.5-4.1c0.5-0.3,0.6-0.9,0.3-1.4
				l-0.6-1c-0.3-0.5-0.9-0.6-1.4-0.3L47.6,165.4z"/>
		</g>
		<g>
			<path fill="#001937" d="M50.3,169.6c-0.4,0.3-0.5,1-0.2,1.4l0.7,0.9c0.3,0.4,1,0.5,1.4,0.2l6.2-4.5c0.4-0.3,0.5-1,0.2-1.4
				l-0.7-0.9c-0.3-0.4-1-0.5-1.4-0.2L50.3,169.6z"/>
		</g>
		<g>
			<path fill="#001937" d="M53.4,173.7c-0.4,0.4-0.5,1-0.1,1.4L54,176c0.4,0.4,1,0.5,1.4,0.1l5.9-4.9c0.4-0.4,0.5-1,0.1-1.4
				l-0.7-0.9c-0.4-0.4-1-0.5-1.4-0.1L53.4,173.7z"/>
		</g>
		<g>
			<path fill="#001937" d="M56.7,177.7c-0.4,0.4-0.4,1,0,1.4l0.8,0.8c0.4,0.4,1,0.4,1.4,0l5.6-5.3c0.4-0.4,0.4-1,0-1.4l-0.8-0.8
				c-0.4-0.4-1-0.4-1.4,0L56.7,177.7z"/>
		</g>
		<g>
			<path fill="#001937" d="M60.3,181.3c-0.4,0.4-0.4,1,0,1.4l0.8,0.8c0.4,0.4,1,0.4,1.4,0l5.3-5.6c0.4-0.4,0.4-1,0-1.4l-0.8-0.8
				c-0.4-0.4-1-0.4-1.4,0L60.3,181.3z"/>
		</g>
		<g>
			<path fill="#001937" d="M64,184.8c-0.4,0.4-0.3,1.1,0.1,1.4l0.9,0.7c0.4,0.4,1.1,0.3,1.4-0.1l4.9-5.9c0.4-0.4,0.3-1.1-0.1-1.4
				l-0.9-0.7c-0.4-0.4-1.1-0.3-1.4,0.1L64,184.8z"/>
		</g>
		<g>
			<path fill="#001937" d="M68,188c-0.3,0.4-0.2,1.1,0.2,1.4l0.9,0.7c0.4,0.3,1.1,0.2,1.4-0.2l4.5-6.2c0.3-0.4,0.2-1.1-0.2-1.4
				l-0.9-0.7c-0.4-0.3-1.1-0.2-1.4,0.2L68,188z"/>
		</g>
		<g>
			<path fill="#001937" d="M72.2,191c-0.3,0.5-0.2,1.1,0.3,1.4l1,0.6c0.5,0.3,1.1,0.2,1.4-0.3l4.1-6.5c0.3-0.5,0.2-1.1-0.3-1.4
				l-1-0.6c-0.5-0.3-1.1-0.2-1.4,0.3L72.2,191z"/>
		</g>
		<g>
			<path fill="#001937" d="M76.6,193.7c-0.3,0.5-0.1,1.1,0.4,1.4l1,0.5c0.5,0.3,1.1,0.1,1.4-0.4l3.7-6.7c0.3-0.5,0.1-1.1-0.4-1.4
				l-1-0.5c-0.5-0.3-1.1-0.1-1.4,0.4L76.6,193.7z"/>
		</g>
		<g>
			<path fill="#001937" d="M81.1,196.1c-0.2,0.5,0,1.1,0.5,1.3l1,0.5c0.5,0.2,1.1,0,1.3-0.5l3.3-7c0.2-0.5,0-1.1-0.5-1.3l-1-0.5
				c-0.5-0.2-1.1,0-1.3,0.5L81.1,196.1z"/>
		</g>
		<g>
			<path fill="#001937" d="M85.7,198.2c-0.2,0.5,0.1,1.1,0.6,1.3l1,0.4c0.5,0.2,1.1-0.1,1.3-0.6l2.8-7.1c0.2-0.5-0.1-1.1-0.6-1.3
				l-1-0.4c-0.5-0.2-1.1,0.1-1.3,0.6L85.7,198.2z"/>
		</g>
		<g>
			<path fill="#001937" d="M90.5,200c-0.2,0.5,0.1,1.1,0.6,1.3l1.1,0.3c0.5,0.2,1.1-0.1,1.3-0.6l2.4-7.3c0.2-0.5-0.1-1.1-0.6-1.3
				l-1.1-0.3c-0.5-0.2-1.1,0.1-1.3,0.6L90.5,200z"/>
		</g>
		<g>
			<path fill="#001937" d="M95.4,201.6c-0.1,0.5,0.2,1.1,0.7,1.2l1.1,0.3c0.5,0.1,1.1-0.2,1.2-0.7l1.9-7.4c0.1-0.5-0.2-1.1-0.7-1.2
				l-1.1-0.3c-0.5-0.1-1.1,0.2-1.2,0.7L95.4,201.6z"/>
		</g>
		<g>
			<path fill="#001937" d="M100.4,202.8c-0.1,0.5,0.3,1.1,0.8,1.2l1.1,0.2c0.5,0.1,1.1-0.3,1.2-0.8l1.4-7.5c0.1-0.5-0.3-1.1-0.8-1.2
				l-1.1-0.2c-0.5-0.1-1.1,0.3-1.2,0.8L100.4,202.8z"/>
		</g>
		<g>
			<path fill="#001937" d="M105.4,203.7c-0.1,0.5,0.3,1,0.9,1.1l1.1,0.1c0.5,0.1,1-0.3,1.1-0.9l1-7.6c0.1-0.5-0.3-1-0.9-1.1
				l-1.1-0.1c-0.5-0.1-1,0.3-1.1,0.9L105.4,203.7z"/>
		</g>
		<g>
			<path fill="#001937" d="M110.5,204.2c0,0.5,0.4,1,0.9,1.1l1.1,0.1c0.5,0,1-0.4,1.1-0.9l0.5-7.7c0-0.5-0.4-1-0.9-1.1l-1.1-0.1
				c-0.5,0-1,0.4-1.1,0.9L110.5,204.2z"/>
		</g>
		<g>
			<path fill="#001937" d="M115.6,204.5c0,0.6,0.5,1,1,1h1.1c0.6,0,1-0.4,1-1v-7.7c0-0.5-0.4-1-1-1h-1.1c-0.5,0-1,0.5-1,1V204.5z"/>
		</g>
		<g>
			<path fill="#001937" d="M120.8,204.4c0,0.5,0.5,1,1.1,0.9l1.1-0.1c0.5,0,1-0.5,0.9-1.1l-0.5-7.7c0-0.5-0.5-1-1.1-0.9l-1.1,0.1
				c-0.5,0-1,0.5-0.9,1.1L120.8,204.4z"/>
		</g>
		<g>
			<path fill="#001937" d="M125.9,204.1c0.1,0.5,0.6,0.9,1.1,0.9l1.1-0.1c0.5-0.1,0.9-0.6,0.9-1.1l-1-7.6c-0.1-0.5-0.6-0.9-1.1-0.9
				l-1.1,0.1c-0.5,0.1-0.9,0.6-0.9,1.1L125.9,204.1z"/>
		</g>
		<g>
			<path fill="#001937" d="M130.9,203.3c0.1,0.5,0.6,0.9,1.2,0.8l1.1-0.2c0.5-0.1,0.9-0.6,0.8-1.2l-1.4-7.5
				c-0.1-0.5-0.6-0.9-1.2-0.8l-1.1,0.2c-0.5,0.1-0.9,0.6-0.8,1.2L130.9,203.3z"/>
		</g>
		<g>
			<path fill="#001937" d="M136,202.3c0.1,0.5,0.7,0.9,1.2,0.7l1.1-0.3c0.5-0.1,0.9-0.7,0.7-1.2l-1.9-7.4c-0.1-0.5-0.7-0.9-1.2-0.7
				l-1.1,0.3c-0.5,0.1-0.9,0.7-0.7,1.2L136,202.3z"/>
		</g>
		<g>
			<path fill="#001937" d="M140.9,201c0.2,0.5,0.7,0.8,1.3,0.6l1.1-0.3c0.5-0.2,0.8-0.7,0.6-1.3l-2.4-7.3c-0.2-0.5-0.7-0.8-1.3-0.6
				l-1.1,0.3c-0.5,0.2-0.8,0.7-0.6,1.3L140.9,201z"/>
		</g>
		<g>
			<path fill="#001937" d="M145.8,199.4c0.2,0.5,0.8,0.8,1.3,0.6l1-0.4c0.5-0.2,0.8-0.8,0.6-1.3l-2.8-7.1c-0.2-0.5-0.8-0.8-1.3-0.6
				l-1,0.4c-0.5,0.2-0.8,0.8-0.6,1.3L145.8,199.4z"/>
		</g>
		<g>
			<path fill="#001937" d="M150.5,197.4c0.2,0.5,0.8,0.7,1.3,0.5l1-0.5c0.5-0.2,0.7-0.8,0.5-1.3l-3.3-7c-0.2-0.5-0.8-0.7-1.3-0.5
				l-1,0.5c-0.5,0.2-0.7,0.8-0.5,1.3L150.5,197.4z"/>
		</g>
		<g>
			<path fill="#001937" d="M155.1,195.2c0.3,0.5,0.9,0.7,1.4,0.4l1-0.5c0.5-0.3,0.7-0.9,0.4-1.4l-3.7-6.7c-0.3-0.5-0.9-0.7-1.4-0.4
				l-1,0.5c-0.5,0.3-0.7,0.9-0.4,1.4L155.1,195.2z"/>
		</g>
		<g>
			<path fill="#001937" d="M159.6,192.7c0.3,0.5,0.9,0.6,1.4,0.3l1-0.6c0.5-0.3,0.6-0.9,0.3-1.4l-4.1-6.5c-0.3-0.5-0.9-0.6-1.4-0.3
				l-1,0.6c-0.5,0.3-0.6,0.9-0.3,1.4L159.6,192.7z"/>
		</g>
		<g>
			<path fill="#001937" d="M163.8,189.9c0.3,0.4,1,0.5,1.4,0.2l0.9-0.7c0.4-0.3,0.5-1,0.2-1.4l-4.5-6.2c-0.3-0.4-1-0.5-1.4-0.2
				l-0.9,0.7c-0.4,0.3-0.5,1-0.2,1.4L163.8,189.9z"/>
		</g>
		<g>
			<path fill="#001937" d="M167.9,186.8c0.4,0.4,1,0.5,1.4,0.1l0.9-0.7c0.4-0.4,0.5-1,0.1-1.4l-4.9-5.9c-0.4-0.4-1-0.5-1.4-0.1
				l-0.9,0.7c-0.4,0.4-0.5,1-0.1,1.4L167.9,186.8z"/>
		</g>
		<g>
			<path fill="#001937" d="M171.9,183.5c0.4,0.4,1,0.4,1.4,0l0.8-0.8c0.4-0.4,0.4-1,0-1.4l-5.3-5.6c-0.4-0.4-1-0.4-1.4,0l-0.8,0.8
				c-0.4,0.4-0.4,1,0,1.4L171.9,183.5z"/>
		</g>
		<g>
			<path fill="#001937" d="M175.5,179.9c0.4,0.4,1,0.4,1.4,0l0.8-0.8c0.4-0.4,0.4-1,0-1.4l-5.6-5.3c-0.4-0.4-1-0.4-1.4,0l-0.8,0.8
				c-0.4,0.4-0.4,1,0,1.4L175.5,179.9z"/>
		</g>
		<g>
			<path fill="#001937" d="M179,176.2c0.4,0.4,1.1,0.3,1.4-0.1l0.7-0.9c0.4-0.4,0.3-1.1-0.1-1.4l-5.9-4.9c-0.4-0.4-1.1-0.3-1.4,0.1
				l-0.7,0.9c-0.4,0.4-0.3,1.1,0.1,1.4L179,176.2z"/>
		</g>
		<g>
			<path fill="#001937" d="M182.2,172.2c0.4,0.3,1.1,0.2,1.4-0.2l0.7-0.9c0.3-0.4,0.2-1.1-0.2-1.4l-6.2-4.5
				c-0.4-0.3-1.1-0.2-1.4,0.2l-0.7,0.9c-0.3,0.4-0.2,1.1,0.2,1.4L182.2,172.2z"/>
		</g>
		<g>
			<path fill="#001937" d="M185.2,168c0.5,0.3,1.1,0.2,1.4-0.3l0.6-1c0.3-0.5,0.2-1.1-0.3-1.4l-6.5-4.1c-0.5-0.3-1.1-0.2-1.4,0.3
				l-0.6,1c-0.3,0.5-0.2,1.1,0.3,1.4L185.2,168z"/>
		</g>
		<g>
			<path fill="#001937" d="M187.9,163.6c0.5,0.3,1.1,0.1,1.4-0.4l0.5-1c0.3-0.5,0.1-1.1-0.4-1.4l-6.7-3.7c-0.5-0.3-1.1-0.1-1.4,0.4
				l-0.5,1c-0.3,0.5-0.1,1.1,0.4,1.4L187.9,163.6z"/>
		</g>
		<g>
			<path fill="#001937" d="M190.3,159.1c0.5,0.2,1.1,0,1.3-0.5l0.5-1c0.2-0.5,0-1.1-0.5-1.3l-7-3.3c-0.5-0.2-1.1,0-1.3,0.5l-0.5,1
				c-0.2,0.5,0,1.1,0.5,1.3L190.3,159.1z"/>
		</g>
		<g>
			<path fill="#001937" d="M192.4,154.5c0.5,0.2,1.1-0.1,1.3-0.6l0.4-1c0.2-0.5-0.1-1.1-0.6-1.3l-7.1-2.8c-0.5-0.2-1.1,0.1-1.3,0.6
				l-0.4,1c-0.2,0.5,0.1,1.1,0.6,1.3L192.4,154.5z"/>
		</g>
		<g>
			<path fill="#001937" d="M194.2,149.7c0.5,0.2,1.1-0.1,1.3-0.6l0.3-1.1c0.2-0.5-0.1-1.1-0.6-1.3l-7.3-2.4
				c-0.5-0.2-1.1,0.1-1.3,0.6l-0.3,1.1c-0.2,0.5,0.1,1.1,0.6,1.3L194.2,149.7z"/>
		</g>
		<g>
			<path fill="#001937" d="M195.8,144.8c0.5,0.1,1.1-0.2,1.2-0.7l0.3-1.1c0.1-0.5-0.2-1.1-0.7-1.2l-7.4-1.9
				c-0.5-0.1-1.1,0.2-1.2,0.7l-0.3,1.1c-0.1,0.5,0.2,1.1,0.7,1.2L195.8,144.8z"/>
		</g>
		<g>
			<path fill="#001937" d="M197,139.8c0.5,0.1,1.1-0.3,1.2-0.8l0.2-1.1c0.1-0.5-0.3-1.1-0.8-1.2l-7.5-1.4c-0.5-0.1-1.1,0.3-1.2,0.8
				l-0.2,1.1c-0.1,0.5,0.3,1.1,0.8,1.2L197,139.8z"/>
		</g>
		<g>
			<path fill="#001937" d="M197.9,134.8c0.5,0.1,1-0.3,1.1-0.9l0.1-1.1c0.1-0.5-0.3-1-0.9-1.1l-7.6-1c-0.5-0.1-1,0.3-1.1,0.9
				l-0.1,1.1c-0.1,0.5,0.3,1,0.9,1.1L197.9,134.8z"/>
		</g>
		<g>
			<path fill="#001937" d="M198.4,129.7c0.5,0,1-0.4,1.1-0.9l0.1-1.1c0-0.5-0.4-1-0.9-1.1l-7.7-0.5c-0.5,0-1,0.4-1.1,0.9l-0.1,1.1
				c0,0.5,0.4,1,0.9,1.1L198.4,129.7z"/>
		</g>
		<g>
			<path fill="#001937" d="M198.7,124.6c0.6,0,1-0.4,1-1v-1.1c0-0.5-0.4-1-1-1H191c-0.6,0-1,0.5-1,1v1.1c0,0.6,0.4,1,1,1H198.7z"/>
		</g>
		<g>
			<path fill="#001937" d="M198.6,119.4c0.5,0,1-0.5,0.9-1.1l-0.1-1.1c0-0.5-0.5-1-1.1-0.9l-7.7,0.5c-0.5,0-1,0.5-0.9,1.1l0.1,1.1
				c0,0.5,0.5,1,1.1,0.9L198.6,119.4z"/>
		</g>
		<g>
			<path fill="#001937" d="M198.3,114.3c0.5-0.1,0.9-0.6,0.9-1.1l-0.1-1.1c-0.1-0.5-0.6-0.9-1.1-0.9l-7.6,1
				c-0.5,0.1-0.9,0.6-0.9,1.1l0.1,1.1c0.1,0.5,0.6,0.9,1.1,0.9L198.3,114.3z"/>
		</g>
		<g>
			<path fill="#001937" d="M197.6,109.3c0.5-0.1,0.9-0.6,0.8-1.2l-0.2-1.1c-0.1-0.5-0.6-0.9-1.2-0.8l-7.5,1.4
				c-0.5,0.1-0.9,0.6-0.8,1.2l0.2,1.1c0.1,0.5,0.6,0.9,1.2,0.8L197.6,109.3z"/>
		</g>
		<g>
			<path fill="#001937" d="M196.5,104.2c0.5-0.1,0.9-0.7,0.7-1.2l-0.3-1.1c-0.1-0.5-0.7-0.9-1.2-0.7l-7.4,1.9
				c-0.5,0.1-0.9,0.7-0.7,1.2l0.3,1.1c0.1,0.5,0.7,0.9,1.2,0.7L196.5,104.2z"/>
		</g>
		<g>
			<path fill="#001937" d="M195.2,99.3c0.5-0.2,0.8-0.7,0.6-1.3l-0.3-1.1c-0.2-0.5-0.7-0.8-1.3-0.6l-7.3,2.4
				c-0.5,0.2-0.8,0.7-0.6,1.3l0.3,1.1c0.2,0.5,0.7,0.8,1.3,0.6L195.2,99.3z"/>
		</g>
		<g>
			<path fill="#001937" d="M193.6,94.5c0.5-0.2,0.8-0.8,0.6-1.3l-0.4-1c-0.2-0.5-0.8-0.8-1.3-0.6l-7.1,2.8c-0.5,0.2-0.8,0.8-0.6,1.3
				l0.4,1c0.2,0.5,0.8,0.8,1.3,0.6L193.6,94.5z"/>
		</g>
		<g>
			<path fill="#001937" d="M191.6,89.7c0.5-0.2,0.7-0.8,0.5-1.3l-0.5-1c-0.2-0.5-0.8-0.7-1.3-0.5l-7,3.3c-0.5,0.2-0.7,0.8-0.5,1.3
				l0.5,1c0.2,0.5,0.8,0.7,1.3,0.5L191.6,89.7z"/>
		</g>
		<g>
			<path fill="#001937" d="M189.4,85.1c0.5-0.3,0.7-0.9,0.4-1.4l-0.5-1c-0.3-0.5-0.9-0.7-1.4-0.4l-6.7,3.7c-0.5,0.3-0.7,0.9-0.4,1.4
				l0.5,1c0.3,0.5,0.9,0.7,1.4,0.4L189.4,85.1z"/>
		</g>
		<g>
			<path fill="#001937" d="M186.9,80.6c0.5-0.3,0.6-0.9,0.3-1.4l-0.6-1c-0.3-0.5-0.9-0.6-1.4-0.3l-6.5,4.1c-0.5,0.3-0.6,0.9-0.3,1.4
				l0.6,1c0.3,0.5,0.9,0.6,1.4,0.3L186.9,80.6z"/>
		</g>
		<g>
			<path fill="#001937" d="M184.1,76.4c0.4-0.3,0.5-1,0.2-1.4l-0.7-0.9c-0.3-0.4-1-0.5-1.4-0.2l-6.2,4.5c-0.4,0.3-0.5,1-0.2,1.4
				l0.7,0.9c0.3,0.4,1,0.5,1.4,0.2L184.1,76.4z"/>
		</g>
		<g>
			<path fill="#001937" d="M181,72.3c0.4-0.4,0.5-1,0.1-1.4l-0.7-0.9c-0.4-0.4-1-0.5-1.4-0.1l-5.9,4.9c-0.4,0.4-0.5,1-0.1,1.4
				l0.7,0.9c0.4,0.4,1,0.5,1.4,0.1L181,72.3z"/>
		</g>
		<g>
			<path fill="#001937" d="M177.7,68.3c0.4-0.4,0.4-1,0-1.4l-0.8-0.8c-0.4-0.4-1-0.4-1.4,0l-5.6,5.3c-0.4,0.4-0.4,1,0,1.4l0.8,0.8
				c0.4,0.4,1,0.4,1.4,0L177.7,68.3z"/>
		</g>
		<g>
			<path fill="#001937" d="M174.1,64.7c0.4-0.4,0.4-1,0-1.4l-0.8-0.8c-0.4-0.4-1-0.4-1.4,0l-5.3,5.6c-0.4,0.4-0.4,1,0,1.4l0.8,0.8
				c0.4,0.4,1,0.4,1.4,0L174.1,64.7z"/>
		</g>
		<g>
			<path fill="#001937" d="M170.4,61.2c0.4-0.4,0.3-1.1-0.1-1.4l-0.9-0.7c-0.4-0.4-1.1-0.3-1.4,0.1l-4.9,5.9
				c-0.4,0.4-0.3,1.1,0.1,1.4l0.9,0.7c0.4,0.4,1.1,0.3,1.4-0.1L170.4,61.2z"/>
		</g>
		<g>
			<path fill="#001937" d="M166.4,58c0.3-0.4,0.2-1.1-0.2-1.4l-0.9-0.7c-0.4-0.3-1.1-0.2-1.4,0.2l-4.5,6.2c-0.3,0.4-0.2,1.1,0.2,1.4
				l0.9,0.7c0.4,0.3,1.1,0.2,1.4-0.2L166.4,58z"/>
		</g>
		<g>
			<path fill="#001937" d="M162.2,55c0.3-0.5,0.2-1.1-0.3-1.4l-1-0.6c-0.5-0.3-1.1-0.2-1.4,0.3l-4.1,6.5c-0.3,0.5-0.2,1.1,0.3,1.4
				l1,0.6c0.5,0.3,1.1,0.2,1.4-0.3L162.2,55z"/>
		</g>
		<g>
			<path fill="#001937" d="M157.8,52.3c0.3-0.5,0.1-1.1-0.4-1.4l-1-0.5c-0.5-0.3-1.1-0.1-1.4,0.4l-3.7,6.7c-0.3,0.5-0.1,1.1,0.4,1.4
				l1,0.5c0.5,0.3,1.1,0.1,1.4-0.4L157.8,52.3z"/>
		</g>
		<g>
			<path fill="#001937" d="M153.3,49.9c0.2-0.5,0-1.1-0.5-1.3l-1-0.5c-0.5-0.2-1.1,0-1.3,0.5l-3.3,7c-0.2,0.5,0,1.1,0.5,1.3l1,0.5
				c0.5,0.2,1.1,0,1.3-0.5L153.3,49.9z"/>
		</g>
		<g>
			<path fill="#001937" d="M148.7,47.8c0.2-0.5-0.1-1.1-0.6-1.3l-1-0.4c-0.5-0.2-1.1,0.1-1.3,0.6l-2.8,7.1c-0.2,0.5,0.1,1.1,0.6,1.3
				l1,0.4c0.5,0.2,1.1-0.1,1.3-0.6L148.7,47.8z"/>
		</g>
		<g>
			<path fill="#001937" d="M143.9,46c0.2-0.5-0.1-1.1-0.6-1.3l-1.1-0.3c-0.5-0.2-1.1,0.1-1.3,0.6l-2.4,7.3c-0.2,0.5,0.1,1.1,0.6,1.3
				l1.1,0.3c0.5,0.2,1.1-0.1,1.3-0.6L143.9,46z"/>
		</g>
		<g>
			<path fill="#001937" d="M139,44.4c0.1-0.5-0.2-1.1-0.7-1.2l-1.1-0.3c-0.5-0.1-1.1,0.2-1.2,0.7l-1.9,7.4c-0.1,0.5,0.2,1.1,0.7,1.2
				l1.1,0.3c0.5,0.1,1.1-0.2,1.2-0.7L139,44.4z"/>
		</g>
		<g>
			<path fill="#001937" d="M134,43.2c0.1-0.5-0.3-1.1-0.8-1.2l-1.1-0.2c-0.5-0.1-1.1,0.3-1.2,0.8l-1.4,7.5c-0.1,0.5,0.3,1.1,0.8,1.2
				l1.1,0.2c0.5,0.1,1.1-0.3,1.2-0.8L134,43.2z"/>
		</g>
		<g>
			<path fill="#001937" d="M129,42.3c0.1-0.5-0.3-1-0.9-1.1l-1.1-0.1c-0.5-0.1-1,0.3-1.1,0.9l-1,7.6c-0.1,0.5,0.3,1,0.9,1.1l1.1,0.1
				c0.5,0.1,1-0.3,1.1-0.9L129,42.3z"/>
		</g>
		<g>
			<path fill="#001937" d="M123.9,41.8c0-0.5-0.4-1-0.9-1.1l-1.1-0.1c-0.5,0-1,0.4-1.1,0.9l-0.5,7.7c0,0.5,0.4,1,0.9,1.1l1.1,0.1
				c0.5,0,1-0.4,1.1-0.9L123.9,41.8z"/>
		</g>
	</g>
	<circle fill="none" stroke="#001937" cx="115.2" cy="123" r="87.5"/>
</g>
</svg>
