<?xml version="1.0" encoding="utf-8"?>
<!-- Generator: Adobe Illustrator 16.0.0, SVG Export Plug-In . SVG Version: 6.00 Build 0)  -->
<!DOCTYPE svg PUBLIC "-//W3C//DTD SVG 1.1//EN" "http://www.w3.org/Graphics/SVG/1.1/DTD/svg11.dtd">
<svg version="1.1" id="eba" xmlns="http://www.w3.org/2000/svg" xmlns:xlink="http://www.w3.org/1999/xlink" x="0px" y="0px"
	 width="595.28px" height="841.89px" viewBox="0 0 595.28 841.89" enable-background="new 0 0 595.28 841.89" xml:space="preserve">
<path id="Hi-Tech_x5F_Circular_x5F_part_85_" display="none" fill="#000F21" d="M216.669,239.482
	c-9.154,0-16.566,7.422-16.566,16.572c0,9.151,7.412,16.57,16.566,16.57c9.149,0,16.573-7.419,16.573-16.57
	C233.243,246.904,225.819,239.482,216.669,239.482z M216.669,268.801c-7.035,0-12.744-5.708-12.744-12.747
	c0-7.042,5.709-12.749,12.744-12.749c7.041,0,12.75,5.707,12.75,12.749C229.419,263.093,223.71,268.801,216.669,268.801z"/>
<path id="Hi-Tech_x5F_Circular_x5F_part_84_" display="none" opacity="0.7" d="M216.675,197.205
	c-32.504,0-58.848,26.349-58.848,58.85c0,32.5,26.344,58.846,58.848,58.846c32.499,0,58.842-26.346,58.842-58.846
	C275.517,223.553,249.174,197.205,216.675,197.205z M252.167,289.707l-3.793-1.34c-5.386,5.283-12.089,9.234-19.572,11.31
	l-0.73,3.951c-3.66,0.872-7.475,1.337-11.402,1.337c-3.922,0-7.736-0.465-11.396-1.337l-0.73-3.951
	c-7.482-2.075-14.186-6.026-19.571-11.31l-3.788,1.34c-5.236-5.516-9.193-12.249-11.406-19.735l3.047-2.61
	c-0.93-3.614-1.422-7.4-1.422-11.307c0-3.905,0.492-7.697,1.422-11.312l-3.047-2.608c2.213-7.482,6.17-14.219,11.401-19.732
	l3.793,1.34c5.386-5.287,12.089-9.236,19.571-11.312l0.73-3.954c3.66-0.871,7.475-1.337,11.396-1.337
	c3.928,0,7.742,0.466,11.402,1.337l0.73,3.954c7.483,2.075,14.187,6.024,19.572,11.312l3.793-1.34
	c5.23,5.518,9.188,12.25,11.406,19.735l-3.058,2.605c0.935,3.614,1.427,7.406,1.427,11.312c0,3.906-0.492,7.692-1.427,11.307
	l3.058,2.61C261.356,277.458,257.398,284.191,252.167,289.707z"/>
<path id="Hi-Tech_x5F_Circular_x5F_part_82_" display="none" fill="#000F21" d="M216.669,191.873
	c-35.383,0-64.177,28.791-64.177,64.182c0,35.386,28.794,64.178,64.177,64.178c35.393,0,64.184-28.792,64.184-64.178
	C280.853,220.664,252.062,191.873,216.669,191.873z M216.669,317.546c-33.906,0-61.491-27.584-61.491-61.492
	s27.585-61.492,61.491-61.492c33.912,0,61.498,27.584,61.498,61.492S250.582,317.546,216.669,317.546z"/>
<path id="Hi-Tech_x5F_Circular_x5F_part_3_" opacity="0.4" fill="#336AA0" d="M381.585,297.603h-2.22l-1.124,1.121h-36.885
	c-0.284-12.872-5.47-24.562-13.76-33.265l26.063-26.069h1.597l1.571-1.571C371.698,253.46,381.019,274.444,381.585,297.603z
	 M325.808,267.246c7.846,8.229,12.757,19.281,13.036,31.478h1.72c-0.289-12.653-5.38-24.146-13.528-32.703L325.808,267.246z
	 M338.844,300.976c-0.279,12.197-5.19,23.25-13.036,31.479l1.228,1.22c8.148-8.56,13.239-20.046,13.528-32.7H338.844z
	 M327.597,334.237l26.063,26.073h1.597l1.571,1.568c14.871-15.639,24.191-36.623,24.758-59.778h-2.22l-1.124-1.124h-36.885
	C341.072,313.848,335.887,325.536,327.597,334.237z M242.385,300.976c0.293,12.723,5.442,24.267,13.67,32.846l1.363-1.366
	c-7.851-8.23-12.759-19.282-13.044-31.479H242.385z M255.493,334.382c-8.374-8.72-13.614-20.461-13.897-33.406h-36.611l-1.123,1.124
	h-2.221c0.567,23.155,9.882,44.14,24.761,59.778l1.571-1.568h1.587L255.493,334.382z M201.642,297.603h2.221l1.123,1.121h36.611
	c0.283-12.946,5.523-24.687,13.897-33.408l-25.932-25.927h-1.587l-1.571-1.571C211.524,253.46,202.209,274.444,201.642,297.603z
	 M244.374,298.724c0.285-12.197,5.193-23.249,13.044-31.478l-1.363-1.369c-8.228,8.579-13.376,20.12-13.67,32.847H244.374z
	 M229.583,234.64l1.569,1.57v1.592l26.07,26.064c8.703-8.292,20.391-13.477,33.267-13.765v-36.875l-1.122-1.13v-2.221
	C266.208,210.448,245.224,219.761,229.583,234.64z M259.01,265.659c8.226-7.852,19.279-12.763,31.48-13.044V250.9
	c-12.658,0.286-24.146,5.382-32.706,13.527L259.01,265.659z M292.741,252.615c12.194,0.281,23.245,5.192,31.474,13.044l1.23-1.232
	c-8.567-8.146-20.051-13.242-32.704-13.527V252.615z M326.008,263.866l26.061-26.064v-1.592l1.575-1.57
	c-15.642-14.879-36.626-24.191-59.779-24.766v2.221l-1.123,1.13v36.875C305.607,250.39,317.302,255.574,326.008,263.866z
	 M292.741,349.077c12.722-0.287,24.263-5.441,32.841-13.668l-1.367-1.366c-8.229,7.851-19.274,12.761-31.474,13.044V349.077z
	 M326.145,335.974c-8.721,8.369-20.461,13.612-33.403,13.898v36.603l1.123,1.129v2.22c23.153-0.573,44.138-9.882,59.779-24.766
	l-1.575-1.566v-1.592L326.145,335.974z M289.368,389.824v-2.22l1.122-1.129v-36.603c-12.942-0.286-24.691-5.529-33.407-13.898
	l-25.93,25.925v1.592l-1.569,1.566C245.224,379.942,266.208,389.251,289.368,389.824z M290.49,347.087
	c-12.201-0.283-23.254-5.193-31.48-13.044l-1.364,1.366c8.572,8.227,20.119,13.381,32.844,13.668V347.087z"/>
<path fill="#000F21" stroke="#000F21" stroke-width="3" stroke-miterlimit="10" d="M313.562,272.417
	c8.037,6.438,13.188,16.333,13.188,27.432c0,11.098-5.15,20.993-13.188,27.432l1.331,1.666c8.523-6.831,13.984-17.327,13.984-29.098
	c0-11.772-5.461-22.267-13.984-29.094L313.562,272.417z"/>
<path fill="#000F21" stroke="#000F21" stroke-width="3" stroke-miterlimit="10" d="M256.486,299.85
	c0-11.099,5.143-20.995,13.184-27.432l-1.328-1.662c-8.527,6.828-13.989,17.322-13.989,29.094s5.462,22.267,13.989,29.098
	l1.328-1.666C261.629,320.843,256.486,310.947,256.486,299.85z"/>
</svg>
