<?xml version="1.0" encoding="utf-8"?>
<!-- Generator: Adobe Illustrator 17.1.0, SVG Export Plug-In . SVG Version: 6.00 Build 0)  -->
<!DOCTYPE svg PUBLIC "-//W3C//DTD SVG 1.1//EN" "http://www.w3.org/Graphics/SVG/1.1/DTD/svg11.dtd">
<svg version="1.1" id="Layer_1" xmlns="http://www.w3.org/2000/svg" xmlns:xlink="http://www.w3.org/1999/xlink" x="0px" y="0px"
	 viewBox="0 0 23.5 23.5" enable-background="new 0 0 23.5 23.5" xml:space="preserve">
<g>
	<path fill="#FFFFFF" d="M11.7,0C5.3,0,0,5.3,0,11.7c0,6.5,5.3,11.7,11.7,11.7c6.5,0,11.7-5.3,11.7-11.7C23.5,5.3,18.2,0,11.7,0z
		 M11.7,22.3c-5.8,0-10.6-4.7-10.6-10.6c0-5.8,4.7-10.6,10.6-10.6c5.8,0,10.6,4.7,10.6,10.6C22.3,17.6,17.6,22.3,11.7,22.3z"/>
	<path fill="#FFFFFF" d="M17.1,14.6c-0.1-0.4-0.5-0.7-1-1l-1.7-0.9L14,12.3c1.1-0.9,1.8-2.4,1.9-4.3c0.1-1.2-0.2-2.2-0.8-2.9
		c-0.6-0.7-1.6-1.1-2.9-1.2c-0.1,0-0.2,0-0.3,0C9.4,3.9,8.1,5.2,8,7.6c-0.1,2,0.5,3.5,1.5,4.5L9,12.5l-1.7,0.7
		c-0.3,0.1-0.8,0.4-1.1,0.9c0,0-0.1,0.2-0.3,0.5L5.8,15L6,15.3c1.2,1.4,2.9,2.3,4.8,2.5l0.6,0.1l0,0l0,0l0.6,0
		c1.8-0.1,3.6-0.8,5-2.1l0.3-0.3l-0.1-0.4C17.1,14.8,17.1,14.6,17.1,14.6z M11.8,5.3c0.1,0,0.2,0,0.3,0c0.9,0,1.6,0.3,2,0.7
		c0.4,0.4,0.5,1.1,0.5,1.9c-0.1,2.3-1.2,3.8-2.7,3.8l-0.1,0c-1.5-0.1-2.5-1.7-2.4-4C9.4,6,10.1,5.3,11.8,5.3z M10.4,16.4
		c-1.1-0.3-2.2-0.8-3-1.6c0-0.1,0.1-0.1,0.1-0.1c0,0,0.1-0.1,0.3-0.2l1.8-0.7l0.6-0.4l0.7,0.7L10.4,16.4z M12.7,16.5l-0.2-2.4
		l0.7-0.7l0.4,0.3l1.9,1c0.2,0.1,0.3,0.2,0.3,0.2c0,0,0,0,0,0.1C14.9,15.9,13.8,16.3,12.7,16.5z"/>
</g>
</svg>
