<?xml version="1.0" encoding="utf-8"?>
<!-- Generator: Adobe Illustrator 17.1.0, SVG Export Plug-In . SVG Version: 6.00 Build 0)  -->
<!DOCTYPE svg PUBLIC "-//W3C//DTD SVG 1.1//EN" "http://www.w3.org/Graphics/SVG/1.1/DTD/svg11.dtd">
<svg version="1.1" id="Layer_1" xmlns="http://www.w3.org/2000/svg" xmlns:xlink="http://www.w3.org/1999/xlink" x="0px" y="0px"
	 viewBox="0 0 50 50" enable-background="new 0 0 50 50" xml:space="preserve">
<g>
	<path fill="#FFFFFF" d="M1,25.3c0-0.2,0-0.4,0-0.5c0.1-0.2,0-0.4,0-0.6c0.1-0.8,0.2-1.5,0.4-2.2c0.5-1.7,1.4-3.3,2.5-4.6
		C4.1,17.1,4.1,17,4,16.9c0-0.1-0.1-0.2-0.1-0.3c-0.6-1.8-1.2-3.7-1.8-5.5c-0.3-0.8,0.2-1.7,1.1-1.9c0.1,0,0.1,0,0.2,0
		c0.1,0,0.1,0,0.2,0C3.8,9.2,4,9.2,4.2,9.3c2.1,1,4.2,2,6.3,3.1c0.1,0,0.1,0,0.2,0c1.1-0.5,2.2-0.8,3.4-1.1c1.1-0.3,2.1-0.4,3.2-0.6
		c0.6-0.1,1.3-0.1,1.9-0.1c1.2,0,2.4,0,3.6,0.1c0.6,0.1,1.1,0.1,1.6,0.2c0.2,0,0.3,0.1,0.5,0.1c0.8-0.1,1.5-0.3,2.3-0.3
		c0.5-0.1,1.1-0.1,1.6-0.1c0.7,0,1.3,0,2,0c0.6,0,1.2,0.1,1.8,0.1c0.8,0.1,1.5,0.2,2.3,0.4c2,0.4,4,1.1,5.8,2.1
		c1.4,0.8,2.7,1.7,3.9,2.8c1.4,1.3,2.5,2.8,3.2,4.5c0.6,1.3,0.9,2.7,0.9,4.1c0,0.7,0,1.3-0.1,2c-0.2,1.2-0.5,2.3-1,3.4
		c-0.5,1-1.1,2-1.9,2.8c-0.1,0.1-0.1,0.2-0.1,0.3c0.1,0.3,0.2,0.5,0.3,0.8c0.5,1.7,1.1,3.4,1.6,5.1c0.1,0.3,0.1,0.5,0,0.8
		c-0.2,0.9-1.2,1.4-2,1c-0.5-0.2-1-0.5-1.6-0.8c-1.6-0.8-3.2-1.6-4.8-2.3c-0.1,0-0.2,0-0.3,0c-1,0.4-2,0.8-3.1,1
		c-1.2,0.3-2.4,0.5-3.6,0.7c-0.6,0.1-1.3,0.1-1.9,0.1c-0.6,0-1.1,0-1.7,0c-0.6,0-1.1-0.1-1.7-0.1c-0.6-0.1-1.2-0.2-1.8-0.3
		c-0.1,0-0.3-0.1-0.4,0c-0.4,0.1-0.8,0.1-1.1,0.2c-0.9,0.1-1.9,0.2-2.8,0.3c-1.2,0-2.5,0-3.7-0.1c-0.7-0.1-1.4-0.2-2.1-0.3
		c-1.5-0.3-2.9-0.7-4.3-1.3c-2-0.8-3.8-1.9-5.4-3.4C4,33,2.8,31.5,2,29.8c-0.6-1.4-1-2.8-1-4.3C1,25.4,1,25.3,1,25.3z M36.4,24.9
		c0-0.4,0-0.9-0.1-1.3c-0.2-1.4-0.8-2.6-1.6-3.7c-1-1.5-2.4-2.7-3.9-3.6c-1.8-1.1-3.7-1.8-5.7-2.3c-0.1,0-0.1,0-0.2,0
		c-2.1,0.5-4.1,1.3-5.9,2.4c-1.5,0.9-2.7,2.1-3.7,3.5c-1.2,1.7-1.8,3.7-1.7,5.8c0.1,0.7,0.2,1.4,0.4,2c0.4,1.3,1.2,2.5,2.1,3.5
		c1.2,1.3,2.5,2.3,4.1,3.1c1.4,0.7,2.9,1.3,4.4,1.7c0.1,0,0.3,0.1,0.4,0.1c0.7-0.2,1.5-0.4,2.2-0.6c1.6-0.6,3.1-1.3,4.4-2.3
		c1.4-1,2.5-2.2,3.4-3.6C35.9,28.2,36.4,26.6,36.4,24.9z M31.8,13.5c0,0.1,0.1,0.1,0.1,0.1c0.3,0.2,0.6,0.4,0.9,0.6
		c1.5,1,2.9,2.3,4,3.7c1.5,2,2.3,4.2,2.5,6.6c0,0.9,0,1.7-0.2,2.6c-0.4,1.9-1.2,3.6-2.4,5.1c-1.3,1.7-3,3.1-4.8,4.2
		c0,0-0.1,0-0.1,0.1c0.1,0,0.1,0,0.2,0c0.7-0.1,1.3-0.1,1.9-0.3c1.7-0.3,3.3-0.8,4.8-1.5c0.4-0.2,0.9-0.2,1.3,0
		c1.3,0.6,2.6,1.2,3.8,1.8c0.1,0,0.1,0.1,0.2,0c0,0,0-0.1,0-0.2c-0.4-1.1-0.8-2.3-1.1-3.4c-0.2-0.5-0.1-1,0.3-1.4
		c0.5-0.6,1.1-1.2,1.5-1.9c0.9-1.4,1.4-2.9,1.4-4.5c0-0.6,0-1.1-0.1-1.6c-0.2-1.3-0.7-2.4-1.4-3.5c-1-1.5-2.2-2.7-3.7-3.6
		c-1.4-0.9-2.9-1.6-4.5-2.1c-0.8-0.2-1.5-0.4-2.3-0.6c-0.6-0.1-1.2-0.2-1.8-0.3C32.2,13.5,32,13.5,31.8,13.5z M18.2,36.5
		C18.2,36.5,18.1,36.4,18.2,36.5c-1.1-0.7-2.1-1.4-3-2.2c-1.5-1.3-2.7-2.8-3.5-4.7c-0.6-1.3-0.9-2.6-1-4c0-0.6,0-1.2,0-1.8
		c0.1-0.7,0.2-1.4,0.4-2.1c0.6-2,1.7-3.8,3.2-5.3c1.1-1.2,2.4-2.1,3.8-2.9c0,0,0.1,0,0.1-0.1c-0.3,0-0.5,0.1-0.8,0.1
		c-0.9,0.1-1.8,0.3-2.6,0.5c-1.2,0.3-2.4,0.7-3.6,1.3c-0.4,0.2-0.8,0.2-1.3,0c-1.3-0.6-2.6-1.3-3.9-1.9c0,0-0.1-0.1-0.1,0
		c0,0,0,0.1,0,0.1c0,0,0,0,0,0c0.4,1.1,0.7,2.3,1.1,3.4c0.1,0.2,0.1,0.4,0.1,0.6c0,0.4-0.2,0.7-0.5,0.9c-0.6,0.7-1.2,1.4-1.7,2.2
		c-0.9,1.7-1.3,3.5-1.1,5.4c0.1,0.9,0.4,1.8,0.8,2.7c0.8,1.6,2,2.9,3.4,4c1.4,1.1,3,1.9,4.7,2.5c0.9,0.3,1.9,0.6,2.9,0.8
		c0.6,0.1,1.2,0.2,1.8,0.3C17.8,36.5,18,36.5,18.2,36.5z"/>
	<path fill="#FFFFFF" d="M25.3,31.7c-2,0-3.5-0.5-4.9-1.4c-0.8-0.5-1.5-1.2-2.1-2c-0.6-0.9-0.1-2.1,1-2.2c0.5-0.1,1,0.1,1.4,0.5
		c0.2,0.2,0.4,0.5,0.6,0.7c0.4,0.4,0.8,0.7,1.2,0.9c0.6,0.3,1.3,0.5,2.1,0.6c1.3,0.1,2.6-0.2,3.7-1c0.5-0.3,0.9-0.7,1.2-1.2
		c0.4-0.5,0.9-0.7,1.5-0.6c0.6,0.1,1,0.5,1.1,1.1c0.1,0.4,0,0.8-0.2,1.1c-1.2,1.7-2.9,2.7-4.9,3.2C26.2,31.7,25.6,31.8,25.3,31.7z"
		/>
	<path fill="#FFFFFF" d="M23.1,21.4c0,1.2-1,2.2-2.2,2.2c-1.2,0-2.2-1-2.2-2.2c0-1.2,1.1-2.2,2.2-2.2C22.1,19.2,23.1,20.2,23.1,21.4
		z"/>
	<path fill="#FFFFFF" d="M31.4,21.4c0,1.2-1,2.2-2.2,2.2c-1.2,0-2.2-1-2.2-2.2c0-1.2,1-2.2,2.2-2.2C30.4,19.2,31.4,20.2,31.4,21.4z"
		/>
</g>
</svg>
