<?xml version="1.0" encoding="utf-8"?>
<!-- Generator: Adobe Illustrator 17.1.0, SVG Export Plug-In . SVG Version: 6.00 Build 0)  -->
<!DOCTYPE svg PUBLIC "-//W3C//DTD SVG 1.1//EN" "http://www.w3.org/Graphics/SVG/1.1/DTD/svg11.dtd">
<svg version="1.1" id="Layer_1" xmlns="http://www.w3.org/2000/svg" xmlns:xlink="http://www.w3.org/1999/xlink" x="0px" y="0px"
	 viewBox="0 0 50 50" enable-background="new 0 0 50 50" xml:space="preserve">
<g>
	<path fill="#FFFFFF" d="M31.2,37.6c-0.7,0-1.4,0-2.1,0c-0.7,0-1-0.3-1.1-1c-0.2-2.2-1.2-4-2.4-5.8c-1.5-2.2-3.3-4-5.2-5.9
		c-1.9-2-3.9-4-5.7-6.2c-1.9-2.4-3.4-5.1-3.9-8.2c0-0.2-0.1-0.4-0.1-0.6c0-0.9,0.4-1.3,1.3-1c1.5,0.5,3,1,4.5,1.4
		c0.4,0.1,0.7,0.3,0.9,0.8c0.9,2.2,2.3,4,3.9,5.7c0.9,1.1,2,2.1,2.9,3.1c0.4,0.4,0.8,0.5,1.2,0.1c2.2-2.2,4.4-4.4,6-7.1
		c0.3-0.5,0.6-1.1,0.8-1.7c0.2-0.5,0.5-0.7,1-0.8c1.5-0.4,3-0.8,4.5-1.3c0.8-0.3,1.3,0.1,1.3,1c-0.2,2.2-1,4.1-2.1,6
		c-1.5,2.6-3.5,4.7-5.5,6.9c-0.6,0.6-1.2,1.3-1.9,1.9c-0.3,0.3-0.4,0.6-0.1,1c1,1.3,1.9,2.6,2.7,4c0.2,0.4,0.6,0.5,1,0.6
		c2.4,0.4,4.7,1,6.9,2.2c0.8,0.4,1.5,0.9,2.1,1.5c1.1,1.2,1.1,2.6,0,3.7c-0.8,0.8-1.7,1.4-2.8,1.8c-1.3,0.6-2.7,1-4,1.3
		c-0.7,0.2-1.1,0-1.2-0.5c-0.1-0.5,0.1-0.8,0.8-1.1c1.5-0.5,2.9-1,4.2-1.8c0.3-0.2,0.6-0.5,0.9-0.8c0.5-0.5,0.4-0.9-0.1-1.4
		c-0.7-0.5-1.5-0.7-2.3-1c-1-0.3-2-0.5-3-0.6c-0.6-0.1-0.7,0-0.6,0.6c0.1,0.6,0.3,1.3,0.3,2c0,0.7-0.3,1-1,1.1
		C32.6,37.6,31.9,37.6,31.2,37.6C31.2,37.6,31.2,37.6,31.2,37.6z"/>
	<path fill="#FFFFFF" d="M18.8,37.6c-0.7,0-1.4,0-2.1,0c-0.8,0-1-0.3-1-1.1c0-0.7,0.1-1.3,0.2-2c0.1-0.5-0.1-0.7-0.6-0.6
		c-1.5,0.2-3,0.5-4.4,1.1c-0.5,0.2-1.2,0.5-1.3,1.1c-0.1,0.7,0.5,1,1,1.4c0.9,0.7,2,1.1,3.1,1.5c0.5,0.2,0.9,0.3,1.4,0.5
		c0.5,0.2,0.7,0.5,0.6,1c-0.1,0.5-0.6,0.7-1,0.6c-2.2-0.5-4.3-1.2-6.2-2.4c-0.4-0.3-0.7-0.6-1-0.9c-0.9-1.1-0.9-2.4,0.1-3.5
		c1.3-1.4,2.9-2.1,4.6-2.7c1.4-0.5,2.9-0.9,4.4-1.1c0.5-0.1,0.9-0.3,1.1-0.8c0.3-0.6,0.6-1.1,1-1.6c0.4-0.6,0.9-0.6,1.3-0.1
		c1.1,1.1,2.1,2.2,3,3.4c0.3,0.4,0.4,0.9,0.1,1.4c-0.7,1.3-1.1,2.6-1.2,4c-0.1,0.6-0.5,0.8-1,0.9C20.2,37.6,19.5,37.6,18.8,37.6z"/>
	<path fill="#FFFFFF" d="M23,11.3c1.3,0.2,2.7,0.1,4.1,0c1.2-0.1,1.5,0.5,1,1.5c-0.6,1.2-1.3,2.3-2.3,3.3c-0.6,0.7-1.1,0.7-1.7,0
		c-0.9-1-1.7-2.1-2.3-3.3C21.3,11.7,21.7,11.2,23,11.3z"/>
</g>
</svg>
