<?xml version="1.0" encoding="utf-8"?>
<!-- Generator: Adobe Illustrator 17.1.0, SVG Export Plug-In . SVG Version: 6.00 Build 0)  -->
<!DOCTYPE svg PUBLIC "-//W3C//DTD SVG 1.1//EN" "http://www.w3.org/Graphics/SVG/1.1/DTD/svg11.dtd">
<svg version="1.1" id="Layer_1" xmlns="http://www.w3.org/2000/svg" xmlns:xlink="http://www.w3.org/1999/xlink" x="0px" y="0px"
	 viewBox="0 0 23.5 23.5" enable-background="new 0 0 23.5 23.5" xml:space="preserve">
<g>
	<polygon fill="#FFFFFF" points="11,9.5 7.9,6.1 6.8,7.3 9.9,10.8 	"/>
	<polygon fill="#FFFFFF" points="16.1,5.8 9.3,13.4 6,9.6 4.8,10.9 9.3,15.9 17.3,7.1 	"/>
	<polygon fill="#FFFFFF" points="13.7,14.4 14.9,15.6 19.1,10.8 17.9,9.5 	"/>
	<path fill="#FFFFFF" d="M11.7,0C5.3,0,0,5.3,0,11.7c0,6.4,5.2,11.7,11.7,11.7c6.4,0,11.7-5.2,11.7-11.7C23.4,5.3,18.2,0,11.7,0z
		 M11.7,22.3c-5.8,0-10.5-4.7-10.5-10.5c0-5.8,4.7-10.5,10.5-10.5c5.8,0,10.5,4.7,10.5,10.5C22.3,17.5,17.5,22.3,11.7,22.3z"/>
</g>
</svg>
