<?xml version="1.0" encoding="utf-8"?>
<!-- Generator: Adobe Illustrator 17.1.0, SVG Export Plug-In . SVG Version: 6.00 Build 0)  -->
<!DOCTYPE svg PUBLIC "-//W3C//DTD SVG 1.1//EN" "http://www.w3.org/Graphics/SVG/1.1/DTD/svg11.dtd">
<svg version="1.1" id="Layer_1" xmlns="http://www.w3.org/2000/svg" xmlns:xlink="http://www.w3.org/1999/xlink" x="0px" y="0px"
	 viewBox="0 0 23.5 23.5" enable-background="new 0 0 23.5 23.5" xml:space="preserve">
<g>
	<path fill="#FFFFFF" d="M11.7,23.4C5.3,23.4,0,18.2,0,11.7C0,5.3,5.3,0,11.7,0c6.4,0,11.7,5.2,11.7,11.7
		C23.4,18.2,18.2,23.4,11.7,23.4z M11.7,1.2C5.9,1.2,1.2,5.9,1.2,11.7c0,5.8,4.7,10.5,10.5,10.5c5.8,0,10.5-4.7,10.5-10.5
		C22.3,5.9,17.5,1.2,11.7,1.2z"/>
	<path fill-rule="evenodd" clip-rule="evenodd" fill="#7FAAC5" stroke="#7FAAC5" stroke-width="0.5" stroke-miterlimit="10" d="
		M13.2,13"/>
	<g>
		<g>
			<g>
				<path fill="#FFFFFF" d="M5.1,15.7c-0.4,0.1-0.7,0.5-0.6,0.9c0.1,0.4,0.4,0.6,0.7,0.6c0,0,0.1,0,0.1,0l3.1-0.6
					c0.2,0,0.3-0.1,0.5-0.3l1.3-1.7l-0.4-0.2c-0.3-0.2-0.6-0.5-0.6-0.8l-1.3,1.6L5.1,15.7z"/>
				<circle fill="#FFFFFF" cx="16.2" cy="7.5" r="1.7"/>
				<path fill="#FFFFFF" d="M12.5,7.1c-0.2-0.2-0.3-0.2-0.5-0.2c-0.1,0-0.1,0-0.2,0L9,7.5C8.6,7.6,8.4,8,8.4,8.4
					C8.5,8.8,8.8,9,9.2,9c0.1,0,0.1,0,0.2,0l2.4-0.6c0.2,0.2,0.9,1,1.1,1.2l0,0c-1,1.1-2,2.1-3,3.2c0,0,0,0,0,0.1
					c-0.3,0.4-0.2,1,0.2,1.2l0.5,0.3l2.5,1.3l-1.6,2.6c-0.2,0.4-0.1,0.8,0.2,1c0.1,0.1,0.3,0.1,0.4,0.1l0,0c0.3,0,0.5-0.1,0.6-0.4
					l2-3.3c0.1-0.2,0.1-0.4,0.1-0.6c-0.1-0.2-0.2-0.4-0.4-0.5l-2.1-1.1l2.2-2.3l1.7,1.4c0.1,0.1,0.3,0.2,0.5,0.2
					c0.2,0,0.4-0.1,0.5-0.2l1.9-1.8c0.3-0.3,0.3-0.7,0-1c-0.1-0.2-0.3-0.2-0.5-0.2c-0.2,0-0.4,0.1-0.5,0.2l-1.4,1.3
					C16.7,11.1,13.2,7.7,12.5,7.1z"/>
			</g>
		</g>
	</g>
</g>
</svg>
