<?xml version="1.0" encoding="utf-8"?>
<!-- Generator: Adobe Illustrator 17.1.0, SVG Export Plug-In . SVG Version: 6.00 Build 0)  -->
<!DOCTYPE svg PUBLIC "-//W3C//DTD SVG 1.1//EN" "http://www.w3.org/Graphics/SVG/1.1/DTD/svg11.dtd">
<svg version="1.1" id="Layer_1" xmlns="http://www.w3.org/2000/svg" xmlns:xlink="http://www.w3.org/1999/xlink" x="0px" y="0px"
	 viewBox="0 0 23.5 23.5" enable-background="new 0 0 23.5 23.5" xml:space="preserve">
<g>
	<path fill="#FFFFFF" d="M11.7,23.5C5.3,23.5,0,18.2,0,11.7C0,5.3,5.3,0,11.7,0c6.5,0,11.7,5.3,11.7,11.7
		C23.5,18.2,18.2,23.5,11.7,23.5z M11.7,1.1C5.9,1.1,1.1,5.9,1.1,11.7c0,5.8,4.8,10.6,10.6,10.6c5.8,0,10.6-4.8,10.6-10.6
		C22.3,5.9,17.6,1.1,11.7,1.1z"/>
	<path fill="#FFFFFF" d="M8.5,15.5H15c0.2,0,0.3-0.1,0.3-0.3v-1.6c0-0.2-0.1-0.3-0.3-0.3h-4.6v-5c0-0.2-0.1-0.3-0.3-0.3H8.5
		C8.3,8,8.2,8.1,8.2,8.3v6.9C8.2,15.3,8.3,15.5,8.5,15.5z"/>
</g>
</svg>
