<?xml version="1.0" encoding="utf-8"?>
<!-- Generator: Adobe Illustrator 17.1.0, SVG Export Plug-In . SVG Version: 6.00 Build 0)  -->
<!DOCTYPE svg PUBLIC "-//W3C//DTD SVG 1.1//EN" "http://www.w3.org/Graphics/SVG/1.1/DTD/svg11.dtd">
<svg version="1.1" id="Layer_1" xmlns="http://www.w3.org/2000/svg" xmlns:xlink="http://www.w3.org/1999/xlink" x="0px" y="0px"
	 viewBox="0 0 50 50" enable-background="new 0 0 50 50" xml:space="preserve">
<g>
	<path fill="#FFFFFF" d="M22.5,9c0.3,0.3,0.4,0.6,0.4,1c0,0.5,0,1,0,1.6c0,0.7-0.1,0.8-0.8,1c-2.8,0.7-5.2,2.1-7,4.4
		c-2.8,3.5-3.6,7.4-2.4,11.7c0.2,0.8,0.2,0.9-0.5,1.3c-0.5,0.3-1,0.6-1.5,0.9c-0.5,0.3-0.8,0.1-1-0.4c-0.4-1.2-0.7-2.5-0.8-3.8
		c0-0.2,0-0.4-0.1-0.6c0-0.8,0-1.5,0-2.3c0-0.2,0.1-0.3,0.1-0.5C9.6,16.6,14.4,11,20.9,9.3c0.4-0.1,0.8-0.1,1.2-0.3
		C22.2,9,22.4,9,22.5,9z"/>
	<path fill="#FFFFFF" d="M41.1,26c-0.2,0.9-0.2,1.7-0.4,2.6c-0.2,0.6-0.3,1.2-0.5,1.7c-0.2,0.5-0.5,0.6-1,0.4
		c-0.5-0.3-1.1-0.6-1.6-0.9c-0.5-0.2-0.6-0.6-0.4-1.1c0.7-2.3,0.8-4.7,0.1-7.1c-1.4-4.8-4.6-7.8-9.4-9.1c-0.7-0.2-0.8-0.3-0.8-1
		c0-0.5,0-1,0-1.6c0-0.4,0.1-0.7,0.4-1c0.1,0,0.3,0,0.4,0c0.1,0.1,0.3,0.1,0.4,0.1c6.6,1.6,10.8,5.7,12.4,12.3
		c0.2,0.7,0.3,1.5,0.4,2.2C41.1,24.4,41.1,25.2,41.1,26z"/>
	<path fill="#FFFFFF" d="M23.8,41c-1-0.2-1.9-0.3-2.9-0.5c-3.2-0.9-5.9-2.5-8.1-5c-0.5-0.6-0.4-0.9,0.2-1.2c0.5-0.3,1-0.6,1.5-0.9
		c0.5-0.3,0.8-0.2,1.2,0.2c2.6,2.8,5.9,4.2,9.8,4.1c3.5-0.1,6.4-1.5,8.9-4c0.5-0.5,0.6-0.5,1.2-0.2c0.5,0.3,1,0.6,1.5,0.9
		c0.5,0.3,0.6,0.7,0.2,1.1c-2.6,2.9-5.8,4.8-9.6,5.4c-0.5,0.1-1,0-1.4,0.2C25.4,41,24.6,41,23.8,41z"/>
	<path fill="#FFFFFF" d="M32.2,18.8c-0.2,0.8-0.9,0.8-1.5,1.2c-0.3,0.2-0.6,0.1-0.9-0.2c-0.9-0.9-2-1.5-3.3-1.8
		c-2.4-0.5-4.5,0-6.3,1.7c-0.4,0.4-0.8,0.5-1.3,0.1c-0.2-0.2-0.5-0.3-0.7-0.4c-0.6-0.3-0.6-0.7-0.2-1.2c1.4-1.5,3.1-2.4,5.2-2.8
		c3.3-0.6,6.2,0.3,8.6,2.7C32,18.3,32.2,18.5,32.2,18.8z"/>
	<path fill="#FFFFFF" d="M22.8,34.2c-0.3-0.1-0.7-0.2-1-0.3c-4.7-1.7-7.4-6.8-6-11.6c0.2-0.8,0.6-1,1.3-0.5c1.2,0.7,1.2,0.7,1,2.1
		c-0.5,3.5,1.5,6.6,4.9,7.7c0.6,0.2,0.8,0.5,0.8,1c0,0.3,0,0.6,0,1C23.7,34,23.4,34.3,22.8,34.2z"/>
	<path fill="#FFFFFF" d="M34.6,24.8c0,4.5-3,8.3-7.2,9.4c-0.8,0.2-1.1,0-1.1-0.8c0-1.8-0.1-1.4,1.3-2c3.2-1.3,5-4.6,4.2-8
		c-0.1-0.6,0-1,0.5-1.2c0.3-0.1,0.5-0.3,0.7-0.4c0.6-0.3,0.9-0.2,1.1,0.5C34.5,23.1,34.6,24,34.6,24.8z"/>
	<path fill="#FFFFFF" d="M28.8,24.9c0,2.1-1.7,3.8-3.8,3.8c-2.1,0-3.8-1.7-3.8-3.8c0-2.1,1.7-3.8,3.8-3.8
		C27.1,21.1,28.8,22.8,28.8,24.9z"/>
</g>
</svg>
