<?xml version="1.0" encoding="utf-8"?>
<!-- Generator: Adobe Illustrator 17.1.0, SVG Export Plug-In . SVG Version: 6.00 Build 0)  -->
<!DOCTYPE svg PUBLIC "-//W3C//DTD SVG 1.1//EN" "http://www.w3.org/Graphics/SVG/1.1/DTD/svg11.dtd">
<svg version="1.1" id="Layer_1" xmlns="http://www.w3.org/2000/svg" xmlns:xlink="http://www.w3.org/1999/xlink" x="0px" y="0px"
	 viewBox="0 0 50 50" enable-background="new 0 0 50 50" xml:space="preserve">
<g>
	<path fill="#FFFFFF" d="M30.5,41c-0.6,0-1.3,0-1.9,0c-0.4,0-0.7-0.2-0.7-0.6c-0.1-1.7-0.8-3.1-1.7-4.5c-1.1-1.7-2.4-3.1-3.8-4.6
		c-1.8-1.9-3.7-3.7-5.3-5.7c-1.6-2-3-4.1-3.6-6.7c-0.1-0.5-0.2-0.9-0.3-1.4c-0.1-0.6,0.3-0.9,0.8-0.7c1.4,0.5,2.8,0.9,4.2,1.3
		c0.3,0.1,0.4,0.3,0.5,0.5c0.7,1.8,1.9,3.4,3.2,4.8c0.9,1,1.8,1.9,2.7,2.8c0.4,0.4,0.7,0.4,1.1,0c1.5-1.5,3-3,4.3-4.8
		c0.6-0.9,1.2-1.8,1.6-2.8c0.1-0.4,0.4-0.6,0.8-0.7c1.3-0.3,2.6-0.7,3.8-1.1c0.7-0.3,1.1,0.1,1,0.9c-0.4,3.1-2,5.6-3.9,7.9
		c-1.3,1.6-2.7,3-4.1,4.4c-0.5,0.5-0.5,0.6-0.1,1.2c1.7,2.2,3.1,4.5,3.7,7.3c0.1,0.6,0.2,1.1,0.2,1.7c0.1,0.5-0.2,0.8-0.8,0.8
		C31.7,41,31.1,41,30.5,41z"/>
	<path fill="#FFFFFF" d="M19.8,41c-0.6,0-1.2,0-1.8,0c-0.6,0-0.8-0.3-0.8-0.9c0.2-2.6,1.2-4.9,2.6-7c0.4-0.6,0.7-0.6,1.2-0.1
		c0.8,0.9,1.6,1.8,2.4,2.7c0.3,0.4,0.4,0.8,0.1,1.3c-0.6,1-0.9,2.2-1,3.3c0,0.5-0.3,0.7-0.8,0.7C21.1,41,20.5,41,19.8,41z"/>
	<path fill="#FFFFFF" d="M23.3,18.7c1.2,0.1,2.5,0.1,3.8,0c0.8-0.1,1,0.3,0.7,1c-0.5,1.1-1.2,2.1-2.1,3c-0.4,0.4-0.7,0.4-1.1,0
		c-0.9-0.9-1.6-1.9-2.1-3C22.2,19,22.5,18.7,23.3,18.7z"/>
	<path fill="#FFFFFF" d="M18.3,11c1.2,0,2,0.9,2,2.1c0,1.2-0.9,2-2.1,2c-1.1,0-2-0.9-2-2.1C16.3,11.9,17.2,11,18.3,11z"/>
	<path fill="#FFFFFF" d="M32.1,15.1c-1.2,0-2.1-0.9-2.1-2.1c0-1.2,0.9-2.1,2.1-2c1.1,0,2,0.9,2,2C34.1,14.2,33.2,15.1,32.1,15.1z"/>
	<path fill="#FFFFFF" d="M25.2,13.2c-1.1,0-2.1-0.9-2.1-2.1c0-1.1,1-2.1,2.1-2.1c1.1,0,2.1,0.9,2.1,2.1
		C27.3,12.2,26.3,13.2,25.2,13.2z"/>
</g>
</svg>
