<?xml version="1.0" encoding="utf-8"?>
<!-- Generator: Adobe Illustrator 17.1.0, SVG Export Plug-In . SVG Version: 6.00 Build 0)  -->
<!DOCTYPE svg PUBLIC "-//W3C//DTD SVG 1.1//EN" "http://www.w3.org/Graphics/SVG/1.1/DTD/svg11.dtd">
<svg version="1.1" id="Layer_1" xmlns="http://www.w3.org/2000/svg" xmlns:xlink="http://www.w3.org/1999/xlink" x="0px" y="0px"
	 viewBox="0 0 214.6 214.6" enable-background="new 0 0 214.6 214.6" xml:space="preserve">
<g>
	<path fill="#0A2341" d="M126.6,16.7c0.6,0.1,1.2,0.3,1.8,0.4l3.7-14.3c-0.9-0.2-1.8-0.4-2.7-0.6L126.6,16.7z"/>
	<path fill="#0A2341" d="M132.3,18.1c0.6,0.2,1.2,0.3,1.7,0.5l4.6-14c-0.9-0.3-1.7-0.5-2.6-0.8L132.3,18.1z"/>
	<path fill="#0A2341" d="M103.5,14.8c0.6,0,1.2,0,1.8-0.1V0c-0.9,0-1.8,0-2.7,0.1L103.5,14.8z"/>
	<path fill="#0A2341" d="M115.1,15.1c0.6,0,1.2,0.1,1.8,0.2l1.8-14.6c-0.9-0.1-1.8-0.2-2.7-0.3L115.1,15.1z"/>
	<path fill="#0A2341" d="M120.9,15.7c0.6,0.1,1.2,0.2,1.8,0.3l2.8-14.5c-0.9-0.2-1.8-0.3-2.7-0.4L120.9,15.7z"/>
	<path fill="#0A2341" d="M109.3,14.7c0.6,0,1.2,0,1.8,0.1L112,0.1c-0.9,0-1.8-0.1-2.7-0.1V14.7z"/>
	<path fill="#0A2341" d="M177.3,25.9l-9.4,11.4c0.5,0.4,0.9,0.8,1.3,1.2l10.1-10.8C178.6,27.1,178,26.5,177.3,25.9z"/>
	<path fill="#0A2341" d="M153.7,27.2c0.5,0.3,1,0.6,1.5,0.9l7.9-12.5c-0.8-0.5-1.6-0.9-2.3-1.4L153.7,27.2z"/>
	<path fill="#0A2341" d="M137.8,19.9c0.6,0.2,1.1,0.4,1.7,0.6L145,6.8c-0.8-0.3-1.7-0.6-2.6-0.9L137.8,19.9z"/>
	<path fill="#0A2341" d="M163.3,33.6c0.5,0.4,0.9,0.7,1.4,1.1l9.4-11.4c-0.7-0.6-1.4-1.1-2.1-1.7L163.3,33.6z"/>
	<path fill="#0A2341" d="M143.3,22c0.6,0.2,1.1,0.5,1.6,0.7l6.3-13.4c-0.8-0.4-1.7-0.7-2.5-1.1L143.3,22z"/>
	<path fill="#0A2341" d="M148.5,24.4c0.5,0.3,1.1,0.5,1.6,0.8l7.1-12.9c-0.8-0.4-1.6-0.8-2.4-1.2L148.5,24.4z"/>
	<path fill="#0A2341" d="M158.6,30.2c0.5,0.3,1,0.7,1.5,1l8.7-11.9c-0.7-0.5-1.5-1-2.2-1.5L158.6,30.2z"/>
	<path fill="#0A2341" d="M54.5,31.2c0.5-0.3,1-0.7,1.5-1l-7.9-12.5c-0.8,0.5-1.5,1-2.2,1.5L54.5,31.2z"/>
	<path fill="#0A2341" d="M59.4,28.1c0.5-0.3,1-0.6,1.5-0.9l-7.1-12.9c-0.8,0.5-1.6,0.9-2.3,1.4L59.4,28.1z"/>
	<path fill="#0A2341" d="M49.9,34.7c0.5-0.4,0.9-0.7,1.4-1.1l-8.7-11.9c-0.7,0.5-1.4,1.1-2.1,1.7L49.9,34.7z"/>
	<path fill="#0A2341" d="M45.4,38.5c0.4-0.4,0.9-0.8,1.3-1.2l-9.4-11.4c-0.7,0.6-1.4,1.2-2,1.8L45.4,38.5z"/>
	<path fill="#0A2341" d="M97.7,15.2c0.6-0.1,1.2-0.1,1.8-0.2L98.6,0.3c-0.9,0.1-1.8,0.2-2.7,0.3L97.7,15.2z"/>
	<path fill="#0A2341" d="M64.5,25.2c0.5-0.3,1.1-0.5,1.6-0.8L59.8,11c-0.8,0.4-1.6,0.8-2.4,1.2L64.5,25.2z"/>
	<path fill="#0A2341" d="M91.9,16c0.6-0.1,1.2-0.2,1.8-0.3L91.9,1.1c-0.9,0.1-1.8,0.3-2.7,0.4L91.9,16z"/>
	<path fill="#0A2341" d="M86.2,17.1c0.6-0.1,1.2-0.3,1.8-0.4L85.2,2.3c-0.9,0.2-1.8,0.4-2.7,0.6L86.2,17.1z"/>
	<path fill="#0A2341" d="M75.1,20.5c0.6-0.2,1.1-0.4,1.7-0.6l-4.6-14c-0.9,0.3-1.7,0.6-2.6,0.9L75.1,20.5z"/>
	<path fill="#0A2341" d="M80.6,18.6c0.6-0.2,1.1-0.3,1.7-0.5L78.7,3.8c-0.9,0.2-1.7,0.5-2.6,0.8L80.6,18.6z"/>
	<path fill="#0A2341" d="M69.7,22.7c0.5-0.2,1.1-0.5,1.6-0.7L65.9,8.2c-0.8,0.4-1.7,0.7-2.5,1.1L69.7,22.7z"/>
	<path fill="#0A2341" d="M186.6,59.4c0.3,0.5,0.6,1,0.9,1.5l12.9-7.1c-0.5-0.8-0.9-1.6-1.4-2.3L186.6,59.4z"/>
	<path fill="#0A2341" d="M183.4,54.5c0.3,0.5,0.7,1,1,1.5l12.5-7.9c-0.5-0.8-1-1.5-1.5-2.2L183.4,54.5z"/>
	<path fill="#0A2341" d="M189.4,64.5c0.3,0.5,0.5,1.1,0.8,1.6l13.3-6.3c-0.4-0.8-0.8-1.6-1.2-2.4L189.4,64.5z"/>
	<path fill="#0A2341" d="M179.9,49.9c0.4,0.5,0.7,0.9,1.1,1.4l11.9-8.7c-0.5-0.7-1.1-1.4-1.7-2.1L179.9,49.9z"/>
	<path fill="#0A2341" d="M176.2,45.4c0.4,0.4,0.8,0.9,1.2,1.3l11.4-9.4c-0.6-0.7-1.2-1.4-1.8-2L176.2,45.4z"/>
	<path fill="#0A2341" d="M191.9,69.7c0.2,0.5,0.5,1.1,0.7,1.6l13.7-5.4c-0.4-0.8-0.7-1.7-1.1-2.5L191.9,69.7z"/>
	<path fill="#0A2341" d="M188.7,177.3l-11.4-9.4c-0.4,0.5-0.8,0.9-1.2,1.3l10.8,10.1C187.5,178.6,188.1,178,188.7,177.3z"/>
	<path fill="#0A2341" d="M197.5,86.2c0.1,0.6,0.3,1.2,0.4,1.8l14.5-2.8c-0.2-0.9-0.4-1.8-0.6-2.7L197.5,86.2z"/>
	<path fill="#0A2341" d="M214,95.9l-14.6,1.8c0.1,0.6,0.1,1.2,0.2,1.8l14.7-0.9C214.2,97.7,214.1,96.8,214,95.9z"/>
	<path fill="#0A2341" d="M198.6,91.9c0.1,0.6,0.2,1.2,0.3,1.8l14.6-1.8c-0.1-0.9-0.3-1.8-0.4-2.7L198.6,91.9z"/>
	<path fill="#0A2341" d="M196,80.6c0.2,0.6,0.3,1.1,0.5,1.7l14.3-3.7c-0.2-0.9-0.5-1.7-0.8-2.6L196,80.6z"/>
	<path fill="#0A2341" d="M181,163.3c-0.4,0.5-0.7,0.9-1.1,1.4l11.4,9.4c0.6-0.7,1.1-1.4,1.7-2.1L181,163.3z"/>
	<path fill="#0A2341" d="M194.1,75.1c0.2,0.6,0.4,1.1,0.6,1.7l14-4.6c-0.3-0.9-0.6-1.7-0.9-2.6L194.1,75.1z"/>
	<path fill="#0A2341" d="M196.5,132.3c-0.2,0.6-0.3,1.2-0.5,1.7l14,4.6c0.3-0.9,0.5-1.7,0.8-2.6L196.5,132.3z"/>
	<path fill="#0A2341" d="M198.9,120.9c-0.1,0.6-0.2,1.2-0.3,1.8l14.5,2.8c0.2-0.9,0.3-1.8,0.4-2.7L198.9,120.9z"/>
	<path fill="#0A2341" d="M197.9,126.6c-0.1,0.6-0.3,1.2-0.4,1.8l14.3,3.7c0.2-0.9,0.4-1.8,0.6-2.7L197.9,126.6z"/>
	<path fill="#0A2341" d="M199.6,115.1c0,0.6-0.1,1.2-0.2,1.8l14.6,1.8c0.1-0.9,0.2-1.8,0.3-2.7L199.6,115.1z"/>
	<path fill="#0A2341" d="M199.9,109.3c0,0.6,0,1.2-0.1,1.8l14.7,0.9c0-0.9,0.1-1.8,0.1-2.7H199.9z"/>
	<path fill="#0A2341" d="M199.8,103.5c0,0.6,0,1.2,0.1,1.8h14.7c0-0.9,0-1.8-0.1-2.7L199.8,103.5z"/>
	<path fill="#0A2341" d="M172.1,41.2c0.4,0.4,0.8,0.8,1.3,1.3l10.8-10.1c-0.6-0.6-1.3-1.3-1.9-1.9L172.1,41.2z"/>
	<path fill="#0A2341" d="M187.5,153.7c-0.3,0.5-0.6,1-0.9,1.5l12.5,7.9c0.5-0.8,0.9-1.6,1.4-2.3L187.5,153.7z"/>
	<path fill="#0A2341" d="M190.2,148.5c-0.3,0.5-0.5,1.1-0.8,1.6l12.9,7.1c0.4-0.8,0.8-1.6,1.2-2.4L190.2,148.5z"/>
	<path fill="#0A2341" d="M184.4,158.6c-0.3,0.5-0.7,1-1,1.5l11.9,8.7c0.5-0.7,1-1.5,1.5-2.2L184.4,158.6z"/>
	<path fill="#0A2341" d="M194.7,137.8c-0.2,0.6-0.4,1.1-0.6,1.7l13.7,5.4c0.3-0.8,0.6-1.7,0.9-2.6L194.7,137.8z"/>
	<path fill="#0A2341" d="M192.7,143.3c-0.2,0.6-0.5,1.1-0.7,1.6l13.4,6.3c0.4-0.8,0.7-1.7,1.1-2.5L192.7,143.3z"/>
	<path fill="#0A2341" d="M37.4,188.7l9.4-11.4c-0.5-0.4-0.9-0.8-1.3-1.2l-10.1,10.8C36,187.5,36.7,188.1,37.4,188.7z"/>
	<path fill="#0A2341" d="M15.2,116.9c-0.1-0.6-0.1-1.2-0.2-1.8l-14.7,0.9c0.1,0.9,0.2,1.8,0.3,2.7L15.2,116.9z"/>
	<path fill="#0A2341" d="M16.7,88c0.1-0.6,0.3-1.2,0.4-1.8L2.8,82.6c-0.2,0.9-0.4,1.8-0.6,2.7L16.7,88z"/>
	<path fill="#0A2341" d="M15.1,99.5c0-0.6,0.1-1.2,0.2-1.8L0.6,95.9c-0.1,0.9-0.2,1.8-0.3,2.7L15.1,99.5z"/>
	<path fill="#0A2341" d="M14.8,111.1c0-0.6,0-1.2-0.1-1.8H0c0,0.9,0,1.8,0.1,2.7L14.8,111.1z"/>
	<path fill="#0A2341" d="M14.7,105.3c0-0.6,0-1.2,0.1-1.8l-14.7-0.9c0,0.9-0.1,1.8-0.1,2.7H14.7z"/>
	<path fill="#0A2341" d="M18.1,82.3c0.2-0.6,0.3-1.2,0.5-1.7l-14-4.6c-0.3,0.9-0.5,1.7-0.8,2.6L18.1,82.3z"/>
	<path fill="#0A2341" d="M33.6,51.3c0.4-0.5,0.7-0.9,1.1-1.4l-11.4-9.4c-0.6,0.7-1.1,1.4-1.7,2.1L33.6,51.3z"/>
	<path fill="#0A2341" d="M30.2,56c0.3-0.5,0.7-1,1-1.5l-11.9-8.7c-0.5,0.7-1,1.5-1.5,2.2L30.2,56z"/>
	<path fill="#0A2341" d="M27.2,60.9c0.3-0.5,0.6-1,0.9-1.5l-12.5-7.9c-0.5,0.8-0.9,1.6-1.4,2.3L27.2,60.9z"/>
	<path fill="#0A2341" d="M24.4,66.1c0.3-0.5,0.5-1.1,0.8-1.6l-12.9-7.1c-0.4,0.8-0.8,1.6-1.2,2.4L24.4,66.1z"/>
	<path fill="#0A2341" d="M19.9,76.8c0.2-0.6,0.4-1.1,0.6-1.7L6.8,69.7c-0.3,0.8-0.6,1.7-0.9,2.6L19.9,76.8z"/>
	<path fill="#0A2341" d="M22,71.4c0.2-0.6,0.5-1.1,0.7-1.6L9.3,63.4c-0.4,0.8-0.7,1.7-1.1,2.5L22,71.4z"/>
	<path fill="#0A2341" d="M15.7,93.7c0.1-0.6,0.2-1.2,0.3-1.8L1.5,89.2c-0.2,0.9-0.3,1.8-0.4,2.7L15.7,93.7z"/>
	<path fill="#0A2341" d="M34.7,164.8c-0.4-0.5-0.7-0.9-1.1-1.4L21.7,172c0.5,0.7,1.1,1.4,1.7,2.1L34.7,164.8z"/>
	<path fill="#0A2341" d="M28.1,155.2c-0.3-0.5-0.6-1-0.9-1.5l-12.9,7.1c0.5,0.8,0.9,1.6,1.4,2.3L28.1,155.2z"/>
	<path fill="#0A2341" d="M31.2,160.1c-0.3-0.5-0.7-1-1-1.5l-12.5,7.9c0.5,0.8,1,1.5,1.5,2.2L31.2,160.1z"/>
	<path fill="#0A2341" d="M16,122.7c-0.1-0.6-0.2-1.2-0.3-1.8l-14.6,1.8c0.1,0.9,0.3,1.8,0.4,2.7L16,122.7z"/>
	<path fill="#0A2341" d="M42.5,173.4c-0.4-0.4-0.8-0.8-1.3-1.3l-10.8,10.1c0.6,0.6,1.3,1.3,1.9,1.9L42.5,173.4z"/>
	<path fill="#0A2341" d="M173.4,172.1c-0.4,0.4-0.8,0.8-1.3,1.3l10.1,10.8c0.6-0.6,1.3-1.3,1.9-1.9L173.4,172.1z"/>
	<path fill="#0A2341" d="M38.5,169.2c-0.4-0.4-0.8-0.9-1.2-1.3l-11.4,9.4c0.6,0.7,1.2,1.4,1.8,2L38.5,169.2z"/>
	<path fill="#0A2341" d="M17.1,128.4c-0.1-0.6-0.3-1.2-0.4-1.8l-14.5,2.8c0.2,0.9,0.4,1.8,0.6,2.7L17.1,128.4z"/>
	<path fill="#0A2341" d="M25.2,150.1c-0.3-0.5-0.5-1.1-0.8-1.6L11,154.8c0.4,0.8,0.8,1.6,1.2,2.4L25.2,150.1z"/>
	<path fill="#0A2341" d="M18.6,134c-0.2-0.6-0.3-1.1-0.5-1.7L3.8,136c0.2,0.9,0.5,1.7,0.8,2.6L18.6,134z"/>
	<path fill="#0A2341" d="M20.5,139.5c-0.2-0.6-0.4-1.1-0.6-1.7l-14,4.6c0.3,0.9,0.6,1.7,0.9,2.6L20.5,139.5z"/>
	<path fill="#0A2341" d="M22.7,144.9c-0.2-0.5-0.5-1.1-0.7-1.6l-13.7,5.4c0.4,0.8,0.7,1.7,1.1,2.5L22.7,144.9z"/>
	<path fill="#0A2341" d="M144.9,191.9c-0.5,0.2-1.1,0.5-1.6,0.7l5.4,13.7c0.8-0.4,1.7-0.7,2.5-1.1L144.9,191.9z"/>
	<path fill="#0A2341" d="M99.5,199.6c-0.6,0-1.2-0.1-1.8-0.2L95.9,214c0.9,0.1,1.8,0.2,2.7,0.3L99.5,199.6z"/>
	<path fill="#0A2341" d="M93.7,198.9c-0.6-0.1-1.2-0.2-1.8-0.3l-2.8,14.5c0.9,0.2,1.8,0.3,2.7,0.4L93.7,198.9z"/>
	<path fill="#0A2341" d="M88,197.9c-0.6-0.1-1.2-0.3-1.8-0.4l-3.7,14.3c0.9,0.2,1.8,0.4,2.7,0.6L88,197.9z"/>
	<path fill="#0A2341" d="M111.1,199.8c-0.6,0-1.2,0-1.8,0.1v14.7c0.9,0,1.8,0,2.7-0.1L111.1,199.8z"/>
	<path fill="#0A2341" d="M116.9,199.4c-0.6,0.1-1.2,0.1-1.8,0.2l0.9,14.7c0.9-0.1,1.8-0.2,2.7-0.3L116.9,199.4z"/>
	<path fill="#0A2341" d="M82.3,196.5c-0.6-0.2-1.2-0.3-1.7-0.5l-4.6,14c0.9,0.3,1.7,0.5,2.6,0.8L82.3,196.5z"/>
	<path fill="#0A2341" d="M105.3,199.9c-0.6,0-1.2,0-1.8-0.1l-0.9,14.7c0.9,0,1.8,0.1,2.7,0.1V199.9z"/>
	<path fill="#0A2341" d="M60.9,187.5c-0.5-0.3-1-0.6-1.5-0.9L51.5,199c0.8,0.5,1.6,0.9,2.3,1.4L60.9,187.5z"/>
	<path fill="#0A2341" d="M56,184.4c-0.5-0.3-1-0.7-1.5-1l-8.7,11.9c0.7,0.5,1.5,1,2.2,1.5L56,184.4z"/>
	<path fill="#0A2341" d="M76.8,194.7c-0.6-0.2-1.1-0.4-1.7-0.6l-5.4,13.7c0.8,0.3,1.7,0.6,2.6,0.9L76.8,194.7z"/>
	<path fill="#0A2341" d="M71.4,192.7c-0.6-0.2-1.1-0.5-1.6-0.7l-6.3,13.4c0.8,0.4,1.7,0.7,2.5,1.1L71.4,192.7z"/>
	<path fill="#0A2341" d="M66.1,190.2c-0.5-0.3-1.1-0.5-1.6-0.8l-7.1,12.9c0.8,0.4,1.6,0.8,2.4,1.2L66.1,190.2z"/>
	<path fill="#0A2341" d="M134,196c-0.6,0.2-1.1,0.3-1.7,0.5l3.7,14.3c0.9-0.2,1.7-0.5,2.6-0.8L134,196z"/>
	<path fill="#0A2341" d="M160.1,183.4c-0.5,0.3-1,0.7-1.5,1l7.9,12.5c0.8-0.5,1.5-1,2.2-1.5L160.1,183.4z"/>
	<path fill="#0A2341" d="M155.2,186.6c-0.5,0.3-1,0.6-1.5,0.9l7.1,12.9c0.8-0.5,1.6-0.9,2.3-1.4L155.2,186.6z"/>
	<path fill="#0A2341" d="M164.8,179.9c-0.5,0.4-0.9,0.7-1.4,1.1l8.7,11.9c0.7-0.5,1.4-1.1,2.1-1.7L164.8,179.9z"/>
	<path fill="#0A2341" d="M41.2,42.5c0.4-0.4,0.8-0.8,1.3-1.3L32.4,30.5c-0.6,0.6-1.3,1.3-1.9,1.9L41.2,42.5z"/>
	<path fill="#0A2341" d="M169.2,176.2c-0.4,0.4-0.9,0.8-1.3,1.2l9.4,11.4c0.7-0.6,1.4-1.2,2-1.8L169.2,176.2z"/>
	<path fill="#0A2341" d="M122.7,198.6c-0.6,0.1-1.2,0.2-1.8,0.3l1.8,14.6c0.9-0.1,1.8-0.3,2.7-0.4L122.7,198.6z"/>
	<path fill="#0A2341" d="M128.4,197.5c-0.6,0.1-1.2,0.3-1.8,0.4l2.8,14.5c0.9-0.2,1.8-0.4,2.7-0.6L128.4,197.5z"/>
	<path fill="#0A2341" d="M27.7,35.3c-0.6,0.7-1.2,1.4-1.8,2l11.4,9.4c0.4-0.5,0.8-0.9,1.2-1.3L27.7,35.3z"/>
	<path fill="#0A2341" d="M150.1,189.4c-0.5,0.3-1.1,0.5-1.6,0.8l6.3,13.3c0.8-0.4,1.6-0.8,2.4-1.2L150.1,189.4z"/>
	<path fill="#0A2341" d="M139.5,194.1c-0.6,0.2-1.1,0.4-1.7,0.6l4.6,14c0.9-0.3,1.7-0.6,2.6-0.9L139.5,194.1z"/>
	<path fill="#0A2341" d="M51.3,181c-0.5-0.4-0.9-0.7-1.4-1.1l-9.4,11.4c0.7,0.6,1.4,1.1,2.1,1.7L51.3,181z"/>
</g>
</svg>
