<?xml version="1.0" encoding="utf-8"?>
<!-- Generator: Adobe Illustrator 17.1.0, SVG Export Plug-In . SVG Version: 6.00 Build 0)  -->
<!DOCTYPE svg PUBLIC "-//W3C//DTD SVG 1.1//EN" "http://www.w3.org/Graphics/SVG/1.1/DTD/svg11.dtd">
<svg version="1.1" id="Layer_1" xmlns="http://www.w3.org/2000/svg" xmlns:xlink="http://www.w3.org/1999/xlink" x="0px" y="0px"
	 viewBox="0 0 166.6 166.6" enable-background="new 0 0 166.6 166.6" xml:space="preserve">
<g>
	<path fill="#0A2341" d="M98.9,10.2c0.5,0.1,1,0.2,1.5,0.3l2.1-8.3c-0.7-0.2-1.3-0.3-2-0.5L98.9,10.2z"/>
	<path fill="#0A2341" d="M107.9,12.7c0.5,0.2,1,0.3,1.4,0.5l3.1-7.9c-0.6-0.2-1.3-0.5-1.9-0.7L107.9,12.7z"/>
	<path fill="#0A2341" d="M94.3,9.3c0.5,0.1,1,0.2,1.5,0.2l1.6-8.4c-0.7-0.1-1.3-0.2-2-0.3L94.3,9.3z"/>
	<path fill="#0A2341" d="M103.4,11.3c0.5,0.1,1,0.3,1.5,0.4l2.6-8.1c-0.7-0.2-1.3-0.4-2-0.6L103.4,11.3z"/>
	<path fill="#0A2341" d="M29,146.5l5.4-6.6c-0.4-0.3-0.8-0.7-1.1-1l-5.9,6.2C28,145.6,28.5,146,29,146.5z"/>
	<path fill="#0A2341" d="M128.5,23.8c0.4,0.3,0.8,0.6,1.2,0.9l5.4-6.6c-0.5-0.4-1.1-0.9-1.6-1.3L128.5,23.8z"/>
	<path fill="#0A2341" d="M84.9,8.6c0.5,0,1,0,1.5,0L87,0.1c-0.7,0-1.4,0-2.1-0.1V8.6z"/>
	<path fill="#0A2341" d="M120.7,18.6c0.4,0.3,0.9,0.5,1.3,0.8l4.6-7.2c-0.6-0.4-1.2-0.7-1.8-1L120.7,18.6z"/>
	<path fill="#0A2341" d="M124.7,21.1c0.4,0.3,0.8,0.6,1.2,0.9l5-6.9c-0.6-0.4-1.1-0.8-1.7-1.2L124.7,21.1z"/>
	<path fill="#0A2341" d="M112.3,14.4c0.5,0.2,0.9,0.4,1.4,0.6l3.6-7.7c-0.6-0.3-1.2-0.6-1.9-0.8L112.3,14.4z"/>
	<path fill="#0A2341" d="M80.2,8.6c0.5,0,1,0,1.5,0V0c-0.7,0-1.4,0-2.1,0.1L80.2,8.6z"/>
	<path fill="#0A2341" d="M116.6,16.3c0.5,0.2,0.9,0.5,1.3,0.7l4.1-7.5c-0.6-0.3-1.2-0.6-1.8-0.9L116.6,16.3z"/>
	<path fill="#0A2341" d="M36.9,24.7c0.4-0.3,0.8-0.6,1.2-0.9l-5-6.9c-0.5,0.4-1.1,0.8-1.6,1.3L36.9,24.7z"/>
	<path fill="#0A2341" d="M40.7,21.9c0.4-0.3,0.8-0.6,1.2-0.9l-4.6-7.2c-0.6,0.4-1.1,0.8-1.7,1.2L40.7,21.9z"/>
	<path fill="#0A2341" d="M44.6,19.3c0.4-0.3,0.9-0.5,1.3-0.8l-4.1-7.5c-0.6,0.3-1.2,0.7-1.8,1L44.6,19.3z"/>
	<path fill="#0A2341" d="M137.6,20.2l-5.4,6.6c0.4,0.3,0.8,0.7,1.1,1l5.9-6.2C138.7,21,138.1,20.6,137.6,20.2z"/>
	<path fill="#0A2341" d="M33.3,27.7c0.4-0.3,0.8-0.7,1.1-1L29,20.2c-0.5,0.4-1,0.9-1.5,1.3L33.3,27.7z"/>
	<path fill="#0A2341" d="M48.7,17c0.4-0.2,0.9-0.5,1.3-0.7l-3.6-7.7c-0.6,0.3-1.2,0.6-1.8,0.9L48.7,17z"/>
	<path fill="#0A2341" d="M57.3,13.2c0.5-0.2,1-0.3,1.4-0.5l-2.6-8.1c-0.6,0.2-1.3,0.4-1.9,0.7L57.3,13.2z"/>
	<path fill="#0A2341" d="M52.9,15c0.5-0.2,0.9-0.4,1.4-0.6l-3.1-7.9c-0.6,0.3-1.3,0.6-1.9,0.8L52.9,15z"/>
	<path fill="#0A2341" d="M70.9,9.6c0.5-0.1,1-0.2,1.5-0.2l-1.1-8.5c-0.7,0.1-1.4,0.2-2,0.3L70.9,9.6z"/>
	<path fill="#0A2341" d="M66.3,10.5c0.5-0.1,1-0.2,1.5-0.3l-1.6-8.4c-0.7,0.1-1.3,0.3-2,0.5L66.3,10.5z"/>
	<path fill="#0A2341" d="M61.7,11.7c0.5-0.1,1-0.3,1.5-0.4L61,3c-0.7,0.2-1.3,0.4-2,0.6L61.7,11.7z"/>
	<path fill="#0A2341" d="M75.5,8.9c0.5-0.1,1-0.1,1.5-0.1l-0.5-8.5c-0.7,0.1-1.4,0.1-2,0.2L75.5,8.9z"/>
	<path fill="#0A2341" d="M89.6,8.8c0.5,0,1,0.1,1.5,0.1l1.1-8.5c-0.7-0.1-1.4-0.1-2-0.2L89.6,8.8z"/>
	<path fill="#0A2341" d="M144.7,40.7c0.3,0.4,0.6,0.8,0.9,1.2l7.2-4.6c-0.4-0.6-0.8-1.1-1.2-1.7L144.7,40.7z"/>
	<path fill="#0A2341" d="M141.9,36.9c0.3,0.4,0.6,0.8,0.9,1.2l6.9-5c-0.4-0.5-0.8-1.1-1.3-1.6L141.9,36.9z"/>
	<path fill="#0A2341" d="M147.3,44.6c0.3,0.4,0.5,0.9,0.8,1.3l7.5-4.1c-0.3-0.6-0.7-1.2-1-1.8L147.3,44.6z"/>
	<path fill="#0A2341" d="M138.9,33.3c0.3,0.4,0.7,0.8,1,1.1l6.6-5.4c-0.4-0.5-0.9-1-1.3-1.5L138.9,33.3z"/>
	<path fill="#0A2341" d="M146.5,137.6l-6.6-5.4c-0.3,0.4-0.7,0.8-1,1.1l6.2,5.9C145.6,138.7,146,138.1,146.5,137.6z"/>
	<path fill="#0A2341" d="M149.6,48.7c0.2,0.4,0.5,0.9,0.7,1.3l7.7-3.6c-0.3-0.6-0.6-1.2-0.9-1.8L149.6,48.7z"/>
	<path fill="#0A2341" d="M156.1,66.3c0.1,0.5,0.2,1,0.3,1.5l8.4-1.6c-0.1-0.7-0.3-1.3-0.5-2L156.1,66.3z"/>
	<path fill="#0A2341" d="M157.1,70.9c0.1,0.5,0.2,1,0.2,1.5l8.5-1.1c-0.1-0.7-0.2-1.4-0.3-2L157.1,70.9z"/>
	<path fill="#0A2341" d="M166.2,74.4l-8.5,1.1c0.1,0.5,0.1,1,0.1,1.5l8.5-0.5C166.3,75.8,166.3,75.1,166.2,74.4z"/>
	<path fill="#0A2341" d="M142.8,128.5c-0.3,0.4-0.6,0.8-0.9,1.2l6.6,5.4c0.4-0.5,0.9-1.1,1.3-1.6L142.8,128.5z"/>
	<path fill="#0A2341" d="M154.9,61.7c0.1,0.5,0.3,1,0.4,1.5l8.3-2.1c-0.2-0.7-0.4-1.3-0.6-2L154.9,61.7z"/>
	<path fill="#0A2341" d="M151.6,52.9c0.2,0.5,0.4,0.9,0.6,1.4l7.9-3.1c-0.3-0.6-0.6-1.3-0.8-1.9L151.6,52.9z"/>
	<path fill="#0A2341" d="M148,120.7c-0.3,0.4-0.5,0.9-0.8,1.3l7.2,4.6c0.4-0.6,0.7-1.2,1-1.8L148,120.7z"/>
	<path fill="#0A2341" d="M157.8,89.6c0,0.5-0.1,1-0.1,1.5l8.5,1.1c0.1-0.7,0.1-1.4,0.2-2L157.8,89.6z"/>
	<path fill="#0A2341" d="M157.3,94.3c-0.1,0.5-0.2,1-0.2,1.5l8.4,1.6c0.1-0.7,0.2-1.3,0.3-2L157.3,94.3z"/>
	<path fill="#0A2341" d="M145.6,124.7c-0.3,0.4-0.6,0.8-0.9,1.2l6.9,5c0.4-0.6,0.8-1.1,1.2-1.7L145.6,124.7z"/>
	<path fill="#0A2341" d="M158.1,84.9c0,0.5,0,1,0,1.5l8.5,0.5c0-0.7,0-1.4,0.1-2.1H158.1z"/>
	<path fill="#0A2341" d="M156.5,98.9c-0.1,0.5-0.2,1-0.3,1.5l8.3,2.1c0.2-0.7,0.3-1.3,0.5-2L156.5,98.9z"/>
	<path fill="#0A2341" d="M158,80.2c0,0.5,0,1,0,1.5h8.6c0-0.7,0-1.4-0.1-2.1L158,80.2z"/>
	<path fill="#0A2341" d="M150.3,116.6c-0.2,0.5-0.5,0.9-0.7,1.3l7.5,4.1c0.3-0.6,0.6-1.2,0.9-1.8L150.3,116.6z"/>
	<path fill="#0A2341" d="M155.3,103.4c-0.1,0.5-0.3,1-0.4,1.5l8.1,2.6c0.2-0.7,0.4-1.3,0.6-2L155.3,103.4z"/>
	<path fill="#0A2341" d="M135.6,29.9c0.4,0.4,0.7,0.7,1.1,1.1l6.2-5.9c-0.5-0.5-1-1-1.4-1.4L135.6,29.9z"/>
	<path fill="#0A2341" d="M153.9,107.9c-0.2,0.5-0.3,1-0.5,1.4l8,3.1c0.2-0.6,0.5-1.3,0.7-1.9L153.9,107.9z"/>
	<path fill="#0A2341" d="M152.3,112.3c-0.2,0.5-0.4,0.9-0.6,1.4l7.7,3.6c0.3-0.6,0.6-1.2,0.8-1.9L152.3,112.3z"/>
	<path fill="#0A2341" d="M153.4,57.3c0.2,0.5,0.3,1,0.5,1.4l8.1-2.6c-0.2-0.6-0.4-1.3-0.7-1.9L153.4,57.3z"/>
	<path fill="#0A2341" d="M8.8,77c0-0.5,0.1-1,0.1-1.5l-8.5-1.1c-0.1,0.7-0.1,1.4-0.2,2L8.8,77z"/>
	<path fill="#0A2341" d="M9.3,72.4c0.1-0.5,0.2-1,0.2-1.5l-8.4-1.6c-0.1,0.7-0.2,1.3-0.3,2L9.3,72.4z"/>
	<path fill="#0A2341" d="M10.2,67.7c0.1-0.5,0.2-1,0.3-1.5l-8.3-2.1c-0.2,0.7-0.3,1.3-0.5,2L10.2,67.7z"/>
	<path fill="#0A2341" d="M8.6,86.4c0-0.5,0-1,0-1.5H0c0,0.7,0,1.4,0.1,2.1L8.6,86.4z"/>
	<path fill="#0A2341" d="M11.3,63.2c0.1-0.5,0.3-1,0.4-1.5l-8.1-2.6c-0.2,0.7-0.4,1.3-0.6,2L11.3,63.2z"/>
	<path fill="#0A2341" d="M8.6,81.7c0-0.5,0-1,0-1.5l-8.5-0.5C0,80.3,0,81,0,81.7H8.6z"/>
	<path fill="#0A2341" d="M21.1,41.9c0.3-0.4,0.6-0.8,0.9-1.2l-6.9-5c-0.4,0.6-0.8,1.1-1.2,1.7L21.1,41.9z"/>
	<path fill="#0A2341" d="M8.9,91.1c-0.1-0.5-0.1-1-0.1-1.5l-8.5,0.5c0.1,0.7,0.1,1.4,0.2,2L8.9,91.1z"/>
	<path fill="#0A2341" d="M18.6,45.9c0.3-0.4,0.5-0.9,0.8-1.3L12.1,40c-0.4,0.6-0.7,1.2-1,1.8L18.6,45.9z"/>
	<path fill="#0A2341" d="M16.3,50c0.2-0.5,0.5-0.9,0.7-1.3l-7.5-4.1c-0.3,0.6-0.6,1.2-0.9,1.8L16.3,50z"/>
	<path fill="#0A2341" d="M14.4,54.3c0.2-0.5,0.4-0.9,0.6-1.4l-7.7-3.6c-0.3,0.6-0.6,1.2-0.8,1.9L14.4,54.3z"/>
	<path fill="#0A2341" d="M12.7,58.7c0.2-0.5,0.3-1,0.5-1.4l-7.9-3.1c-0.2,0.6-0.5,1.3-0.7,1.9L12.7,58.7z"/>
	<path fill="#0A2341" d="M17,117.9c-0.2-0.4-0.5-0.9-0.7-1.3l-7.7,3.6c0.3,0.6,0.6,1.2,0.9,1.8L17,117.9z"/>
	<path fill="#0A2341" d="M9.6,95.8c-0.1-0.5-0.2-1-0.2-1.5l-8.5,1.1c0.1,0.7,0.2,1.4,0.3,2L9.6,95.8z"/>
	<path fill="#0A2341" d="M38.1,142.8c-0.4-0.3-0.8-0.6-1.2-0.9l-5.4,6.6c0.5,0.4,1.1,0.9,1.6,1.3L38.1,142.8z"/>
	<path fill="#0A2341" d="M21.9,126c-0.3-0.4-0.6-0.8-0.9-1.2l-7.2,4.6c0.4,0.6,0.8,1.1,1.2,1.7L21.9,126z"/>
	<path fill="#0A2341" d="M136.7,135.6c-0.4,0.4-0.7,0.7-1.1,1.1l5.9,6.2c0.5-0.5,1-1,1.4-1.4L136.7,135.6z"/>
	<path fill="#0A2341" d="M31,136.7c-0.4-0.4-0.7-0.7-1.1-1.1l-6.2,5.9c0.5,0.5,1,1,1.4,1.4L31,136.7z"/>
	<path fill="#0A2341" d="M19.3,122c-0.3-0.4-0.5-0.9-0.8-1.3l-7.5,4.1c0.3,0.6,0.7,1.2,1,1.8L19.3,122z"/>
	<path fill="#0A2341" d="M24.7,129.7c-0.3-0.4-0.6-0.8-0.9-1.2l-6.9,5c0.4,0.5,0.8,1.1,1.3,1.6L24.7,129.7z"/>
	<path fill="#0A2341" d="M10.5,100.4c-0.1-0.5-0.2-1-0.3-1.5l-8.4,1.6c0.1,0.7,0.3,1.3,0.5,2L10.5,100.4z"/>
	<path fill="#0A2341" d="M11.7,104.9c-0.1-0.5-0.3-1-0.4-1.5L3,105.6c0.2,0.7,0.4,1.3,0.6,2L11.7,104.9z"/>
	<path fill="#0A2341" d="M23.8,38.1c0.3-0.4,0.6-0.8,0.9-1.2l-6.6-5.4c-0.4,0.5-0.9,1.1-1.3,1.6L23.8,38.1z"/>
	<path fill="#0A2341" d="M15,113.7c-0.2-0.5-0.4-0.9-0.6-1.4l-7.9,3.1c0.3,0.6,0.6,1.3,0.8,1.9L15,113.7z"/>
	<path fill="#0A2341" d="M13.2,109.4c-0.2-0.5-0.3-1-0.5-1.4l-8.1,2.6c0.2,0.6,0.4,1.3,0.7,1.9L13.2,109.4z"/>
	<path fill="#0A2341" d="M27.7,133.3c-0.3-0.4-0.7-0.8-1-1.1l-6.6,5.4c0.4,0.5,0.9,1,1.3,1.5L27.7,133.3z"/>
	<path fill="#0A2341" d="M91.1,157.7c-0.5,0.1-1,0.1-1.5,0.1l0.5,8.5c0.7-0.1,1.4-0.1,2-0.2L91.1,157.7z"/>
	<path fill="#0A2341" d="M77,157.8c-0.5,0-1-0.1-1.5-0.1l-1.1,8.5c0.7,0.1,1.4,0.1,2,0.2L77,157.8z"/>
	<path fill="#0A2341" d="M67.7,156.5c-0.5-0.1-1-0.2-1.5-0.3l-2.1,8.3c0.7,0.2,1.3,0.3,2,0.5L67.7,156.5z"/>
	<path fill="#0A2341" d="M81.7,158.1c-0.5,0-1,0-1.5,0l-0.5,8.5c0.7,0,1.4,0,2.1,0.1V158.1z"/>
	<path fill="#0A2341" d="M86.4,158c-0.5,0-1,0-1.5,0v8.6c0.7,0,1.4,0,2.1-0.1L86.4,158z"/>
	<path fill="#0A2341" d="M63.2,155.3c-0.5-0.1-1-0.3-1.5-0.4l-2.6,8.1c0.7,0.2,1.3,0.4,2,0.6L63.2,155.3z"/>
	<path fill="#0A2341" d="M72.4,157.3c-0.5-0.1-1-0.2-1.5-0.2l-1.6,8.4c0.7,0.1,1.3,0.2,2,0.3L72.4,157.3z"/>
	<path fill="#0A2341" d="M58.7,153.9c-0.5-0.2-1-0.3-1.4-0.5l-3.1,7.9c0.6,0.2,1.3,0.5,1.9,0.7L58.7,153.9z"/>
	<path fill="#0A2341" d="M41.9,145.6c-0.4-0.3-0.8-0.6-1.2-0.9l-5,6.9c0.6,0.4,1.1,0.8,1.7,1.2L41.9,145.6z"/>
	<path fill="#0A2341" d="M45.9,148c-0.4-0.3-0.9-0.5-1.3-0.8l-4.6,7.2c0.6,0.4,1.2,0.7,1.8,1L45.9,148z"/>
	<path fill="#0A2341" d="M50,150.3c-0.5-0.2-0.9-0.5-1.3-0.7l-4.1,7.5c0.6,0.3,1.2,0.6,1.8,0.9L50,150.3z"/>
	<path fill="#0A2341" d="M54.3,152.3c-0.5-0.2-0.9-0.4-1.4-0.6l-3.6,7.7c0.6,0.3,1.2,0.6,1.9,0.8L54.3,152.3z"/>
	<path fill="#0A2341" d="M117.9,149.6c-0.4,0.2-0.9,0.5-1.3,0.7l3.6,7.7c0.6-0.3,1.2-0.6,1.8-0.9L117.9,149.6z"/>
	<path fill="#0A2341" d="M129.7,141.9c-0.4,0.3-0.8,0.6-1.2,0.9l5,6.9c0.5-0.4,1.1-0.8,1.6-1.3L129.7,141.9z"/>
	<path fill="#0A2341" d="M126,144.7c-0.4,0.3-0.8,0.6-1.2,0.9l4.6,7.2c0.6-0.4,1.1-0.8,1.7-1.2L126,144.7z"/>
	<path fill="#0A2341" d="M95.8,157.1c-0.5,0.1-1,0.2-1.5,0.2l1.1,8.5c0.7-0.1,1.4-0.2,2-0.3L95.8,157.1z"/>
	<path fill="#0A2341" d="M122,147.3c-0.4,0.3-0.9,0.5-1.3,0.8l4.1,7.5c0.6-0.3,1.2-0.7,1.8-1L122,147.3z"/>
	<path fill="#0A2341" d="M29.9,31c0.4-0.4,0.7-0.7,1.1-1.1l-5.9-6.2c-0.5,0.5-1,1-1.4,1.4L29.9,31z"/>
	<path fill="#0A2341" d="M133.3,138.9c-0.4,0.3-0.8,0.7-1.1,1l5.4,6.6c0.5-0.4,1-0.9,1.5-1.3L133.3,138.9z"/>
	<path fill="#0A2341" d="M100.4,156.1c-0.5,0.1-1,0.2-1.5,0.3l1.6,8.4c0.7-0.1,1.3-0.3,2-0.5L100.4,156.1z"/>
	<path fill="#0A2341" d="M104.9,154.9c-0.5,0.1-1,0.3-1.5,0.4l2.1,8.3c0.7-0.2,1.3-0.4,2-0.6L104.9,154.9z"/>
	<path fill="#0A2341" d="M109.4,153.4c-0.5,0.2-1,0.3-1.4,0.5l2.6,8.1c0.6-0.2,1.3-0.4,1.9-0.7L109.4,153.4z"/>
	<path fill="#0A2341" d="M113.7,151.6c-0.5,0.2-0.9,0.4-1.4,0.6l3.1,7.9c0.6-0.3,1.3-0.6,1.9-0.8L113.7,151.6z"/>
	<path fill="#0A2341" d="M21.5,27.5c-0.5,0.5-0.9,1-1.3,1.5l6.6,5.4c0.3-0.4,0.7-0.8,1-1.1L21.5,27.5z"/>
</g>
</svg>
