<?xml version="1.0" encoding="utf-8"?>
<!-- Generator: Adobe Illustrator 17.1.0, SVG Export Plug-In . SVG Version: 6.00 Build 0)  -->
<!DOCTYPE svg PUBLIC "-//W3C//DTD SVG 1.1//EN" "http://www.w3.org/Graphics/SVG/1.1/DTD/svg11.dtd">
<svg version="1.1" id="Layer_1" xmlns="http://www.w3.org/2000/svg" xmlns:xlink="http://www.w3.org/1999/xlink" x="0px" y="0px"
	 viewBox="0 0 80 45" enable-background="new 0 0 80 45" xml:space="preserve">
<g>
	<g>
		<path fill="#FFFFFF" d="M39.3,28.2h-7.1c-0.1,0-0.2-0.1-0.2-0.2V17c0-0.1,0.1-0.2,0.2-0.2h11c0.1,0,0.2,0.1,0.2,0.2v7.8
			c0,0.3,0.4,0.5,0.6,0.2l1.1-1.1c0.1-0.1,0.1-0.2,0.1-0.2v-7.4c0-0.7-0.6-1.3-1.3-1.3H31.5c-0.7,0-1.3,0.6-1.3,1.3v12.4
			c0,0.7,0.6,1.3,1.3,1.3h8.9c0.3,0,0.5-0.4,0.2-0.6l-1.1-1.1C39.5,28.2,39.4,28.2,39.3,28.2"/>
	</g>
	<g>
		<path fill="#FFFFFF" d="M43.2,29.4c-0.2,0-0.4-0.1-0.6-0.2l-2.9-2.9c-0.3-0.3-0.3-0.9,0-1.2c0.3-0.3,0.9-0.3,1.2,0l2.3,2.3
			l5.2-5.2c0.3-0.3,0.9-0.3,1.2,0c0.3,0.3,0.3,0.9,0,1.2l-5.8,5.8C43.6,29.3,43.4,29.4,43.2,29.4z"/>
	</g>
</g>
</svg>
