<?xml version="1.0" encoding="utf-8"?>
<!-- Generator: Adobe Illustrator 17.1.0, SVG Export Plug-In . SVG Version: 6.00 Build 0)  -->
<!DOCTYPE svg PUBLIC "-//W3C//DTD SVG 1.1//EN" "http://www.w3.org/Graphics/SVG/1.1/DTD/svg11.dtd">
<svg version="1.1" id="Layer_1" xmlns="http://www.w3.org/2000/svg" xmlns:xlink="http://www.w3.org/1999/xlink" x="0px" y="0px"
	 viewBox="0 687.3 1170 112.7" enable-background="new 0 687.3 1170 112.7" xml:space="preserve">
<g>
	<line fill="none" stroke="#FFFFFF" stroke-miterlimit="10" x1="495" y1="731.9" x2="419.3" y2="731.9"/>
	<circle fill="#FFFFFF" cx="419.3" cy="731.9" r="2.2"/>
	<line fill="none" stroke="#FFFFFF" stroke-miterlimit="10" x1="675.5" y1="731.9" x2="751.2" y2="731.9"/>
	<circle fill="#FFFFFF" cx="751.4" cy="731.9" r="2.2"/>
	<polyline fill="none" stroke="#FFFFFF" stroke-miterlimit="10" points="413.1,736.9 401.8,748.7 401.8,775.4 388.1,787.9 
		286.4,787.9 274.7,799.9 0,799.9 	"/>
	
		<linearGradient id="SVGID_1_" gradientUnits="userSpaceOnUse" x1="584.9692" y1="111.0571" x2="584.9692" y2="1.839020e-003" gradientTransform="matrix(1.0009 0 0 1.0009 -3.098106e-002 687.2616)">
		<stop  offset="0" style="stop-color:#000924"/>
		<stop  offset="1" style="stop-color:#000000;stop-opacity:0"/>
	</linearGradient>
	<polygon fill="url(#SVGID_1_)" points="0,798.4 274.7,798.4 286.4,786.3 388.1,786.3 401.3,773.4 401.3,746.7 412.9,735.3 
		417.9,730.4 379.3,730.4 495.4,730.4 495.4,718.4 675.6,718.4 675.6,730.4 751.7,730.4 756.5,735.3 767.7,746.7 767.7,773.4 
		781.5,786.3 884.3,786.3 895.8,798.4 1171,798.4 1171,687.3 651,687.3 507.9,687.3 0,687.3 	"/>
	<polyline fill="none" stroke="#FFFFFF" stroke-miterlimit="10" points="754.9,736.9 766.2,748.7 766.2,775.4 779.7,787.9 
		881.4,787.9 893.1,799.9 1171,799.9 	"/>
	<g>
		<g>
			<g>
				
					<image overflow="visible" opacity="0.75" enable-background="new    " width="547" height="18" xlink:href="88DB5E45.png"  transform="matrix(1.0009 0 0 1.0009 626.5242 688.3007)">
				</image>
				<g>
					<polyline fill="none" stroke="#FFFFFF" points="1171,692.3 682.4,692.3 673.2,702.4 629.5,702.4 					"/>
				</g>
			</g>
			<circle fill="#FFFFFF" cx="630.2" cy="702.4" r="1.1"/>
		</g>
		<g>
			<g>
				
					<image overflow="visible" opacity="0.75" enable-background="new    " width="549" height="18" xlink:href="88DB5E4B.png"  transform="matrix(1.0009 0 0 1.0009 -4.0406 688.3007)">
				</image>
				<g>
					<polyline fill="none" stroke="#FFFFFF" points="0,692.3 488.7,692.3 498,702.4 541.6,702.4 					"/>
				</g>
			</g>
			<circle fill="#FFFFFF" cx="541" cy="702.4" r="1.1"/>
		</g>
	</g>
</g>
</svg>
