<?xml version="1.0" encoding="utf-8"?>
<!-- Generator: Adobe Illustrator 17.1.0, SVG Export Plug-In . SVG Version: 6.00 Build 0)  -->
<!DOCTYPE svg PUBLIC "-//W3C//DTD SVG 1.1//EN" "http://www.w3.org/Graphics/SVG/1.1/DTD/svg11.dtd">
<svg version="1.1" id="Layer_1" xmlns="http://www.w3.org/2000/svg" xmlns:xlink="http://www.w3.org/1999/xlink" x="0px" y="0px"
	 viewBox="0 632.9 1170 167.1" enable-background="new 0 632.9 1170 167.1" xml:space="preserve">
<g id="Stroke">
	<g id="obvodka">
		<g>
			<polygon fill="none" stroke="#FFFFFF" stroke-width="2" points="774.6,773.3 397.4,773.3 367.3,799.2 69.1,740.9 1.9,628.7 
				1170.1,628.7 1102.7,740.9 804.7,799.2 			"/>
		</g>
	</g>
</g>
<g id="Multy">
	<g>
		
			<linearGradient id="SVGID_1_" gradientUnits="userSpaceOnUse" x1="277.0936" y1="723.3866" x2="277.0936" y2="799.9781" gradientTransform="matrix(2.1148 0 0 -2.1148 -1.712322e-003 2324.6631)">
			<stop  offset="0" style="stop-color:#000000;stop-opacity:0"/>
			<stop  offset="1" style="stop-color:#000924"/>
		</linearGradient>
		<polygon fill="url(#SVGID_1_)" points="776.1,769.1 395.7,769.1 366,794.8 71.9,737.1 9.3,632.9 1162.7,632.9 1100.1,737.1 
			806,794.8 		"/>
	</g>
</g>
<g id="Logo">
	<g id="logo">
		<g>
			<g>
				<path fill="#FFFFFF" d="M416.6,713.4c0,1.3-0.2,2.5-0.8,3.6c-0.4,1.1-1.3,2.1-2.3,3c-1.5,1.3-3.6,1.9-5.7,2.1
					c-0.2,0-0.4-0.2-0.4-0.6v-3.8c0-0.2,0.2-0.6,0.4-0.6h0.2c1.3-0.2,3.8-0.8,3.8-3.6v-13.9H408c-0.4,0-0.6-0.2-0.6-0.6v-3.8
					c0-0.4,0.2-0.6,0.6-0.6h8c0.4,0,0.6,0.2,0.8,0.4l0,0c0,0,0,0,0,0.2v18.4h-0.2V713.4z"/>
				<path fill="#FFFFFF" d="M485.7,715.1c0,0.4-0.2,0.6-0.6,0.6h-0.8l1.3,5.3v0.2l0,0c0,0.4-0.2,0.6-0.6,0.6h-3.8
					c-0.2,0-0.4-0.2-0.6-0.4l0,0l-1.5-5.7h-5.3l-1.5,5.7l0,0c0,0.2-0.4,0.4-0.6,0.4h-3.9c-0.4,0-0.6-0.2-0.6-0.6V721l0,0l6.5-26.2
					v-0.2c0-0.2,0.4-0.4,0.6-0.4h4.2c0.2,0,0.4,0.2,0.6,0.4v0.2l4,15.6h2.1c0.4,0,0.6,0.2,0.6,0.6v4h-0.1L485.7,715.1L485.7,715.1z
					 M477.9,710.7l-1.5-5.9l-1.5,5.9H477.9z"/>
				<path fill="#FFFFFF" d="M557.3,721v0.2c0,0.4-0.2,0.6-0.6,0.6h-4.2c-0.2,0-0.4-0.2-0.4-0.2l0,0l-5.5-9.7l-0.6-1.3h-2.3v10.8
					c0,0.4-0.2,0.6-0.6,0.6h-3.8c-0.4,0-0.6-0.2-0.6-0.6v-15.6h4.6l-4.2-7.6l0,0l-0.4-0.6v-2.5c0-0.4,0.2-0.6,0.6-0.6h9.3
					c3,0,5.5,0.8,7.2,2.3c1.7,1.5,2.7,3.6,2.7,5.9c0,3.4-2.3,6.8-7.2,7.8l0.2,0.2l0.6,1.3L557.3,721L557.3,721z M548.5,705.8
					c0.4,0,0.6,0,0.8,0c2.5-0.4,3.8-1.7,3.8-3c0-1.5-1.5-3.2-5.1-3.2h-3.1l3,5.1L548.5,705.8z"/>
				<path fill="#FFFFFF" d="M628.3,695.1C628.3,695.3,628.3,695.3,628.3,695.1l-6.5,26.4l0,0c0,0.2-0.4,0.4-0.6,0.4H617
					c-0.2,0-0.4-0.2-0.6-0.4l-6.5-26.4l0,0v-0.2c0-0.4,0.2-0.6,0.6-0.6h3.8c0.2,0,0.4,0.2,0.6,0.4l0,0l4.2,16.7l4.2-16.7l0,0
					c0-0.2,0.4-0.4,0.6-0.4h3.8C627.9,694.4,628.3,694.6,628.3,695.1z"/>
				<path fill="#FFFFFF" d="M689.4,699.5V717h4.2c0.4,0,0.8,0.2,0.8,0.6v3.8c0,0.4-0.4,0.6-0.8,0.6h-13.7c-0.4,0-0.6-0.2-0.6-0.6
					v-3.7c0-0.4,0.2-0.6,0.6-0.6h4.4v-17.5h-4.4c-0.4,0-0.6-0.2-0.6-0.6v-3.8c0-0.4,0.2-0.6,0.6-0.6h13.7c0.4,0,0.8,0.2,0.8,0.6v3.8
					c0,0.4-0.4,0.6-0.8,0.6h-4.2V699.5z"/>
				<path fill="#FFFFFF" d="M764.9,714.1c0,0.2,0,2.1-1.3,4c-1.1,1.9-3.4,4-8.2,4c-3.8,0-6.8-1.5-8.2-4.4c-0.6-1.3-1.1-2.7-1.1-3.6
					v-0.2c0-0.4,0.2-0.6,0.6-0.6h4c0.2,0,0.4,0.2,0.4,0.4l0,0l0,0c0,0.4,0.2,0.8,0.6,1.5c0.6,1.1,1.9,1.7,3.8,1.7
					c1.9,0,3.2-0.6,3.8-1.7c0.4-0.8,0.4-1.5,0.4-1.5c0-0.8-0.2-1.9-1.9-2.5c-1.3-0.4-2.5-0.6-2.5-0.6c-0.2,0-2.3,0-4.4-0.8
					c-3.2-1.3-5.1-3.8-5.1-7.2c0-0.4,0-3.4,2.3-5.7c1.7-1.7,4-2.5,7-2.5c1.9,0,4.6,0.4,6.8,2.5c2.2,2.1,2.5,4.6,2.7,5.9l0,0
					c0,0.4-0.2,0.6-0.6,0.6h-3.7c-0.2,0-0.4-0.2-0.6-0.4l0,0c0-0.4-0.2-1.1-0.6-1.7c-0.4-0.8-1.3-1.9-3.8-1.9
					c-1.5,0-2.7,0.4-3.4,1.1c-0.8,0.8-0.8,2.1-0.8,2.1c0,0.8,0.2,1.9,1.9,2.5c1.3,0.4,2.5,0.4,2.5,0.4c0.2,0,2.3,0,4.4,0.8
					C763,707.9,764.9,710.7,764.9,714.1z"/>
			</g>
		</g>
	</g>
</g>
</svg>
