<?xml version="1.0" encoding="utf-8"?>
<!-- Generator: Adobe Illustrator 17.1.0, SVG Export Plug-In . SVG Version: 6.00 Build 0)  -->
<!DOCTYPE svg PUBLIC "-//W3C//DTD SVG 1.1//EN" "http://www.w3.org/Graphics/SVG/1.1/DTD/svg11.dtd">
<svg version="1.1" id="Layer_1" xmlns="http://www.w3.org/2000/svg" xmlns:xlink="http://www.w3.org/1999/xlink" x="0px" y="0px"
	 viewBox="0 0 23.5 23.5" enable-background="new 0 0 23.5 23.5" xml:space="preserve">
<g>
	<path fill-rule="evenodd" clip-rule="evenodd" fill="#FFFFFF" d="M11.7,0C5.3,0,0,5.3,0,11.7c0,6.5,5.3,11.7,11.7,11.7
		c6.5,0,11.7-5.3,11.7-11.7C23.5,5.3,18.2,0,11.7,0z M11.7,22.3c-5.8,0-10.6-4.7-10.6-10.6c0-5.8,4.7-10.6,10.6-10.6
		c5.8,0,10.6,4.7,10.6,10.6C22.3,17.6,17.6,22.3,11.7,22.3z"/>
	<path fill-rule="evenodd" clip-rule="evenodd" fill="#FFFFFF" d="M11.7,5.3C10.8,5.3,10,6.1,10,7c0,0.9,0.8,7.2,1.7,7.2
		c0.9,0,1.7-6.2,1.7-7.2C13.4,6.1,12.7,5.3,11.7,5.3z"/>
	<path fill-rule="evenodd" clip-rule="evenodd" fill="#FFFFFF" d="M11.7,15c-0.9,0-1.6,0.7-1.6,1.6c0,0.9,0.7,1.6,1.6,1.6
		c0.9,0,1.6-0.7,1.6-1.6C13.3,15.7,12.6,15,11.7,15z"/>
</g>
</svg>
