<?xml version="1.0" encoding="utf-8"?>
<!-- Generator: Adobe Illustrator 17.1.0, SVG Export Plug-In . SVG Version: 6.00 Build 0)  -->
<!DOCTYPE svg PUBLIC "-//W3C//DTD SVG 1.1//EN" "http://www.w3.org/Graphics/SVG/1.1/DTD/svg11.dtd">
<svg version="1.1" id="Layer_1" xmlns="http://www.w3.org/2000/svg" xmlns:xlink="http://www.w3.org/1999/xlink" x="0px" y="0px"
	 viewBox="0 0 23.5 23.5" enable-background="new 0 0 23.5 23.5" xml:space="preserve">
<g>
	<path fill-rule="evenodd" clip-rule="evenodd" fill="#FFFFFF" d="M11.7,0C5.3,0,0,5.3,0,11.7c0,6.5,5.3,11.7,11.7,11.7
		c6.5,0,11.7-5.3,11.7-11.7C23.5,5.3,18.2,0,11.7,0z M11.7,22.3c-5.8,0-10.6-4.7-10.6-10.6c0-5.8,4.7-10.6,10.6-10.6
		c5.8,0,10.6,4.7,10.6,10.6C22.3,17.6,17.6,22.3,11.7,22.3z"/>
	<g>
		<path fill-rule="evenodd" clip-rule="evenodd" fill="#FFFFFF" d="M13.9,15.7h-0.7v-5c0-0.8-0.6-1.4-1.4-1.4H9.6
			c-0.4,0-0.7,0.3-0.7,0.7v0.7c0,0.4,0.3,0.7,0.7,0.7h0.7v4.3H9.6c-0.4,0-0.7,0.3-0.7,0.7v1.4c0,0.4,0.3,0.7,0.7,0.7h4.3
			c0.4,0,0.7-0.3,0.7-0.7v-1.4C14.6,16,14.3,15.7,13.9,15.7z"/>
		<path fill-rule="evenodd" clip-rule="evenodd" fill="#FFFFFF" d="M11.7,7.9c0.8,0,1.4-0.6,1.4-1.4c0-0.8-0.6-1.4-1.4-1.4
			c-0.8,0-1.4,0.6-1.4,1.4C10.3,7.2,10.9,7.9,11.7,7.9z"/>
	</g>
</g>
</svg>
