<?xml version="1.0" encoding="utf-8"?>
<!-- Generator: Adobe Illustrator 16.0.0, SVG Export Plug-In . SVG Version: 6.00 Build 0)  -->
<!DOCTYPE svg PUBLIC "-//W3C//DTD SVG 1.1//EN" "http://www.w3.org/Graphics/SVG/1.1/DTD/svg11.dtd">
<svg version="1.1" id="Слой_1" xmlns="http://www.w3.org/2000/svg" xmlns:xlink="http://www.w3.org/1999/xlink" x="0px" y="0px"
	 width="120px" height="120px" viewBox="0 0 120 120" enable-background="new 0 0 120 120" xml:space="preserve">
<path id="Circular_x5F_G_x5F_21_2_" fill="#49A7E8" stroke="#49A7E8" stroke-width="2" stroke-miterlimit="10" d="M40.161,7.652
	c0.688-0.265,1.38-0.521,2.08-0.759l3.513,9.652c-0.703,0.237-1.395,0.489-2.081,0.758L40.161,7.652z M51.397,15.04
	c0.72-0.144,1.446-0.272,2.18-0.385L51.793,4.541c-0.733,0.113-1.458,0.242-2.181,0.385L51.397,15.04z M59.395,3.884v10.27
	c0.367-0.009,0.735-0.016,1.106-0.016c0.369,0,0.74,0.007,1.105,0.016V3.884c-0.368-0.004-0.736-0.011-1.105-0.011
	C60.13,3.873,59.762,3.88,59.395,3.884z M24.438,31.487c0.461-0.576,0.936-1.143,1.423-1.695l-7.868-6.603
	c-0.484,0.557-0.958,1.125-1.421,1.696L24.438,31.487z M29.991,25.663c0.551-0.489,1.117-0.964,1.693-1.423l-6.6-7.866
	c-0.574,0.463-1.14,0.938-1.696,1.419L29.991,25.663z M16.743,45.555c0.238-0.7,0.49-1.395,0.759-2.08l-9.651-3.51
	c-0.265,0.684-0.52,1.38-0.758,2.076L16.743,45.555z M19.974,38.183c0.354-0.65,0.724-1.288,1.108-1.917l-8.896-5.137
	c-0.38,0.634-0.748,1.272-1.105,1.917L19.974,38.183z M67.426,14.655c0.732,0.112,1.461,0.241,2.181,0.381l1.785-10.111
	c-0.726-0.143-1.449-0.271-2.182-0.385L67.426,14.655z M14.853,53.378c0.11-0.731,0.239-1.458,0.383-2.177L5.123,49.416
	c-0.14,0.724-0.27,1.447-0.383,2.177L14.853,53.378z M99.922,36.266c0.384,0.629,0.753,1.267,1.109,1.917l8.892-5.137
	c-0.357-0.646-0.725-1.283-1.106-1.917L99.922,36.266z M115.88,49.416l-10.113,1.781c0.145,0.724,0.271,1.45,0.384,2.181
	l10.115-1.785C116.152,50.863,116.021,50.14,115.88,49.416z M75.251,16.545c0.7,0.237,1.393,0.489,2.078,0.758l3.514-9.651
	c-0.689-0.265-1.38-0.518-2.08-0.759L75.251,16.545z M14.336,60.303c0-0.369,0.005-0.739,0.015-1.108L4.085,59.199
	c-0.007,0.365-0.016,0.735-0.016,1.104s0.008,0.739,0.016,1.108h10.266C14.341,61.042,14.336,60.672,14.336,60.303z M103.501,43.475
	c0.269,0.685,0.523,1.38,0.759,2.08l9.65-3.515c-0.239-0.7-0.491-1.392-0.758-2.076L103.501,43.475z M82.624,19.776
	c0.646,0.354,1.287,0.723,1.913,1.107l5.137-8.896c-0.63-0.381-1.271-0.746-1.917-1.104L82.624,19.776z M89.319,24.239
	c0.576,0.459,1.14,0.934,1.693,1.423l6.602-7.87c-0.556-0.482-1.121-0.957-1.697-1.419L89.319,24.239z M95.143,29.792
	c0.487,0.552,0.961,1.116,1.424,1.695l7.866-6.602c-0.464-0.576-0.937-1.14-1.424-1.696L95.143,29.792z M36.467,20.884
	c0.627-0.384,1.267-0.754,1.915-1.107l-5.136-8.893c-0.646,0.358-1.287,0.723-1.917,1.104L36.467,20.884z M91.016,94.943
	c-0.555,0.49-1.12,0.964-1.696,1.424l6.601,7.866c0.573-0.463,1.139-0.938,1.694-1.421L91.016,94.943z M84.539,99.723
	c-0.628,0.385-1.269,0.754-1.915,1.107l5.133,8.893c0.649-0.354,1.287-0.723,1.917-1.104L84.539,99.723z M77.33,103.303
	c-0.687,0.27-1.379,0.521-2.079,0.759l3.512,9.651c0.7-0.238,1.391-0.49,2.08-0.759L77.33,103.303z M96.566,89.119
	c-0.463,0.58-0.937,1.142-1.422,1.695l7.864,6.602c0.487-0.556,0.962-1.119,1.424-1.695L96.566,89.119z M69.606,105.57
	c-0.72,0.145-1.448,0.271-2.181,0.381l1.784,10.118c0.732-0.117,1.456-0.245,2.182-0.386L69.606,105.57z M106.15,67.228
	c-0.112,0.734-0.239,1.459-0.384,2.183l10.113,1.783c0.141-0.723,0.272-1.449,0.386-2.181L106.15,67.228z M101.031,82.423
	c-0.356,0.65-0.724,1.287-1.109,1.918l8.895,5.136c0.382-0.629,0.749-1.271,1.106-1.917L101.031,82.423z M116.92,59.195h-10.267
	c0.008,0.369,0.011,0.739,0.011,1.108s-0.003,0.739-0.011,1.108h10.267c0.006-0.369,0.014-0.739,0.014-1.108
	S116.926,59.564,116.92,59.195z M104.26,75.055c-0.235,0.7-0.49,1.393-0.756,2.077l9.649,3.511c0.266-0.684,0.518-1.376,0.757-2.076
	L104.26,75.055z M31.684,96.367c-0.576-0.46-1.142-0.934-1.693-1.424l-6.603,7.869c0.557,0.487,1.123,0.958,1.696,1.421
	L31.684,96.367z M25.861,90.814c-0.488-0.554-0.962-1.115-1.423-1.695l-7.866,6.602c0.462,0.576,0.937,1.14,1.421,1.695
	L25.861,90.814z M21.082,84.341c-0.385-0.631-0.754-1.268-1.108-1.918L11.08,87.56c0.358,0.646,0.725,1.288,1.105,1.917
	L21.082,84.341z M17.501,77.132c-0.269-0.685-0.521-1.377-0.759-2.077l-9.65,3.512c0.238,0.7,0.493,1.393,0.758,2.076L17.501,77.132
	z M61.606,116.723v-10.266c-0.365,0.008-0.736,0.011-1.105,0.011c-0.372,0-0.74-0.003-1.106-0.011v10.266
	c0.367,0.007,0.735,0.015,1.106,0.015C60.871,116.737,61.238,116.729,61.606,116.723z M15.236,69.41
	c-0.144-0.72-0.273-1.448-0.383-2.183L4.739,69.013c0.114,0.731,0.244,1.458,0.383,2.181L15.236,69.41z M53.577,105.951
	c-0.733-0.109-1.46-0.236-2.18-0.381l-1.785,10.113c0.724,0.141,1.448,0.269,2.181,0.386L53.577,105.951z M45.751,104.062
	c-0.7-0.237-1.392-0.489-2.078-0.759l-3.511,9.651c0.686,0.269,1.379,0.521,2.078,0.759L45.751,104.062z M38.378,100.83
	c-0.646-0.354-1.284-0.723-1.912-1.107l-5.137,8.896c0.63,0.382,1.27,0.75,1.917,1.104L38.378,100.83z"/>
</svg>
