<?xml version="1.0" encoding="utf-8"?>
<!-- Generator: Adobe Illustrator 17.1.0, SVG Export Plug-In . SVG Version: 6.00 Build 0)  -->
<!DOCTYPE svg PUBLIC "-//W3C//DTD SVG 1.1//EN" "http://www.w3.org/Graphics/SVG/1.1/DTD/svg11.dtd">
<svg version="1.1" id="Layer_1" xmlns="http://www.w3.org/2000/svg" xmlns:xlink="http://www.w3.org/1999/xlink" x="0px" y="0px"
	 viewBox="0 0 23.5 23.5" enable-background="new 0 0 23.5 23.5" xml:space="preserve">
<g>
	<path fill="#FFFFFF" d="M17.2,9.9V8.5c0-1-0.8-1.8-1.8-1.8H14c0-0.1,0-0.1,0-0.2c0-1.3-1.1-2.4-2.4-2.4c-1.3,0-2.4,1.1-2.4,2.4
		c0,0.1,0,0.1,0,0.2H8c-1,0-1.8,0.8-1.8,1.8v2.2c0,0.5,0.5,0.8,1,0.6c0.2-0.1,0.3-0.1,0.5-0.1c0.6,0,1.1,0.5,1.1,1.1
		s-0.5,1.1-1.1,1.1c-0.2,0-0.4,0-0.5-0.1c-0.3-0.2-0.7-0.1-0.9,0.2c-0.1,0.1-0.1,0.2-0.1,0.3V16c0,1,0.8,1.8,1.8,1.8h2.2
		c0.4,0,0.6-0.3,0.6-0.6c0-0.1,0-0.2-0.1-0.3c-0.1-0.2-0.1-0.3-0.1-0.5c0-0.6,0.5-1.1,1.1-1.1c0.6,0,1.1,0.5,1.1,1.1
		c0,0.2-0.1,0.4-0.1,0.5c-0.2,0.3-0.1,0.7,0.2,0.9c0.1,0.1,0.2,0.1,0.3,0.1h2.2c1,0,1.8-0.8,1.8-1.8v-1.4c1.4,0.1,2.6-1,2.6-2.3
		S18.6,9.8,17.2,9.9z M17.4,13.3c-0.2,0-0.4,0-0.5-0.1c-0.3-0.2-0.7-0.1-0.9,0.2c-0.1,0.1-0.1,0.2-0.1,0.3V16c0,0.3-0.2,0.5-0.5,0.5
		H14c0-0.1,0-0.1,0-0.2c0-1.3-1.1-2.4-2.4-2.4c-1.3,0-2.4,1.1-2.4,2.4c0,0.1,0,0.1,0,0.2H8c-0.3,0-0.5-0.2-0.5-0.5v-1.4
		c1.4,0.1,2.6-1,2.6-2.3c0-1.4-1.1-2.5-2.6-2.3V8.5C7.5,8.2,7.7,8,8,8h2.2c0.4,0,0.6-0.3,0.6-0.6c0-0.1,0-0.2-0.1-0.3
		c-0.1-0.2-0.1-0.3-0.1-0.5c0-0.6,0.5-1.1,1.1-1.1c0.6,0,1.1,0.5,1.1,1.1c0,0.2-0.1,0.4-0.1,0.5c-0.1,0.1-0.1,0.3-0.1,0.5
		c0,0.2,0.2,0.3,0.3,0.4C13,8,13.1,8,13.2,8h2.2c0.3,0,0.5,0.2,0.5,0.5v2.2c0,0.5,0.5,0.8,1,0.6c0.2-0.1,0.4-0.1,0.5-0.1
		c0.6,0,1.1,0.5,1.1,1.1S18,13.3,17.4,13.3z"/>
	<path fill="#FFFFFF" d="M11.7,0.1C5.3,0.1,0.1,5.3,0.1,11.7c0,6.4,5.2,11.7,11.7,11.7c6.4,0,11.7-5.2,11.7-11.7
		C23.4,5.3,18.2,0.1,11.7,0.1z M11.7,22.3c-5.8,0-10.5-4.7-10.5-10.5c0-5.8,4.7-10.5,10.5-10.5c5.8,0,10.5,4.7,10.5,10.5
		C22.3,17.5,17.5,22.3,11.7,22.3z"/>
</g>
</svg>
