<?xml version="1.0" encoding="utf-8"?>
<!-- Generator: Adobe Illustrator 17.1.0, SVG Export Plug-In . SVG Version: 6.00 Build 0)  -->
<!DOCTYPE svg PUBLIC "-//W3C//DTD SVG 1.1//EN" "http://www.w3.org/Graphics/SVG/1.1/DTD/svg11.dtd">
<svg version="1.1" id="Layer_1" xmlns="http://www.w3.org/2000/svg" xmlns:xlink="http://www.w3.org/1999/xlink" x="0px" y="0px"
	 viewBox="0 0 23.5 23.5" enable-background="new 0 0 23.5 23.5" xml:space="preserve">
<g>
	<path fill="#FFFFFF" d="M11.7,0C5.3,0,0,5.3,0,11.7c0,6.5,5.3,11.7,11.7,11.7c6.5,0,11.7-5.3,11.7-11.7C23.5,5.3,18.2,0,11.7,0z
		 M11.7,22.3c-5.8,0-10.6-4.7-10.6-10.6c0-5.8,4.7-10.6,10.6-10.6c5.8,0,10.6,4.7,10.6,10.6C22.3,17.6,17.6,22.3,11.7,22.3z"/>
	<circle fill="#FFFFFF" cx="15.6" cy="14.7" r="1.2"/>
	<path fill="#FFFFFF" d="M10.9,4.4c-0.3-0.3-0.8-0.3-1.1,0L5.3,8.9C5,9.2,5,9.7,5.3,10l6.9,6.9c0.2,0.3,0.6,0.5,1,0.5h4
		c0.6,0,1.2-0.5,1.2-1.2v-4c0-0.4-0.2-0.8-0.5-0.9L10.9,4.4z M16.8,12.7v3c0,0.1-0.1,0.2-0.2,0.2h-3l-0.1,0L7,9.5l3.4-3.4l5,5
		C15.5,11.2,16.6,12.4,16.8,12.7z"/>
</g>
</svg>
