<?xml version="1.0" encoding="utf-8"?>
<!-- Generator: Adobe Illustrator 17.1.0, SVG Export Plug-In . SVG Version: 6.00 Build 0)  -->
<!DOCTYPE svg PUBLIC "-//W3C//DTD SVG 1.1//EN" "http://www.w3.org/Graphics/SVG/1.1/DTD/svg11.dtd">
<svg version="1.1" id="Layer_1" xmlns="http://www.w3.org/2000/svg" xmlns:xlink="http://www.w3.org/1999/xlink" x="0px" y="0px"
	 viewBox="0 0 23.5 23.5" enable-background="new 0 0 23.5 23.5" xml:space="preserve">
<g>
	<path fill="#FFFFFF" d="M11.7,23.5C5.3,23.5,0,18.2,0,11.7C0,5.3,5.3,0,11.7,0c6.5,0,11.7,5.3,11.7,11.7
		C23.5,18.2,18.2,23.5,11.7,23.5z M11.7,1.1C5.9,1.1,1.1,5.9,1.1,11.7c0,5.8,4.7,10.6,10.6,10.6c5.8,0,10.6-4.7,10.6-10.6
		C22.3,5.9,17.6,1.1,11.7,1.1z"/>
	<path fill-rule="evenodd" clip-rule="evenodd" fill="#FFFFFF" d="M18.8,8.6l-3.9,3.9c-0.4,0.4-0.9,0.4-1.3,0L13.3,12L12,13.3
		l0.4,0.4c0.4,0.4,0.4,0.9,0,1.3l-3.9,3.9c-0.4,0.4-0.9,0.4-1.3,0l-2.6-2.6c-0.4-0.4-0.4-0.9,0-1.3l3.9-3.9c0.4-0.4,0.9-0.4,1.3,0
		l0.4,0.4l1.2-1.2l-0.4-0.4c-0.4-0.4-0.4-0.9,0-1.3l3.9-3.9c0.4-0.4,0.9-0.4,1.3,0l2.6,2.6C19.1,7.6,19.1,8.2,18.8,8.6L18.8,8.6z
		 M9.5,12c-0.2-0.2-0.5-0.2-0.6,0l-3.2,3.2c-0.2,0.2-0.2,0.5,0,0.6l1.9,1.9c0.2,0.2,0.5,0.2,0.6,0l3.2-3.2c0.2-0.2,0.2-0.5,0-0.6
		l-0.3-0.3l-1.3,1.3c-0.2,0.2-0.5,0.2-0.6,0l-0.6-0.6c-0.2-0.2-0.2-0.5,0-0.6l1.3-1.3L9.5,12L9.5,12z M9.1,13.8
		c-0.1,0.1-0.1,0.3,0,0.4l0.2,0.2c0.1,0.1,0.3,0.1,0.4,0l4.9-4.9c0.1-0.1,0.1-0.3,0-0.4l-0.2-0.2c-0.1-0.1-0.3-0.1-0.4,0L9.1,13.8
		L9.1,13.8z M17.8,7.6l-1.9-1.9c-0.2-0.2-0.5-0.2-0.6,0L12,8.9c-0.2,0.2-0.2,0.5,0,0.6l0.3,0.3l1.5-1.5c0.2-0.2,0.5-0.2,0.6,0
		l0.6,0.6c0.2,0.2,0.2,0.5,0,0.6l-1.5,1.5l0.3,0.3c0.2,0.2,0.5,0.2,0.6,0l3.2-3.2C18,8.1,18,7.8,17.8,7.6L17.8,7.6z"/>
</g>
</svg>
