<?xml version="1.0" encoding="utf-8"?>
<!-- Generator: Adobe Illustrator 17.1.0, SVG Export Plug-In . SVG Version: 6.00 Build 0)  -->
<!DOCTYPE svg PUBLIC "-//W3C//DTD SVG 1.1//EN" "http://www.w3.org/Graphics/SVG/1.1/DTD/svg11.dtd">
<svg version="1.1" id="Layer_1" xmlns="http://www.w3.org/2000/svg" xmlns:xlink="http://www.w3.org/1999/xlink" x="0px" y="0px"
	 viewBox="0 0 122.5 15.3" enable-background="new 0 0 122.5 15.3" xml:space="preserve">
<polygon opacity="0.6" fill="#000924" points="111.5,0 9.9,0 0,15.3 122.5,15.3 "/>
<g>
	<g>
		<path fill="#FFFFFF" d="M36.4,5.2h4.8v1.3h-3.4v1.3h3V9h-3v2.4h-1.4V5.2z"/>
		<path fill="#FFFFFF" d="M42.3,5.2h1.4v6.3h-1.4V5.2z"/>
		<path fill="#FFFFFF" d="M45.3,5.2h1.4v5h3.1v1.3h-4.5V5.2z"/>
		<path fill="#FFFFFF" d="M51.4,6.5h-1.9V5.2h5.2v1.3h-1.9v5h-1.4V6.5z"/>
		<path fill="#FFFFFF" d="M55.8,5.2h4.8v1.2h-3.4v1.3h3v1.2h-3v1.3h3.4v1.2h-4.8V5.2z"/>
		<path fill="#FFFFFF" d="M61.8,5.2h2.9c0.8,0,1.4,0.2,1.8,0.6c0.4,0.4,0.5,0.8,0.5,1.5c0,1-0.5,1.7-1.4,2l1.5,2.3h-1.6l-1.4-2h-1.1
			v2h-1.4V5.2z M64.6,8.2c0.7,0,1.1-0.4,1.1-0.9c0-0.6-0.4-0.9-1.1-0.9h-1.4v1.8H64.6z"/>
		<path fill="#FFFFFF" d="M71,5.2H74c0.7,0,1.3,0.2,1.6,0.6C75.9,6,76,6.4,76,6.8c0,0.7-0.4,1.1-0.8,1.4c0.7,0.3,1.2,0.7,1.2,1.6
			c0,1.2-0.9,1.7-2.4,1.7h-3V5.2z M73.7,7.7c0.6,0,1-0.2,1-0.7c0-0.4-0.3-0.6-0.9-0.6h-1.4v1.3H73.7z M74,10.3c0.6,0,1-0.2,1-0.7
			c0-0.4-0.3-0.7-1-0.7h-1.6v1.4H74z"/>
		<path fill="#FFFFFF" d="M79,9l-2.4-3.8h1.6l1.5,2.5l1.5-2.5h1.6L80.4,9v2.5H79V9z"/>
	</g>
</g>
</svg>
